<ttFont>
    <TTGlyph name="A" xMin="-20" yMin="-217" xMax="1292" yMax="1561">
      <contour>
        <pt x="1292" y="1278" on="1"/>
        <pt x="1292" y="1231" on="0"/>
        <pt x="1253" y="1116" on="0"/>
        <pt x="1190" y="995" on="0"/>
        <pt x="1107" y="873" on="0"/>
        <pt x="1064" y="819" on="1"/>
        <pt x="1090" y="793" on="0"/>
        <pt x="1132" y="750" on="0"/>
        <pt x="1141" y="743" on="1"/>
        <pt x="1127" y="719" on="0"/>
        <pt x="1078" y="626" on="0"/>
        <pt x="1023" y="508" on="0"/>
        <pt x="966" y="376" on="0"/>
        <pt x="920" y="249" on="0"/>
        <pt x="891" y="136" on="0"/>
        <pt x="891" y="98" on="1"/>
        <pt x="891" y="48" on="0"/>
        <pt x="918" y="-38" on="0"/>
        <pt x="971" y="-103" on="0"/>
        <pt x="1050" y="-146" on="0"/>
        <pt x="1102" y="-152" on="1"/>
        <pt x="1053" y="-217" on="1"/>
        <pt x="1041" y="-217" on="0"/>
        <pt x="991" y="-206" on="0"/>
        <pt x="929" y="-179" on="0"/>
        <pt x="861" y="-133" on="0"/>
        <pt x="801" y="-62" on="0"/>
        <pt x="755" y="37" on="0"/>
        <pt x="746" y="104" on="1"/>
        <pt x="698" y="54" on="0"/>
        <pt x="587" y="-44" on="0"/>
        <pt x="469" y="-122" on="0"/>
        <pt x="348" y="-170" on="0"/>
        <pt x="291" y="-170" on="1"/>
        <pt x="258" y="-170" on="0"/>
        <pt x="189" y="-134" on="0"/>
        <pt x="122" y="-75" on="0"/>
        <pt x="61" y="3" on="0"/>
        <pt x="14" y="86" on="0"/>
        <pt x="-17" y="168" on="0"/>
        <pt x="-20" y="203" on="1"/>
        <pt x="-20" y="216" on="0"/>
        <pt x="-19" y="253" on="0"/>
        <pt x="-17" y="293" on="0"/>
        <pt x="-14" y="331" on="0"/>
        <pt x="-12" y="346" on="1"/>
        <pt x="3" y="435" on="0"/>
        <pt x="69" y="633" on="0"/>
        <pt x="164" y="837" on="0"/>
        <pt x="284" y="1039" on="0"/>
        <pt x="424" y="1223" on="0"/>
        <pt x="580" y="1380" on="0"/>
        <pt x="745" y="1495" on="0"/>
        <pt x="916" y="1561" on="0"/>
        <pt x="1001" y="1561" on="1"/>
        <pt x="1030" y="1561" on="0"/>
        <pt x="1096" y="1531" on="0"/>
        <pt x="1161" y="1483" on="0"/>
        <pt x="1220" y="1422" on="0"/>
        <pt x="1265" y="1359" on="0"/>
        <pt x="1292" y="1300" on="0"/>
      </contour>
      <contour>
        <pt x="250" y="4" on="1"/>
        <pt x="269" y="4" on="0"/>
        <pt x="342" y="48" on="0"/>
        <pt x="439" y="130" on="0"/>
        <pt x="553" y="250" on="0"/>
        <pt x="669" y="401" on="0"/>
        <pt x="782" y="582" on="0"/>
        <pt x="831" y="685" on="1"/>
        <pt x="713" y="803" on="1"/>
        <pt x="730" y="821" on="0"/>
        <pt x="802" y="881" on="0"/>
        <pt x="890" y="963" on="0"/>
        <pt x="983" y="1064" on="0"/>
        <pt x="1060" y="1181" on="0"/>
        <pt x="1110" y="1310" on="0"/>
        <pt x="1110" y="1380" on="1"/>
        <pt x="1110" y="1419" on="0"/>
        <pt x="1079" y="1460" on="0"/>
        <pt x="1067" y="1460" on="1"/>
        <pt x="1008" y="1460" on="0"/>
        <pt x="869" y="1375" on="0"/>
        <pt x="723" y="1230" on="0"/>
        <pt x="576" y="1036" on="0"/>
        <pt x="441" y="816" on="0"/>
        <pt x="324" y="584" on="0"/>
        <pt x="238" y="362" on="0"/>
        <pt x="188" y="162" on="0"/>
        <pt x="188" y="86" on="1"/>
        <pt x="188" y="4" on="0"/>
      </contour>
    </TTGlyph>
    <TTGlyph name="AE" xMin="-20" yMin="-170" xMax="1954" yMax="1618">
      <contour>
        <pt x="1561" y="973" on="1"/>
        <pt x="1599" y="1004" on="0"/>
        <pt x="1671" y="1096" on="0"/>
        <pt x="1727" y="1198" on="0"/>
        <pt x="1761" y="1304" on="0"/>
        <pt x="1761" y="1350" on="1"/>
        <pt x="1761" y="1387" on="0"/>
        <pt x="1725" y="1438" on="0"/>
        <pt x="1679" y="1438" on="1"/>
        <pt x="1641" y="1438" on="0"/>
        <pt x="1547" y="1402" on="0"/>
        <pt x="1451" y="1339" on="0"/>
        <pt x="1360" y="1252" on="0"/>
        <pt x="1290" y="1150" on="0"/>
        <pt x="1247" y="1038" on="0"/>
        <pt x="1247" y="981" on="1"/>
        <pt x="1247" y="932" on="0"/>
        <pt x="1271" y="861" on="0"/>
        <pt x="1316" y="806" on="0"/>
        <pt x="1382" y="760" on="0"/>
        <pt x="1423" y="735" on="1"/>
        <pt x="1297" y="682" on="0"/>
        <pt x="1086" y="527" on="0"/>
        <pt x="935" y="347" on="0"/>
        <pt x="850" y="156" on="0"/>
        <pt x="850" y="68" on="1"/>
        <pt x="850" y="37" on="0"/>
        <pt x="879" y="-10" on="0"/>
        <pt x="911" y="-10" on="1"/>
        <pt x="953" y="-10" on="0"/>
        <pt x="1058" y="36" on="0"/>
        <pt x="1170" y="110" on="0"/>
        <pt x="1282" y="202" on="0"/>
        <pt x="1382" y="295" on="0"/>
        <pt x="1460" y="379" on="0"/>
        <pt x="1483" y="408" on="1"/>
        <pt x="1543" y="360" on="0"/>
        <pt x="1631" y="285" on="0"/>
        <pt x="1669" y="254" on="1"/>
        <pt x="1652" y="231" on="0"/>
        <pt x="1573" y="149" on="0"/>
        <pt x="1464" y="55" on="0"/>
        <pt x="1335" y="-42" on="0"/>
        <pt x="1202" y="-120" on="0"/>
        <pt x="1072" y="-170" on="0"/>
        <pt x="1018" y="-170" on="1"/>
        <pt x="967" y="-170" on="0"/>
        <pt x="868" y="-134" on="0"/>
        <pt x="780" y="-75" on="0"/>
        <pt x="707" y="1" on="0"/>
        <pt x="682" y="41" on="1"/>
        <pt x="638" y="0" on="0"/>
        <pt x="541" y="-77" on="0"/>
        <pt x="440" y="-135" on="0"/>
        <pt x="339" y="-170" on="0"/>
        <pt x="291" y="-170" on="1"/>
        <pt x="258" y="-170" on="0"/>
        <pt x="189" y="-134" on="0"/>
        <pt x="122" y="-75" on="0"/>
        <pt x="61" y="3" on="0"/>
        <pt x="14" y="86" on="0"/>
        <pt x="-17" y="168" on="0"/>
        <pt x="-20" y="203" on="1"/>
        <pt x="-20" y="216" on="0"/>
        <pt x="-19" y="253" on="0"/>
        <pt x="-17" y="293" on="0"/>
        <pt x="-14" y="331" on="0"/>
        <pt x="-12" y="346" on="1"/>
        <pt x="3" y="435" on="0"/>
        <pt x="69" y="633" on="0"/>
        <pt x="164" y="837" on="0"/>
        <pt x="284" y="1039" on="0"/>
        <pt x="424" y="1223" on="0"/>
        <pt x="580" y="1380" on="0"/>
        <pt x="745" y="1495" on="0"/>
        <pt x="916" y="1561" on="0"/>
        <pt x="1001" y="1561" on="1"/>
        <pt x="1037" y="1561" on="0"/>
        <pt x="1121" y="1516" on="0"/>
        <pt x="1159" y="1482" on="1"/>
        <pt x="1170" y="1517" on="0"/>
        <pt x="1191" y="1586" on="0"/>
        <pt x="1200" y="1618" on="1"/>
        <pt x="1215" y="1607" on="0"/>
        <pt x="1254" y="1581" on="0"/>
        <pt x="1297" y="1551" on="0"/>
        <pt x="1341" y="1520" on="0"/>
        <pt x="1361" y="1504" on="1"/>
        <pt x="1417" y="1531" on="0"/>
        <pt x="1529" y="1561" on="0"/>
        <pt x="1583" y="1561" on="1"/>
        <pt x="1687" y="1561" on="0"/>
        <pt x="1726" y="1540" on="1"/>
        <pt x="1760" y="1522" on="0"/>
        <pt x="1840" y="1454" on="0"/>
        <pt x="1908" y="1373" on="0"/>
        <pt x="1954" y="1290" on="0"/>
        <pt x="1954" y="1257" on="1"/>
        <pt x="1954" y="1200" on="0"/>
        <pt x="1916" y="1076" on="0"/>
        <pt x="1854" y="959" on="0"/>
        <pt x="1774" y="856" on="0"/>
        <pt x="1733" y="821" on="1"/>
      </contour>
      <contour>
        <pt x="721" y="481" on="1"/>
        <pt x="786" y="587" on="0"/>
        <pt x="989" y="752" on="0"/>
        <pt x="1112" y="810" on="1"/>
        <pt x="1094" y="828" on="0"/>
        <pt x="1059" y="870" on="0"/>
        <pt x="1032" y="923" on="0"/>
        <pt x="1016" y="989" on="0"/>
        <pt x="1016" y="1030" on="1"/>
        <pt x="1016" y="1093" on="0"/>
        <pt x="1055" y="1211" on="0"/>
        <pt x="1089" y="1265" on="1"/>
        <pt x="1092" y="1273" on="0"/>
        <pt x="1098" y="1290" on="0"/>
        <pt x="1100" y="1298" on="1"/>
        <pt x="1105" y="1318" on="0"/>
        <pt x="1110" y="1359" on="0"/>
        <pt x="1110" y="1380" on="1"/>
        <pt x="1110" y="1419" on="0"/>
        <pt x="1079" y="1460" on="0"/>
        <pt x="1067" y="1460" on="1"/>
        <pt x="1008" y="1460" on="0"/>
        <pt x="869" y="1375" on="0"/>
        <pt x="723" y="1230" on="0"/>
        <pt x="576" y="1036" on="0"/>
        <pt x="441" y="816" on="0"/>
        <pt x="324" y="584" on="0"/>
        <pt x="238" y="362" on="0"/>
        <pt x="188" y="162" on="0"/>
        <pt x="188" y="86" on="1"/>
        <pt x="188" y="4" on="0"/>
        <pt x="250" y="4" on="1"/>
        <pt x="273" y="4" on="0"/>
        <pt x="374" y="70" on="0"/>
        <pt x="505" y="194" on="0"/>
        <pt x="652" y="370" on="0"/>
      </contour>
    </TTGlyph>
    <TTGlyph name="AEacute" xMin="-20" yMin="-170" xMax="1954" yMax="1997">
      <component glyphName="AE" x="0" y="0" flags="0x204"/>
      <component glyphName="acute" x="1128" y="967" flags="0x4"/>
    </TTGlyph>
    <TTGlyph name="Aacute" xMin="-20" yMin="-217" xMax="1346" yMax="1997">
      <component glyphName="A" x="0" y="0" flags="0x204"/>
      <component glyphName="acute" x="805" y="967" flags="0x4"/>
    </TTGlyph>
    <TTGlyph name="Abreve" xMin="-20" yMin="-217" xMax="1350" yMax="1932">
      <component glyphName="A" x="0" y="0" flags="0x204"/>
      <component glyphName="breve" x="707" y="967" flags="0x4"/>
    </TTGlyph>
    <TTGlyph name="Acircumflex" xMin="-20" yMin="-217" xMax="1307" yMax="1981">
      <component glyphName="A" x="0" y="0" flags="0x204"/>
      <component glyphName="circumflex" x="711" y="967" flags="0x4"/>
    </TTGlyph>
    <TTGlyph name="Adieresis" xMin="-20" yMin="-217" xMax="1383" yMax="1942">
      <component glyphName="A" x="0" y="0" flags="0x204"/>
      <component glyphName="dieresis" x="711" y="967" flags="0x4"/>
    </TTGlyph>
    <TTGlyph name="Agrave" xMin="-20" yMin="-217" xMax="1292" yMax="1995">
      <component glyphName="A" x="0" y="0" flags="0x204"/>
      <component glyphName="grave" x="711" y="967" flags="0x4"/>
    </TTGlyph>
    <TTGlyph name="Amacron" xMin="-20" yMin="-217" xMax="1370" yMax="1876">
      <component glyphName="A" x="0" y="0" flags="0x204"/>
      <component glyphName="macron" x="711" y="967" flags="0x4"/>
    </TTGlyph>
    <TTGlyph name="Aogonek" xMin="-20" yMin="-551" xMax="1292" yMax="1561">
      <contour>
        <pt x="1098" y="-506" on="1"/>
        <pt x="1070" y="-521" on="0"/>
        <pt x="975" y="-551" on="0"/>
        <pt x="913" y="-551" on="1"/>
        <pt x="897" y="-551" on="0"/>
        <pt x="853" y="-526" on="0"/>
        <pt x="812" y="-490" on="0"/>
        <pt x="784" y="-451" on="0"/>
        <pt x="784" y="-436" on="1"/>
        <pt x="784" y="-399" on="0"/>
        <pt x="808" y="-328" on="0"/>
        <pt x="851" y="-263" on="0"/>
        <pt x="909" y="-207" on="0"/>
        <pt x="944" y="-184" on="1"/>
        <pt x="872" y="-152" on="0"/>
        <pt x="765" y="-11" on="0"/>
        <pt x="745" y="104" on="1"/>
        <pt x="697" y="54" on="0"/>
        <pt x="587" y="-44" on="0"/>
        <pt x="469" y="-122" on="0"/>
        <pt x="348" y="-170" on="0"/>
        <pt x="291" y="-170" on="1"/>
        <pt x="258" y="-170" on="0"/>
        <pt x="189" y="-134" on="0"/>
        <pt x="122" y="-75" on="0"/>
        <pt x="61" y="3" on="0"/>
        <pt x="14" y="86" on="0"/>
        <pt x="-17" y="168" on="0"/>
        <pt x="-20" y="203" on="1"/>
        <pt x="-20" y="216" on="0"/>
        <pt x="-19" y="253" on="0"/>
        <pt x="-17" y="293" on="0"/>
        <pt x="-14" y="331" on="0"/>
        <pt x="-12" y="346" on="1"/>
        <pt x="3" y="435" on="0"/>
        <pt x="69" y="633" on="0"/>
        <pt x="164" y="837" on="0"/>
        <pt x="284" y="1039" on="0"/>
        <pt x="424" y="1223" on="0"/>
        <pt x="580" y="1380" on="0"/>
        <pt x="745" y="1495" on="0"/>
        <pt x="916" y="1561" on="0"/>
        <pt x="1001" y="1561" on="1"/>
        <pt x="1030" y="1561" on="0"/>
        <pt x="1096" y="1531" on="0"/>
        <pt x="1161" y="1483" on="0"/>
        <pt x="1220" y="1422" on="0"/>
        <pt x="1265" y="1359" on="0"/>
        <pt x="1292" y="1300" on="0"/>
        <pt x="1292" y="1278" on="1"/>
        <pt x="1292" y="1231" on="0"/>
        <pt x="1253" y="1116" on="0"/>
        <pt x="1189" y="995" on="0"/>
        <pt x="1107" y="873" on="0"/>
        <pt x="1063" y="819" on="1"/>
        <pt x="1089" y="793" on="0"/>
        <pt x="1131" y="750" on="0"/>
        <pt x="1141" y="743" on="1"/>
        <pt x="1127" y="719" on="0"/>
        <pt x="1078" y="626" on="0"/>
        <pt x="1023" y="508" on="0"/>
        <pt x="966" y="376" on="0"/>
        <pt x="920" y="249" on="0"/>
        <pt x="891" y="136" on="0"/>
        <pt x="891" y="98" on="1"/>
        <pt x="891" y="48" on="0"/>
        <pt x="918" y="-38" on="0"/>
        <pt x="971" y="-103" on="0"/>
        <pt x="1050" y="-146" on="0"/>
        <pt x="1102" y="-152" on="1"/>
        <pt x="1111" y="-152" on="0"/>
        <pt x="1097" y="-163" on="0"/>
        <pt x="1094" y="-166" on="1"/>
        <pt x="990" y="-244" on="0"/>
        <pt x="897" y="-356" on="0"/>
        <pt x="897" y="-393" on="1"/>
        <pt x="897" y="-407" on="0"/>
        <pt x="915" y="-422" on="0"/>
        <pt x="928" y="-422" on="1"/>
        <pt x="938" y="-422" on="0"/>
        <pt x="973" y="-415" on="0"/>
        <pt x="1012" y="-402" on="0"/>
        <pt x="1052" y="-386" on="0"/>
        <pt x="1069" y="-377" on="1"/>
        <pt x="1072" y="-389" on="0"/>
        <pt x="1080" y="-427" on="0"/>
        <pt x="1088" y="-465" on="0"/>
        <pt x="1096" y="-498" on="0"/>
      </contour>
      <contour>
        <pt x="250" y="4" on="1"/>
        <pt x="269" y="4" on="0"/>
        <pt x="343" y="48" on="0"/>
        <pt x="440" y="130" on="0"/>
        <pt x="552" y="249" on="0"/>
        <pt x="668" y="400" on="0"/>
        <pt x="781" y="581" on="0"/>
        <pt x="829" y="684" on="1"/>
        <pt x="713" y="803" on="1"/>
        <pt x="730" y="821" on="0"/>
        <pt x="802" y="881" on="0"/>
        <pt x="890" y="963" on="0"/>
        <pt x="983" y="1064" on="0"/>
        <pt x="1060" y="1181" on="0"/>
        <pt x="1110" y="1310" on="0"/>
        <pt x="1110" y="1380" on="1"/>
        <pt x="1110" y="1419" on="0"/>
        <pt x="1079" y="1460" on="0"/>
        <pt x="1067" y="1460" on="1"/>
        <pt x="1008" y="1460" on="0"/>
        <pt x="869" y="1375" on="0"/>
        <pt x="723" y="1230" on="0"/>
        <pt x="576" y="1036" on="0"/>
        <pt x="441" y="816" on="0"/>
        <pt x="324" y="584" on="0"/>
        <pt x="238" y="362" on="0"/>
        <pt x="188" y="162" on="0"/>
        <pt x="188" y="86" on="1"/>
        <pt x="188" y="4" on="0"/>
      </contour>
    </TTGlyph>
    <TTGlyph name="Aring" xMin="-20" yMin="-217" xMax="1292" yMax="2001">
      <component glyphName="A" x="0" y="0" flags="0x204"/>
      <component glyphName="ring" x="680" y="967" flags="0x4"/>
    </TTGlyph>
    <TTGlyph name="Atilde" xMin="-20" yMin="-217" xMax="1430" yMax="1934">
      <component glyphName="A" x="0" y="0" flags="0x204"/>
      <component glyphName="tilde" x="711" y="967" flags="0x4"/>
    </TTGlyph>
    <TTGlyph name="B" xMin="-123" yMin="-172" xMax="1495" yMax="1561">
      <contour>
        <pt x="1495" y="1288" on="1"/>
        <pt x="1495" y="1240" on="0"/>
        <pt x="1419" y="1123" on="0"/>
        <pt x="1300" y="1004" on="0"/>
        <pt x="1154" y="891" on="0"/>
        <pt x="1083" y="846" on="1"/>
        <pt x="1024" y="809" on="0"/>
        <pt x="915" y="748" on="0"/>
        <pt x="820" y="694" on="0"/>
        <pt x="742" y="645" on="0"/>
        <pt x="713" y="620" on="1"/>
        <pt x="785" y="607" on="0"/>
        <pt x="897" y="582" on="0"/>
        <pt x="930" y="565" on="1"/>
        <pt x="954" y="548" on="0"/>
        <pt x="1004" y="481" on="0"/>
        <pt x="1044" y="411" on="0"/>
        <pt x="1069" y="354" on="0"/>
        <pt x="1069" y="348" on="1"/>
        <pt x="1069" y="304" on="0"/>
        <pt x="1024" y="206" on="0"/>
        <pt x="945" y="109" on="0"/>
        <pt x="836" y="19" on="0"/>
        <pt x="707" y="-54" on="0"/>
        <pt x="563" y="-105" on="0"/>
        <pt x="489" y="-113" on="1"/>
        <pt x="456" y="-86" on="0"/>
        <pt x="394" y="-25" on="0"/>
        <pt x="344" y="28" on="0"/>
        <pt x="310" y="67" on="0"/>
        <pt x="306" y="72" on="1"/>
        <pt x="270" y="16" on="0"/>
        <pt x="196" y="-76" on="0"/>
        <pt x="123" y="-139" on="0"/>
        <pt x="50" y="-172" on="0"/>
        <pt x="14" y="-170" on="1"/>
        <pt x="-1" y="-169" on="0"/>
        <pt x="-33" y="-148" on="0"/>
        <pt x="-63" y="-116" on="0"/>
        <pt x="-90" y="-78" on="0"/>
        <pt x="-111" y="-43" on="0"/>
        <pt x="-123" y="-14" on="0"/>
        <pt x="-123" y="-8" on="1"/>
        <pt x="-123" y="97" on="0"/>
        <pt x="-34" y="355" on="0"/>
        <pt x="120" y="631" on="0"/>
        <pt x="330" y="908" on="0"/>
        <pt x="451" y="1032" on="1"/>
        <pt x="491" y="1176" on="0"/>
        <pt x="541" y="1448" on="0"/>
        <pt x="543" y="1561" on="1"/>
        <pt x="609" y="1526" on="0"/>
        <pt x="689" y="1459" on="0"/>
        <pt x="712" y="1433" on="1"/>
        <pt x="738" y="1402" on="0"/>
        <pt x="750" y="1374" on="1"/>
        <pt x="756" y="1356" on="0"/>
        <pt x="756" y="1323" on="1"/>
        <pt x="756" y="1317" on="0"/>
        <pt x="755" y="1304" on="0"/>
        <pt x="754" y="1297" on="1"/>
        <pt x="894" y="1397" on="0"/>
        <pt x="1171" y="1516" on="0"/>
        <pt x="1298" y="1516" on="1"/>
        <pt x="1314" y="1516" on="0"/>
        <pt x="1356" y="1492" on="0"/>
        <pt x="1399" y="1452" on="0"/>
        <pt x="1442" y="1403" on="0"/>
        <pt x="1475" y="1352" on="0"/>
        <pt x="1495" y="1305" on="0"/>
      </contour>
      <contour>
        <pt x="548" y="568" on="1"/>
        <pt x="495" y="432" on="0"/>
        <pt x="374" y="177" on="0"/>
        <pt x="308" y="74" on="1"/>
        <pt x="422" y="84" on="0"/>
        <pt x="618" y="131" on="0"/>
        <pt x="776" y="209" on="0"/>
        <pt x="895" y="323" on="0"/>
        <pt x="933" y="400" on="1"/>
        <pt x="913" y="411" on="0"/>
        <pt x="866" y="429" on="0"/>
        <pt x="814" y="443" on="0"/>
        <pt x="761" y="454" on="0"/>
        <pt x="736" y="459" on="1"/>
        <pt x="678" y="469" on="0"/>
        <pt x="616" y="475" on="1"/>
        <pt x="602" y="477" on="0"/>
        <pt x="565" y="533" on="0"/>
      </contour>
      <contour>
        <pt x="704" y="1043" on="1"/>
        <pt x="687" y="981" on="0"/>
        <pt x="646" y="846" on="0"/>
        <pt x="622" y="774" on="1"/>
        <pt x="712" y="847" on="0"/>
        <pt x="919" y="977" on="0"/>
        <pt x="1123" y="1112" on="0"/>
        <pt x="1305" y="1265" on="0"/>
        <pt x="1370" y="1362" on="1"/>
        <pt x="1374" y="1367" on="0"/>
        <pt x="1373" y="1381" on="0"/>
        <pt x="1365" y="1394" on="0"/>
        <pt x="1352" y="1403" on="0"/>
        <pt x="1343" y="1403" on="1"/>
        <pt x="1287" y="1403" on="0"/>
        <pt x="1142" y="1350" on="0"/>
        <pt x="976" y="1255" on="0"/>
        <pt x="795" y="1122" on="0"/>
      </contour>
      <contour>
        <pt x="18" y="20" on="1"/>
        <pt x="27" y="20" on="0"/>
        <pt x="62" y="65" on="0"/>
        <pt x="109" y="146" on="0"/>
        <pt x="166" y="261" on="0"/>
        <pt x="228" y="400" on="0"/>
        <pt x="293" y="560" on="0"/>
        <pt x="325" y="646" on="1"/>
        <pt x="266" y="571" on="0"/>
        <pt x="162" y="418" on="0"/>
        <pt x="79" y="266" on="0"/>
        <pt x="20" y="117" on="0"/>
        <pt x="6" y="47" on="1"/>
        <pt x="3" y="33" on="0"/>
        <pt x="12" y="20" on="0"/>
      </contour>
    </TTGlyph>
    <TTGlyph name="C" xMin="-20" yMin="-170" xMax="1274" yMax="1561">
      <contour>
        <pt x="786" y="893" on="1"/>
        <pt x="816" y="912" on="0"/>
        <pt x="883" y="971" on="0"/>
        <pt x="950" y="1046" on="0"/>
        <pt x="1012" y="1133" on="0"/>
        <pt x="1059" y="1222" on="0"/>
        <pt x="1087" y="1311" on="0"/>
        <pt x="1087" y="1352" on="1"/>
        <pt x="1087" y="1383" on="0"/>
        <pt x="1077" y="1421" on="0"/>
        <pt x="1060" y="1442" on="0"/>
        <pt x="1038" y="1450" on="0"/>
        <pt x="1026" y="1450" on="1"/>
        <pt x="978" y="1450" on="0"/>
        <pt x="856" y="1369" on="0"/>
        <pt x="721" y="1230" on="0"/>
        <pt x="580" y="1044" on="0"/>
        <pt x="448" y="831" on="0"/>
        <pt x="331" y="605" on="0"/>
        <pt x="244" y="385" on="0"/>
        <pt x="193" y="184" on="0"/>
        <pt x="193" y="104" on="1"/>
        <pt x="193" y="74" on="0"/>
        <pt x="202" y="35" on="0"/>
        <pt x="219" y="12" on="0"/>
        <pt x="245" y="4" on="0"/>
        <pt x="262" y="4" on="1"/>
        <pt x="291" y="4" on="0"/>
        <pt x="370" y="53" on="0"/>
        <pt x="459" y="131" on="0"/>
        <pt x="550" y="227" on="0"/>
        <pt x="630" y="320" on="0"/>
        <pt x="694" y="399" on="0"/>
        <pt x="711" y="422" on="1"/>
        <pt x="711" y="421" on="0"/>
        <pt x="760" y="381" on="0"/>
        <pt x="826" y="325" on="0"/>
        <pt x="892" y="268" on="0"/>
        <pt x="909" y="250" on="1"/>
        <pt x="885" y="223" on="0"/>
        <pt x="811" y="139" on="0"/>
        <pt x="718" y="46" on="0"/>
        <pt x="612" y="-48" on="0"/>
        <pt x="500" y="-123" on="0"/>
        <pt x="386" y="-170" on="0"/>
        <pt x="332" y="-170" on="1"/>
        <pt x="293" y="-170" on="0"/>
        <pt x="205" y="-123" on="0"/>
        <pt x="119" y="-48" on="0"/>
        <pt x="45" y="43" on="0"/>
        <pt x="20" y="88" on="1"/>
        <pt x="-10" y="144" on="0"/>
        <pt x="-20" y="238" on="0"/>
        <pt x="-20" y="266" on="1"/>
        <pt x="-20" y="343" on="0"/>
        <pt x="24" y="537" on="0"/>
        <pt x="106" y="748" on="0"/>
        <pt x="222" y="966" on="0"/>
        <pt x="363" y="1170" on="0"/>
        <pt x="528" y="1350" on="0"/>
        <pt x="709" y="1484" on="0"/>
        <pt x="902" y="1561" on="0"/>
        <pt x="1001" y="1561" on="1"/>
        <pt x="1029" y="1561" on="0"/>
        <pt x="1091" y="1532" on="0"/>
        <pt x="1151" y="1485" on="0"/>
        <pt x="1207" y="1423" on="0"/>
        <pt x="1249" y="1358" on="0"/>
        <pt x="1274" y="1293" on="0"/>
        <pt x="1274" y="1266" on="1"/>
        <pt x="1274" y="1206" on="0"/>
        <pt x="1226" y="1061" on="0"/>
        <pt x="1144" y="914" on="0"/>
        <pt x="1031" y="774" on="0"/>
        <pt x="967" y="719" on="1"/>
      </contour>
    </TTGlyph>
    <TTGlyph name="Cacute" xMin="-20" yMin="-170" xMax="1309" yMax="1997">
      <component glyphName="C" x="0" y="0" flags="0x204"/>
      <component glyphName="acute" x="768" y="967" flags="0x4"/>
    </TTGlyph>
    <TTGlyph name="Ccaron" xMin="-20" yMin="-170" xMax="1352" yMax="1966">
      <component glyphName="C" x="0" y="0" flags="0x204"/>
      <component glyphName="caron" x="674" y="967" flags="0x4"/>
    </TTGlyph>
    <TTGlyph name="Ccedilla" xMin="-20" yMin="-553" xMax="1274" yMax="1561">
      <contour>
        <pt x="455" y="-322" on="1"/>
        <pt x="455" y="-354" on="0"/>
        <pt x="430" y="-426" on="0"/>
        <pt x="367" y="-491" on="0"/>
        <pt x="258" y="-542" on="0"/>
        <pt x="174" y="-553" on="1"/>
        <pt x="167" y="-545" on="0"/>
        <pt x="155" y="-514" on="0"/>
        <pt x="144" y="-479" on="0"/>
        <pt x="135" y="-445" on="0"/>
        <pt x="131" y="-434" on="1"/>
        <pt x="157" y="-431" on="0"/>
        <pt x="230" y="-417" on="0"/>
        <pt x="296" y="-393" on="0"/>
        <pt x="342" y="-358" on="0"/>
        <pt x="342" y="-334" on="1"/>
        <pt x="342" y="-333" on="0"/>
        <pt x="339" y="-324" on="0"/>
        <pt x="329" y="-314" on="0"/>
        <pt x="310" y="-307" on="0"/>
        <pt x="295" y="-307" on="1"/>
        <pt x="250" y="-307" on="0"/>
        <pt x="197" y="-319" on="0"/>
        <pt x="197" y="-311" on="1"/>
        <pt x="211" y="-277" on="0"/>
        <pt x="251" y="-193" on="0"/>
        <pt x="266" y="-156" on="1"/>
        <pt x="232" y="-141" on="0"/>
        <pt x="162" y="-88" on="0"/>
        <pt x="96" y="-21" on="0"/>
        <pt x="39" y="53" on="0"/>
        <pt x="20" y="88" on="1"/>
        <pt x="-10" y="144" on="0"/>
        <pt x="-20" y="238" on="0"/>
        <pt x="-20" y="266" on="1"/>
        <pt x="-20" y="343" on="0"/>
        <pt x="24" y="537" on="0"/>
        <pt x="106" y="748" on="0"/>
        <pt x="222" y="966" on="0"/>
        <pt x="363" y="1170" on="0"/>
        <pt x="528" y="1350" on="0"/>
        <pt x="709" y="1484" on="0"/>
        <pt x="902" y="1561" on="0"/>
        <pt x="1001" y="1561" on="1"/>
        <pt x="1029" y="1561" on="0"/>
        <pt x="1091" y="1532" on="0"/>
        <pt x="1151" y="1485" on="0"/>
        <pt x="1207" y="1423" on="0"/>
        <pt x="1249" y="1358" on="0"/>
        <pt x="1274" y="1293" on="0"/>
        <pt x="1274" y="1266" on="1"/>
        <pt x="1274" y="1206" on="0"/>
        <pt x="1226" y="1061" on="0"/>
        <pt x="1144" y="914" on="0"/>
        <pt x="1031" y="774" on="0"/>
        <pt x="967" y="719" on="1"/>
        <pt x="786" y="893" on="1"/>
        <pt x="816" y="912" on="0"/>
        <pt x="883" y="971" on="0"/>
        <pt x="950" y="1046" on="0"/>
        <pt x="1012" y="1133" on="0"/>
        <pt x="1059" y="1222" on="0"/>
        <pt x="1087" y="1311" on="0"/>
        <pt x="1087" y="1352" on="1"/>
        <pt x="1087" y="1383" on="0"/>
        <pt x="1077" y="1421" on="0"/>
        <pt x="1060" y="1442" on="0"/>
        <pt x="1038" y="1450" on="0"/>
        <pt x="1026" y="1450" on="1"/>
        <pt x="978" y="1450" on="0"/>
        <pt x="856" y="1369" on="0"/>
        <pt x="721" y="1230" on="0"/>
        <pt x="580" y="1044" on="0"/>
        <pt x="448" y="831" on="0"/>
        <pt x="331" y="605" on="0"/>
        <pt x="244" y="385" on="0"/>
        <pt x="193" y="184" on="0"/>
        <pt x="193" y="104" on="1"/>
        <pt x="193" y="74" on="0"/>
        <pt x="202" y="35" on="0"/>
        <pt x="219" y="12" on="0"/>
        <pt x="245" y="4" on="0"/>
        <pt x="262" y="4" on="1"/>
        <pt x="291" y="4" on="0"/>
        <pt x="370" y="53" on="0"/>
        <pt x="459" y="131" on="0"/>
        <pt x="550" y="227" on="0"/>
        <pt x="630" y="320" on="0"/>
        <pt x="694" y="399" on="0"/>
        <pt x="711" y="422" on="1"/>
        <pt x="711" y="421" on="0"/>
        <pt x="760" y="381" on="0"/>
        <pt x="826" y="325" on="0"/>
        <pt x="892" y="268" on="0"/>
        <pt x="909" y="250" on="1"/>
        <pt x="885" y="223" on="0"/>
        <pt x="812" y="141" on="0"/>
        <pt x="721" y="49" on="0"/>
        <pt x="616" y="-43" on="0"/>
        <pt x="506" y="-118" on="0"/>
        <pt x="393" y="-166" on="0"/>
        <pt x="340" y="-168" on="1"/>
        <pt x="303" y="-254" on="1"/>
        <pt x="322" y="-249" on="0"/>
        <pt x="350" y="-244" on="0"/>
        <pt x="375" y="-244" on="1"/>
        <pt x="385" y="-244" on="0"/>
        <pt x="411" y="-258" on="0"/>
        <pt x="435" y="-280" on="0"/>
        <pt x="453" y="-308" on="0"/>
      </contour>
    </TTGlyph>
    <TTGlyph name="Ccircumflex" xMin="-20" yMin="-170" xMax="1274" yMax="1981">
      <component glyphName="C" x="0" y="0" flags="0x204"/>
      <component glyphName="circumflex" x="674" y="967" flags="0x4"/>
    </TTGlyph>
    <TTGlyph name="Cdotaccent" xMin="-20" yMin="-170" xMax="1274" yMax="1921">
      <component glyphName="C" x="0" y="0" flags="0x204"/>
      <component glyphName="dotaccent" x="674" y="967" flags="0x4"/>
    </TTGlyph>
    <TTGlyph name="D" xMin="-104" yMin="-178" xMax="1435" yMax="1602">
      <contour>
        <pt x="1389" y="1284" on="1"/>
        <pt x="1402" y="1267" on="0"/>
        <pt x="1420" y="1231" on="0"/>
        <pt x="1430" y="1185" on="0"/>
        <pt x="1435" y="1126" on="0"/>
        <pt x="1434" y="1087" on="1"/>
        <pt x="1430" y="958" on="0"/>
        <pt x="1371" y="686" on="0"/>
        <pt x="1261" y="426" on="0"/>
        <pt x="1103" y="187" on="0"/>
        <pt x="899" y="-8" on="0"/>
        <pt x="650" y="-147" on="0"/>
        <pt x="504" y="-178" on="1"/>
        <pt x="457" y="-148" on="0"/>
        <pt x="387" y="-92" on="0"/>
        <pt x="337" y="-45" on="0"/>
        <pt x="306" y="-10" on="0"/>
        <pt x="299" y="-1" on="1"/>
        <pt x="246" y="-79" on="0"/>
        <pt x="142" y="-170" on="0"/>
        <pt x="92" y="-170" on="1"/>
        <pt x="68" y="-170" on="0"/>
        <pt x="20" y="-143" on="0"/>
        <pt x="-23" y="-101" on="0"/>
        <pt x="-61" y="-49" on="0"/>
        <pt x="-88" y="-1" on="0"/>
        <pt x="-104" y="39" on="0"/>
        <pt x="-104" y="49" on="1"/>
        <pt x="-104" y="111" on="0"/>
        <pt x="-65" y="265" on="0"/>
        <pt x="5" y="437" on="0"/>
        <pt x="103" y="621" on="0"/>
        <pt x="223" y="806" on="0"/>
        <pt x="360" y="987" on="0"/>
        <pt x="434" y="1070" on="1"/>
        <pt x="462" y="1208" on="0"/>
        <pt x="497" y="1478" on="0"/>
        <pt x="502" y="1602" on="1"/>
        <pt x="559" y="1566" on="0"/>
        <pt x="652" y="1496" on="0"/>
        <pt x="685" y="1467" on="1"/>
        <pt x="724" y="1434" on="0"/>
        <pt x="754" y="1403" on="1"/>
        <pt x="751" y="1358" on="1"/>
        <pt x="846" y="1426" on="0"/>
        <pt x="1030" y="1503" on="0"/>
        <pt x="1114" y="1503" on="1"/>
        <pt x="1155" y="1503" on="0"/>
        <pt x="1232" y="1458" on="0"/>
        <pt x="1303" y="1392" on="0"/>
        <pt x="1364" y="1315" on="0"/>
      </contour>
      <contour>
        <pt x="707" y="1090" on="1"/>
        <pt x="688" y="1001" on="0"/>
        <pt x="637" y="806" on="0"/>
        <pt x="575" y="609" on="0"/>
        <pt x="505" y="413" on="0"/>
        <pt x="429" y="233" on="0"/>
        <pt x="347" y="73" on="0"/>
        <pt x="306" y="10" on="1"/>
        <pt x="431" y="29" on="0"/>
        <pt x="646" y="126" on="0"/>
        <pt x="826" y="267" on="0"/>
        <pt x="973" y="442" on="0"/>
        <pt x="1087" y="634" on="0"/>
        <pt x="1172" y="835" on="0"/>
        <pt x="1226" y="1026" on="0"/>
        <pt x="1253" y="1200" on="0"/>
        <pt x="1253" y="1270" on="1"/>
        <pt x="1253" y="1291" on="0"/>
        <pt x="1242" y="1335" on="0"/>
        <pt x="1220" y="1371" on="0"/>
        <pt x="1187" y="1393" on="0"/>
        <pt x="1165" y="1393" on="1"/>
        <pt x="1123" y="1393" on="0"/>
        <pt x="1019" y="1348" on="0"/>
        <pt x="901" y="1267" on="0"/>
        <pt x="773" y="1156" on="0"/>
      </contour>
      <contour>
        <pt x="49" y="18" on="1"/>
        <pt x="68" y="9" on="0"/>
        <pt x="130" y="99" on="0"/>
        <pt x="206" y="267" on="0"/>
        <pt x="289" y="502" on="0"/>
        <pt x="329" y="639" on="1"/>
        <pt x="265" y="550" on="0"/>
        <pt x="157" y="380" on="0"/>
        <pt x="79" y="229" on="0"/>
        <pt x="35" y="104" on="0"/>
        <pt x="35" y="61" on="1"/>
        <pt x="35" y="27" on="0"/>
      </contour>
    </TTGlyph>
    <TTGlyph name="Dcaron" xMin="-104" yMin="-178" xMax="1435" yMax="1949">
      <component glyphName="D" x="0" y="0" flags="0x204"/>
      <component glyphName="caron" x="682" y="950" flags="0x4"/>
    </TTGlyph>
    <TTGlyph name="Dcroat" xMin="-84" yMin="-178" xMax="1455" yMax="1602">
      <contour>
        <pt x="1409" y="1284" on="1"/>
        <pt x="1422" y="1267" on="0"/>
        <pt x="1440" y="1231" on="0"/>
        <pt x="1451" y="1185" on="0"/>
        <pt x="1455" y="1126" on="0"/>
        <pt x="1454" y="1087" on="1"/>
        <pt x="1451" y="958" on="0"/>
        <pt x="1391" y="686" on="0"/>
        <pt x="1282" y="426" on="0"/>
        <pt x="1124" y="187" on="0"/>
        <pt x="919" y="-8" on="0"/>
        <pt x="670" y="-147" on="0"/>
        <pt x="524" y="-178" on="1"/>
        <pt x="478" y="-149" on="0"/>
        <pt x="408" y="-93" on="0"/>
        <pt x="357" y="-46" on="0"/>
        <pt x="326" y="-10" on="0"/>
        <pt x="319" y="-1" on="1"/>
        <pt x="266" y="-79" on="0"/>
        <pt x="163" y="-170" on="0"/>
        <pt x="113" y="-170" on="1"/>
        <pt x="89" y="-170" on="0"/>
        <pt x="41" y="-143" on="0"/>
        <pt x="-3" y="-101" on="0"/>
        <pt x="-41" y="-49" on="0"/>
        <pt x="-68" y="-1" on="0"/>
        <pt x="-84" y="39" on="0"/>
        <pt x="-84" y="49" on="1"/>
        <pt x="-84" y="99" on="0"/>
        <pt x="-59" y="219" on="0"/>
        <pt x="-13" y="351" on="0"/>
        <pt x="54" y="493" on="0"/>
        <pt x="95" y="567" on="1"/>
        <pt x="30" y="568" on="0"/>
        <pt x="-52" y="569" on="0"/>
        <pt x="-57" y="571" on="1"/>
        <pt x="-54" y="583" on="0"/>
        <pt x="-41" y="620" on="0"/>
        <pt x="-26" y="658" on="0"/>
        <pt x="-11" y="692" on="0"/>
        <pt x="-6" y="700" on="1"/>
        <pt x="1" y="702" on="0"/>
        <pt x="102" y="706" on="0"/>
        <pt x="179" y="708" on="1"/>
        <pt x="240" y="802" on="0"/>
        <pt x="379" y="985" on="0"/>
        <pt x="455" y="1070" on="1"/>
        <pt x="482" y="1208" on="0"/>
        <pt x="518" y="1478" on="0"/>
        <pt x="522" y="1602" on="1"/>
        <pt x="580" y="1566" on="0"/>
        <pt x="673" y="1496" on="0"/>
        <pt x="706" y="1467" on="1"/>
        <pt x="745" y="1434" on="0"/>
        <pt x="774" y="1403" on="1"/>
        <pt x="771" y="1358" on="1"/>
        <pt x="867" y="1426" on="0"/>
        <pt x="1050" y="1503" on="0"/>
        <pt x="1135" y="1503" on="1"/>
        <pt x="1175" y="1503" on="0"/>
        <pt x="1253" y="1458" on="0"/>
        <pt x="1323" y="1392" on="0"/>
        <pt x="1384" y="1315" on="0"/>
      </contour>
      <contour>
        <pt x="899" y="713" on="1"/>
        <pt x="895" y="695" on="0"/>
        <pt x="882" y="654" on="0"/>
        <pt x="866" y="614" on="0"/>
        <pt x="850" y="580" on="0"/>
        <pt x="844" y="571" on="1"/>
        <pt x="581" y="569" on="1"/>
        <pt x="525" y="406" on="0"/>
        <pt x="396" y="115" on="0"/>
        <pt x="327" y="10" on="1"/>
        <pt x="452" y="29" on="0"/>
        <pt x="666" y="126" on="0"/>
        <pt x="846" y="267" on="0"/>
        <pt x="993" y="442" on="0"/>
        <pt x="1108" y="634" on="0"/>
        <pt x="1192" y="835" on="0"/>
        <pt x="1247" y="1026" on="0"/>
        <pt x="1274" y="1200" on="0"/>
        <pt x="1274" y="1270" on="1"/>
        <pt x="1274" y="1291" on="0"/>
        <pt x="1263" y="1335" on="0"/>
        <pt x="1240" y="1371" on="0"/>
        <pt x="1207" y="1393" on="0"/>
        <pt x="1186" y="1393" on="1"/>
        <pt x="1144" y="1393" on="0"/>
        <pt x="1040" y="1348" on="0"/>
        <pt x="922" y="1267" on="0"/>
        <pt x="794" y="1156" on="0"/>
        <pt x="728" y="1090" on="1"/>
        <pt x="709" y="1001" on="0"/>
        <pt x="659" y="811" on="0"/>
        <pt x="628" y="712" on="1"/>
      </contour>
      <contour>
        <pt x="70" y="18" on="1"/>
        <pt x="88" y="10" on="0"/>
        <pt x="145" y="87" on="0"/>
        <pt x="214" y="235" on="0"/>
        <pt x="290" y="444" on="0"/>
        <pt x="328" y="567" on="1"/>
        <pt x="297" y="567" on="1"/>
        <pt x="243" y="489" on="0"/>
        <pt x="154" y="340" on="0"/>
        <pt x="90" y="208" on="0"/>
        <pt x="55" y="99" on="0"/>
        <pt x="55" y="61" on="1"/>
        <pt x="55" y="26" on="0"/>
      </contour>
    </TTGlyph>
    <TTGlyph name="E" xMin="-82" yMin="-170" xMax="1235" yMax="1561">
      <contour>
        <pt x="842" y="973" on="1"/>
        <pt x="880" y="1004" on="0"/>
        <pt x="952" y="1096" on="0"/>
        <pt x="1008" y="1198" on="0"/>
        <pt x="1042" y="1304" on="0"/>
        <pt x="1042" y="1350" on="1"/>
        <pt x="1042" y="1387" on="0"/>
        <pt x="1007" y="1438" on="0"/>
        <pt x="961" y="1438" on="1"/>
        <pt x="922" y="1438" on="0"/>
        <pt x="828" y="1402" on="0"/>
        <pt x="732" y="1339" on="0"/>
        <pt x="641" y="1252" on="0"/>
        <pt x="571" y="1150" on="0"/>
        <pt x="528" y="1038" on="0"/>
        <pt x="528" y="981" on="1"/>
        <pt x="528" y="932" on="0"/>
        <pt x="552" y="861" on="0"/>
        <pt x="598" y="806" on="0"/>
        <pt x="663" y="760" on="0"/>
        <pt x="705" y="735" on="1"/>
        <pt x="579" y="682" on="0"/>
        <pt x="368" y="527" on="0"/>
        <pt x="216" y="347" on="0"/>
        <pt x="131" y="156" on="0"/>
        <pt x="131" y="68" on="1"/>
        <pt x="131" y="37" on="0"/>
        <pt x="161" y="-10" on="0"/>
        <pt x="193" y="-10" on="1"/>
        <pt x="235" y="-10" on="0"/>
        <pt x="339" y="36" on="0"/>
        <pt x="451" y="110" on="0"/>
        <pt x="564" y="202" on="0"/>
        <pt x="663" y="295" on="0"/>
        <pt x="741" y="379" on="0"/>
        <pt x="764" y="408" on="1"/>
        <pt x="824" y="360" on="0"/>
        <pt x="912" y="285" on="0"/>
        <pt x="950" y="254" on="1"/>
        <pt x="933" y="231" on="0"/>
        <pt x="854" y="149" on="0"/>
        <pt x="745" y="55" on="0"/>
        <pt x="616" y="-42" on="0"/>
        <pt x="483" y="-120" on="0"/>
        <pt x="353" y="-170" on="0"/>
        <pt x="299" y="-170" on="1"/>
        <pt x="252" y="-170" on="0"/>
        <pt x="159" y="-138" on="0"/>
        <pt x="75" y="-85" on="0"/>
        <pt x="4" y="-16" on="0"/>
        <pt x="-49" y="58" on="0"/>
        <pt x="-81" y="132" on="0"/>
        <pt x="-82" y="164" on="1"/>
        <pt x="-82" y="188" on="1"/>
        <pt x="-82" y="293" on="0"/>
        <pt x="-8" y="479" on="0"/>
        <pt x="121" y="636" on="0"/>
        <pt x="294" y="763" on="0"/>
        <pt x="393" y="810" on="1"/>
        <pt x="375" y="828" on="0"/>
        <pt x="340" y="870" on="0"/>
        <pt x="313" y="923" on="0"/>
        <pt x="297" y="989" on="0"/>
        <pt x="297" y="1030" on="1"/>
        <pt x="297" y="1100" on="0"/>
        <pt x="347" y="1234" on="0"/>
        <pt x="431" y="1352" on="0"/>
        <pt x="544" y="1450" on="0"/>
        <pt x="670" y="1521" on="0"/>
        <pt x="802" y="1561" on="0"/>
        <pt x="864" y="1561" on="1"/>
        <pt x="967" y="1561" on="0"/>
        <pt x="1008" y="1540" on="1"/>
        <pt x="1042" y="1522" on="0"/>
        <pt x="1121" y="1454" on="0"/>
        <pt x="1189" y="1373" on="0"/>
        <pt x="1235" y="1290" on="0"/>
        <pt x="1235" y="1257" on="1"/>
        <pt x="1235" y="1200" on="0"/>
        <pt x="1197" y="1076" on="0"/>
        <pt x="1135" y="959" on="0"/>
        <pt x="1055" y="856" on="0"/>
        <pt x="1014" y="821" on="1"/>
      </contour>
    </TTGlyph>
    <TTGlyph name="Eacute" xMin="-82" yMin="-170" xMax="1235" yMax="1997">
      <component glyphName="E" x="0" y="0" flags="0x204"/>
      <component glyphName="acute" x="657" y="967" flags="0x4"/>
    </TTGlyph>
    <TTGlyph name="Ebreve" xMin="-82" yMin="-170" xMax="1235" yMax="1932">
      <component glyphName="E" x="0" y="0" flags="0x204"/>
      <component glyphName="breve" x="559" y="967" flags="0x4"/>
    </TTGlyph>
    <TTGlyph name="Ecaron" xMin="-82" yMin="-170" xMax="1241" yMax="1966">
      <component glyphName="E" x="0" y="0" flags="0x204"/>
      <component glyphName="caron" x="563" y="967" flags="0x4"/>
    </TTGlyph>
    <TTGlyph name="Ecircumflex" xMin="-82" yMin="-170" xMax="1235" yMax="1981">
      <component glyphName="E" x="0" y="0" flags="0x204"/>
      <component glyphName="circumflex" x="563" y="967" flags="0x4"/>
    </TTGlyph>
    <TTGlyph name="Edieresis" xMin="-82" yMin="-170" xMax="1235" yMax="1942">
      <component glyphName="E" x="0" y="0" flags="0x204"/>
      <component glyphName="dieresis" x="563" y="967" flags="0x4"/>
    </TTGlyph>
    <TTGlyph name="Edotaccent" xMin="-82" yMin="-170" xMax="1235" yMax="1921">
      <component glyphName="E" x="0" y="0" flags="0x204"/>
      <component glyphName="dotaccent" x="563" y="967" flags="0x4"/>
    </TTGlyph>
    <TTGlyph name="Egrave" xMin="-82" yMin="-170" xMax="1235" yMax="1995">
      <component glyphName="E" x="0" y="0" flags="0x204"/>
      <component glyphName="grave" x="563" y="967" flags="0x4"/>
    </TTGlyph>
    <TTGlyph name="Emacron" xMin="-82" yMin="-170" xMax="1235" yMax="1876">
      <component glyphName="E" x="0" y="0" flags="0x204"/>
      <component glyphName="macron" x="563" y="967" flags="0x4"/>
    </TTGlyph>
    <TTGlyph name="Eng" xMin="-246" yMin="-614" xMax="1335" yMax="1651">
      <contour>
        <pt x="753" y="-139" on="1"/>
        <pt x="801" y="-50" on="0"/>
        <pt x="888" y="163" on="0"/>
        <pt x="961" y="403" on="0"/>
        <pt x="1020" y="663" on="0"/>
        <pt x="1061" y="934" on="0"/>
        <pt x="1083" y="1210" on="0"/>
        <pt x="1083" y="1346" on="1"/>
        <pt x="1083" y="1397" on="0"/>
        <pt x="1080" y="1494" on="0"/>
        <pt x="1075" y="1542" on="1"/>
        <pt x="1127" y="1502" on="0"/>
        <pt x="1221" y="1404" on="0"/>
        <pt x="1257" y="1360" on="1"/>
        <pt x="1299" y="1309" on="0"/>
        <pt x="1335" y="1257" on="1"/>
        <pt x="1335" y="1223" on="1"/>
        <pt x="1333" y="1114" on="0"/>
        <pt x="1304" y="840" on="0"/>
        <pt x="1249" y="541" on="0"/>
        <pt x="1168" y="231" on="0"/>
        <pt x="1059" y="-59" on="0"/>
        <pt x="922" y="-314" on="0"/>
        <pt x="756" y="-504" on="0"/>
        <pt x="561" y="-614" on="0"/>
        <pt x="449" y="-614" on="1"/>
        <pt x="405" y="-614" on="0"/>
        <pt x="304" y="-568" on="0"/>
        <pt x="219" y="-494" on="0"/>
        <pt x="162" y="-404" on="0"/>
        <pt x="162" y="-360" on="1"/>
        <pt x="162" y="-334" on="0"/>
        <pt x="166" y="-258" on="0"/>
        <pt x="174" y="-215" on="1"/>
        <pt x="375" y="-154" on="1"/>
        <pt x="350" y="-219" on="0"/>
        <pt x="322" y="-346" on="0"/>
        <pt x="322" y="-403" on="1"/>
        <pt x="322" y="-413" on="0"/>
        <pt x="328" y="-437" on="0"/>
        <pt x="341" y="-457" on="0"/>
        <pt x="364" y="-471" on="0"/>
        <pt x="381" y="-471" on="1"/>
        <pt x="468" y="-471" on="0"/>
        <pt x="633" y="-335" on="0"/>
        <pt x="708" y="-215" on="1"/>
        <pt x="694" y="-210" on="0"/>
        <pt x="664" y="-191" on="0"/>
        <pt x="635" y="-168" on="0"/>
        <pt x="612" y="-144" on="0"/>
        <pt x="606" y="-133" on="1"/>
        <pt x="598" y="-119" on="0"/>
        <pt x="545" y="-36" on="0"/>
        <pt x="481" y="114" on="0"/>
        <pt x="421" y="338" on="0"/>
        <pt x="406" y="493" on="1"/>
        <pt x="363" y="437" on="0"/>
        <pt x="261" y="309" on="0"/>
        <pt x="154" y="182" on="0"/>
        <pt x="49" y="61" on="0"/>
        <pt x="-43" y="-40" on="0"/>
        <pt x="-115" y="-113" on="0"/>
        <pt x="-135" y="-129" on="1"/>
        <pt x="-145" y="-118" on="0"/>
        <pt x="-174" y="-90" on="0"/>
        <pt x="-205" y="-59" on="0"/>
        <pt x="-235" y="-28" on="0"/>
        <pt x="-246" y="-14" on="1"/>
        <pt x="-100" y="114" on="0"/>
        <pt x="200" y="580" on="0"/>
        <pt x="336" y="909" on="1"/>
        <pt x="353" y="895" on="0"/>
        <pt x="383" y="867" on="0"/>
        <pt x="397" y="853" on="1"/>
        <pt x="401" y="993" on="0"/>
        <pt x="412" y="1211" on="0"/>
        <pt x="426" y="1378" on="0"/>
        <pt x="439" y="1498" on="0"/>
        <pt x="451" y="1582" on="0"/>
        <pt x="460" y="1635" on="0"/>
        <pt x="463" y="1651" on="1"/>
        <pt x="473" y="1642" on="0"/>
        <pt x="513" y="1603" on="0"/>
        <pt x="563" y="1555" on="0"/>
        <pt x="618" y="1502" on="0"/>
        <pt x="667" y="1454" on="0"/>
        <pt x="704" y="1416" on="0"/>
        <pt x="711" y="1407" on="1"/>
        <pt x="698" y="1357" on="0"/>
        <pt x="665" y="1224" on="0"/>
        <pt x="636" y="1045" on="0"/>
        <pt x="616" y="815" on="0"/>
        <pt x="616" y="668" on="1"/>
        <pt x="616" y="668" on="0"/>
        <pt x="616" y="619" on="0"/>
        <pt x="619" y="534" on="0"/>
        <pt x="627" y="420" on="0"/>
        <pt x="640" y="291" on="0"/>
        <pt x="660" y="155" on="0"/>
        <pt x="689" y="24" on="0"/>
        <pt x="728" y="-93" on="0"/>
      </contour>
    </TTGlyph>
    <TTGlyph name="Eogonek" xMin="-82" yMin="-508" xMax="1235" yMax="1561">
      <contour>
        <pt x="483" y="-463" on="1"/>
        <pt x="455" y="-478" on="0"/>
        <pt x="361" y="-508" on="0"/>
        <pt x="299" y="-508" on="1"/>
        <pt x="283" y="-508" on="0"/>
        <pt x="239" y="-483" on="0"/>
        <pt x="198" y="-447" on="0"/>
        <pt x="170" y="-408" on="0"/>
        <pt x="170" y="-393" on="1"/>
        <pt x="170" y="-362" on="0"/>
        <pt x="193" y="-300" on="0"/>
        <pt x="230" y="-243" on="0"/>
        <pt x="275" y="-191" on="0"/>
        <pt x="297" y="-170" on="1"/>
        <pt x="225" y="-169" on="0"/>
        <pt x="91" y="-100" on="0"/>
        <pt x="-14" y="6" on="0"/>
        <pt x="-80" y="131" on="0"/>
        <pt x="-82" y="188" on="1"/>
        <pt x="-82" y="293" on="0"/>
        <pt x="-8" y="479" on="0"/>
        <pt x="121" y="636" on="0"/>
        <pt x="294" y="763" on="0"/>
        <pt x="393" y="811" on="1"/>
        <pt x="375" y="829" on="0"/>
        <pt x="340" y="871" on="0"/>
        <pt x="313" y="924" on="0"/>
        <pt x="297" y="989" on="0"/>
        <pt x="297" y="1030" on="1"/>
        <pt x="297" y="1100" on="0"/>
        <pt x="347" y="1234" on="0"/>
        <pt x="431" y="1352" on="0"/>
        <pt x="544" y="1450" on="0"/>
        <pt x="670" y="1521" on="0"/>
        <pt x="802" y="1561" on="0"/>
        <pt x="864" y="1561" on="1"/>
        <pt x="967" y="1561" on="0"/>
        <pt x="1008" y="1540" on="1"/>
        <pt x="1042" y="1522" on="0"/>
        <pt x="1121" y="1454" on="0"/>
        <pt x="1189" y="1373" on="0"/>
        <pt x="1235" y="1290" on="0"/>
        <pt x="1235" y="1257" on="1"/>
        <pt x="1235" y="1200" on="0"/>
        <pt x="1197" y="1076" on="0"/>
        <pt x="1135" y="959" on="0"/>
        <pt x="1055" y="856" on="0"/>
        <pt x="1014" y="821" on="1"/>
        <pt x="842" y="973" on="1"/>
        <pt x="880" y="1004" on="0"/>
        <pt x="952" y="1096" on="0"/>
        <pt x="1008" y="1198" on="0"/>
        <pt x="1042" y="1304" on="0"/>
        <pt x="1042" y="1350" on="1"/>
        <pt x="1042" y="1387" on="0"/>
        <pt x="1007" y="1438" on="0"/>
        <pt x="961" y="1438" on="1"/>
        <pt x="922" y="1438" on="0"/>
        <pt x="828" y="1402" on="0"/>
        <pt x="732" y="1339" on="0"/>
        <pt x="641" y="1252" on="0"/>
        <pt x="571" y="1150" on="0"/>
        <pt x="528" y="1038" on="0"/>
        <pt x="528" y="981" on="1"/>
        <pt x="528" y="932" on="0"/>
        <pt x="552" y="861" on="0"/>
        <pt x="598" y="806" on="0"/>
        <pt x="663" y="760" on="0"/>
        <pt x="705" y="735" on="1"/>
        <pt x="579" y="682" on="0"/>
        <pt x="368" y="527" on="0"/>
        <pt x="216" y="347" on="0"/>
        <pt x="131" y="156" on="0"/>
        <pt x="131" y="68" on="1"/>
        <pt x="131" y="37" on="0"/>
        <pt x="161" y="-10" on="0"/>
        <pt x="193" y="-10" on="1"/>
        <pt x="235" y="-10" on="0"/>
        <pt x="339" y="36" on="0"/>
        <pt x="451" y="110" on="0"/>
        <pt x="564" y="202" on="0"/>
        <pt x="663" y="295" on="0"/>
        <pt x="741" y="379" on="0"/>
        <pt x="764" y="408" on="1"/>
        <pt x="824" y="360" on="0"/>
        <pt x="912" y="285" on="0"/>
        <pt x="950" y="254" on="1"/>
        <pt x="929" y="225" on="0"/>
        <pt x="836" y="128" on="0"/>
        <pt x="706" y="18" on="0"/>
        <pt x="545" y="-89" on="0"/>
        <pt x="457" y="-129" on="1"/>
        <pt x="434" y="-139" on="0"/>
        <pt x="374" y="-192" on="0"/>
        <pt x="320" y="-258" on="0"/>
        <pt x="283" y="-326" on="0"/>
        <pt x="283" y="-350" on="1"/>
        <pt x="283" y="-364" on="0"/>
        <pt x="301" y="-379" on="0"/>
        <pt x="313" y="-379" on="1"/>
        <pt x="324" y="-379" on="0"/>
        <pt x="358" y="-372" on="0"/>
        <pt x="398" y="-359" on="0"/>
        <pt x="438" y="-343" on="0"/>
        <pt x="455" y="-334" on="1"/>
        <pt x="458" y="-346" on="0"/>
        <pt x="466" y="-384" on="0"/>
        <pt x="474" y="-422" on="0"/>
        <pt x="481" y="-455" on="0"/>
      </contour>
    </TTGlyph>
    <TTGlyph name="Eth" xMin="-84" yMin="-178" xMax="1455" yMax="1602">
      <contour>
        <pt x="1409" y="1284" on="1"/>
        <pt x="1422" y="1267" on="0"/>
        <pt x="1440" y="1231" on="0"/>
        <pt x="1451" y="1185" on="0"/>
        <pt x="1455" y="1126" on="0"/>
        <pt x="1454" y="1087" on="1"/>
        <pt x="1451" y="958" on="0"/>
        <pt x="1391" y="686" on="0"/>
        <pt x="1282" y="426" on="0"/>
        <pt x="1124" y="187" on="0"/>
        <pt x="919" y="-8" on="0"/>
        <pt x="670" y="-147" on="0"/>
        <pt x="524" y="-178" on="1"/>
        <pt x="478" y="-149" on="0"/>
        <pt x="408" y="-93" on="0"/>
        <pt x="357" y="-46" on="0"/>
        <pt x="326" y="-10" on="0"/>
        <pt x="319" y="-1" on="1"/>
        <pt x="266" y="-79" on="0"/>
        <pt x="163" y="-170" on="0"/>
        <pt x="113" y="-170" on="1"/>
        <pt x="89" y="-170" on="0"/>
        <pt x="41" y="-143" on="0"/>
        <pt x="-3" y="-101" on="0"/>
        <pt x="-41" y="-49" on="0"/>
        <pt x="-68" y="-1" on="0"/>
        <pt x="-84" y="39" on="0"/>
        <pt x="-84" y="49" on="1"/>
        <pt x="-84" y="99" on="0"/>
        <pt x="-59" y="219" on="0"/>
        <pt x="-13" y="351" on="0"/>
        <pt x="54" y="493" on="0"/>
        <pt x="95" y="567" on="1"/>
        <pt x="30" y="568" on="0"/>
        <pt x="-52" y="569" on="0"/>
        <pt x="-57" y="571" on="1"/>
        <pt x="-54" y="583" on="0"/>
        <pt x="-41" y="620" on="0"/>
        <pt x="-26" y="658" on="0"/>
        <pt x="-11" y="692" on="0"/>
        <pt x="-6" y="700" on="1"/>
        <pt x="1" y="702" on="0"/>
        <pt x="102" y="706" on="0"/>
        <pt x="179" y="708" on="1"/>
        <pt x="240" y="802" on="0"/>
        <pt x="379" y="985" on="0"/>
        <pt x="455" y="1070" on="1"/>
        <pt x="482" y="1208" on="0"/>
        <pt x="518" y="1478" on="0"/>
        <pt x="522" y="1602" on="1"/>
        <pt x="580" y="1566" on="0"/>
        <pt x="673" y="1496" on="0"/>
        <pt x="706" y="1467" on="1"/>
        <pt x="745" y="1434" on="0"/>
        <pt x="774" y="1403" on="1"/>
        <pt x="771" y="1358" on="1"/>
        <pt x="867" y="1426" on="0"/>
        <pt x="1050" y="1503" on="0"/>
        <pt x="1135" y="1503" on="1"/>
        <pt x="1175" y="1503" on="0"/>
        <pt x="1253" y="1458" on="0"/>
        <pt x="1323" y="1392" on="0"/>
        <pt x="1384" y="1315" on="0"/>
      </contour>
      <contour>
        <pt x="899" y="713" on="1"/>
        <pt x="895" y="695" on="0"/>
        <pt x="882" y="654" on="0"/>
        <pt x="866" y="614" on="0"/>
        <pt x="850" y="580" on="0"/>
        <pt x="844" y="571" on="1"/>
        <pt x="581" y="569" on="1"/>
        <pt x="525" y="406" on="0"/>
        <pt x="396" y="115" on="0"/>
        <pt x="327" y="10" on="1"/>
        <pt x="452" y="29" on="0"/>
        <pt x="666" y="126" on="0"/>
        <pt x="846" y="267" on="0"/>
        <pt x="993" y="442" on="0"/>
        <pt x="1108" y="634" on="0"/>
        <pt x="1192" y="835" on="0"/>
        <pt x="1247" y="1026" on="0"/>
        <pt x="1274" y="1200" on="0"/>
        <pt x="1274" y="1270" on="1"/>
        <pt x="1274" y="1291" on="0"/>
        <pt x="1263" y="1335" on="0"/>
        <pt x="1240" y="1371" on="0"/>
        <pt x="1207" y="1393" on="0"/>
        <pt x="1186" y="1393" on="1"/>
        <pt x="1144" y="1393" on="0"/>
        <pt x="1040" y="1348" on="0"/>
        <pt x="922" y="1267" on="0"/>
        <pt x="794" y="1156" on="0"/>
        <pt x="728" y="1090" on="1"/>
        <pt x="709" y="1001" on="0"/>
        <pt x="659" y="811" on="0"/>
        <pt x="628" y="712" on="1"/>
      </contour>
      <contour>
        <pt x="70" y="18" on="1"/>
        <pt x="88" y="10" on="0"/>
        <pt x="145" y="87" on="0"/>
        <pt x="214" y="235" on="0"/>
        <pt x="290" y="444" on="0"/>
        <pt x="328" y="567" on="1"/>
        <pt x="297" y="567" on="1"/>
        <pt x="243" y="489" on="0"/>
        <pt x="154" y="340" on="0"/>
        <pt x="90" y="208" on="0"/>
        <pt x="55" y="99" on="0"/>
        <pt x="55" y="61" on="1"/>
        <pt x="55" y="26" on="0"/>
      </contour>
    </TTGlyph>
    <TTGlyph name="Euro" xMin="-82" yMin="-170" xMax="1219" yMax="1432">
      <contour>
        <pt x="686" y="588" on="1"/>
        <pt x="682" y="570" on="0"/>
        <pt x="662" y="529" on="0"/>
        <pt x="639" y="489" on="0"/>
        <pt x="616" y="455" on="0"/>
        <pt x="610" y="446" on="1"/>
        <pt x="304" y="443" on="1"/>
        <pt x="263" y="341" on="0"/>
        <pt x="217" y="158" on="0"/>
        <pt x="217" y="84" on="1"/>
        <pt x="217" y="27" on="0"/>
        <pt x="251" y="-8" on="0"/>
        <pt x="283" y="-8" on="1"/>
        <pt x="314" y="-8" on="0"/>
        <pt x="405" y="54" on="0"/>
        <pt x="503" y="146" on="0"/>
        <pt x="598" y="254" on="0"/>
        <pt x="635" y="299" on="1"/>
        <pt x="807" y="137" on="1"/>
        <pt x="778" y="106" on="0"/>
        <pt x="710" y="36" on="0"/>
        <pt x="633" y="-32" on="0"/>
        <pt x="552" y="-94" on="0"/>
        <pt x="469" y="-142" on="0"/>
        <pt x="385" y="-170" on="0"/>
        <pt x="346" y="-170" on="1"/>
        <pt x="311" y="-170" on="0"/>
        <pt x="229" y="-126" on="0"/>
        <pt x="150" y="-57" on="0"/>
        <pt x="81" y="28" on="0"/>
        <pt x="59" y="70" on="1"/>
        <pt x="30" y="121" on="0"/>
        <pt x="20" y="207" on="0"/>
        <pt x="20" y="233" on="1"/>
        <pt x="20" y="278" on="0"/>
        <pt x="36" y="384" on="0"/>
        <pt x="53" y="442" on="1"/>
        <pt x="-2" y="443" on="0"/>
        <pt x="-77" y="444" on="0"/>
        <pt x="-82" y="446" on="1"/>
        <pt x="-79" y="458" on="0"/>
        <pt x="-60" y="495" on="0"/>
        <pt x="-37" y="533" on="0"/>
        <pt x="-16" y="567" on="0"/>
        <pt x="-10" y="575" on="1"/>
        <pt x="-5" y="577" on="0"/>
        <pt x="54" y="580" on="0"/>
        <pt x="99" y="582" on="1"/>
        <pt x="110" y="608" on="0"/>
        <pt x="132" y="662" on="0"/>
        <pt x="145" y="688" on="1"/>
        <pt x="87" y="689" on="0"/>
        <pt x="9" y="690" on="0"/>
        <pt x="4" y="692" on="1"/>
        <pt x="7" y="704" on="0"/>
        <pt x="26" y="741" on="0"/>
        <pt x="49" y="779" on="0"/>
        <pt x="70" y="813" on="0"/>
        <pt x="76" y="821" on="1"/>
        <pt x="82" y="823" on="0"/>
        <pt x="159" y="827" on="0"/>
        <pt x="217" y="829" on="1"/>
        <pt x="284" y="947" on="0"/>
        <pt x="453" y="1165" on="0"/>
        <pt x="647" y="1332" on="0"/>
        <pt x="858" y="1432" on="0"/>
        <pt x="967" y="1432" on="1"/>
        <pt x="993" y="1432" on="0"/>
        <pt x="1050" y="1406" on="0"/>
        <pt x="1106" y="1362" on="0"/>
        <pt x="1157" y="1305" on="0"/>
        <pt x="1196" y="1244" on="0"/>
        <pt x="1219" y="1184" on="0"/>
        <pt x="1219" y="1159" on="1"/>
        <pt x="1219" y="1120" on="0"/>
        <pt x="1196" y="1030" on="0"/>
        <pt x="1155" y="934" on="0"/>
        <pt x="1097" y="837" on="0"/>
        <pt x="1063" y="791" on="1"/>
        <pt x="862" y="915" on="1"/>
        <pt x="893" y="951" on="0"/>
        <pt x="959" y="1032" on="0"/>
        <pt x="1013" y="1117" on="0"/>
        <pt x="1047" y="1201" on="0"/>
        <pt x="1047" y="1239" on="1"/>
        <pt x="1047" y="1267" on="0"/>
        <pt x="1037" y="1303" on="0"/>
        <pt x="1021" y="1322" on="0"/>
        <pt x="1000" y="1329" on="0"/>
        <pt x="989" y="1329" on="1"/>
        <pt x="944" y="1329" on="0"/>
        <pt x="827" y="1250" on="0"/>
        <pt x="698" y="1115" on="0"/>
        <pt x="564" y="935" on="0"/>
        <pt x="501" y="833" on="1"/>
        <pt x="813" y="834" on="1"/>
        <pt x="809" y="816" on="0"/>
        <pt x="789" y="774" on="0"/>
        <pt x="766" y="735" on="0"/>
        <pt x="743" y="701" on="0"/>
        <pt x="737" y="692" on="1"/>
        <pt x="419" y="689" on="1"/>
        <pt x="405" y="663" on="0"/>
        <pt x="380" y="613" on="0"/>
        <pt x="367" y="587" on="1"/>
        <pt x="426" y="587" on="0"/>
        <pt x="536" y="588" on="0"/>
        <pt x="624" y="588" on="0"/>
        <pt x="681" y="588" on="0"/>
      </contour>
    </TTGlyph>
    <TTGlyph name="F" xMin="61" yMin="-403" xMax="1634" yMax="1559">
      <contour>
        <pt x="1458" y="637" on="1"/>
        <pt x="1460" y="637" on="0"/>
        <pt x="1460" y="631" on="1"/>
        <pt x="1460" y="621" on="0"/>
        <pt x="1438" y="568" on="0"/>
        <pt x="1396" y="498" on="0"/>
        <pt x="1335" y="420" on="0"/>
        <pt x="1296" y="385" on="1"/>
        <pt x="1276" y="380" on="0"/>
        <pt x="1214" y="369" on="0"/>
        <pt x="1135" y="359" on="0"/>
        <pt x="1043" y="348" on="0"/>
        <pt x="993" y="343" on="1"/>
        <pt x="934" y="250" on="0"/>
        <pt x="823" y="66" on="0"/>
        <pt x="725" y="-107" on="0"/>
        <pt x="642" y="-267" on="0"/>
        <pt x="612" y="-336" on="1"/>
        <pt x="590" y="-345" on="0"/>
        <pt x="504" y="-364" on="0"/>
        <pt x="411" y="-382" on="0"/>
        <pt x="331" y="-398" on="0"/>
        <pt x="315" y="-403" on="1"/>
        <pt x="409" y="-202" on="0"/>
        <pt x="600" y="153" on="0"/>
        <pt x="700" y="317" on="1"/>
        <pt x="648" y="313" on="0"/>
        <pt x="556" y="306" on="0"/>
        <pt x="486" y="302" on="0"/>
        <pt x="442" y="299" on="0"/>
        <pt x="438" y="299" on="1"/>
        <pt x="432" y="299" on="0"/>
        <pt x="432" y="307" on="1"/>
        <pt x="432" y="318" on="0"/>
        <pt x="452" y="360" on="0"/>
        <pt x="479" y="403" on="0"/>
        <pt x="508" y="436" on="0"/>
        <pt x="516" y="438" on="1"/>
        <pt x="594" y="445" on="0"/>
        <pt x="733" y="461" on="0"/>
        <pt x="796" y="470" on="1"/>
        <pt x="959" y="723" on="0"/>
        <pt x="1301" y="1167" on="0"/>
        <pt x="1477" y="1378" on="1"/>
        <pt x="1481" y="1382" on="0"/>
        <pt x="1481" y="1395" on="1"/>
        <pt x="1481" y="1401" on="0"/>
        <pt x="1474" y="1413" on="0"/>
        <pt x="1462" y="1409" on="1"/>
        <pt x="1249" y="1351" on="0"/>
        <pt x="905" y="1209" on="0"/>
        <pt x="637" y="1064" on="0"/>
        <pt x="442" y="926" on="0"/>
        <pt x="316" y="815" on="0"/>
        <pt x="256" y="743" on="0"/>
        <pt x="256" y="737" on="1"/>
        <pt x="256" y="734" on="0"/>
        <pt x="261" y="723" on="0"/>
        <pt x="276" y="723" on="1"/>
        <pt x="308" y="723" on="0"/>
        <pt x="381" y="741" on="0"/>
        <pt x="454" y="769" on="0"/>
        <pt x="522" y="802" on="0"/>
        <pt x="551" y="817" on="1"/>
        <pt x="552" y="794" on="0"/>
        <pt x="555" y="733" on="0"/>
        <pt x="558" y="671" on="0"/>
        <pt x="561" y="614" on="0"/>
        <pt x="561" y="596" on="1"/>
        <pt x="549" y="590" on="0"/>
        <pt x="495" y="577" on="0"/>
        <pt x="418" y="566" on="0"/>
        <pt x="321" y="559" on="0"/>
        <pt x="266" y="559" on="1"/>
        <pt x="260" y="559" on="0"/>
        <pt x="253" y="561" on="0"/>
        <pt x="250" y="561" on="1"/>
        <pt x="241" y="562" on="0"/>
        <pt x="206" y="592" on="0"/>
        <pt x="164" y="638" on="0"/>
        <pt x="120" y="693" on="0"/>
        <pt x="84" y="744" on="0"/>
        <pt x="61" y="787" on="0"/>
        <pt x="61" y="797" on="1"/>
        <pt x="61" y="858" on="0"/>
        <pt x="152" y="989" on="0"/>
        <pt x="307" y="1119" on="0"/>
        <pt x="511" y="1245" on="0"/>
        <pt x="737" y="1357" on="0"/>
        <pt x="971" y="1452" on="0"/>
        <pt x="1185" y="1520" on="0"/>
        <pt x="1366" y="1559" on="0"/>
        <pt x="1425" y="1559" on="1"/>
        <pt x="1442" y="1559" on="0"/>
        <pt x="1487" y="1533" on="0"/>
        <pt x="1532" y="1491" on="0"/>
        <pt x="1576" y="1439" on="0"/>
        <pt x="1611" y="1387" on="0"/>
        <pt x="1633" y="1340" on="0"/>
        <pt x="1634" y="1325" on="1"/>
        <pt x="1634" y="1319" on="0"/>
        <pt x="1593" y="1252" on="0"/>
        <pt x="1521" y="1143" on="0"/>
        <pt x="1423" y="996" on="0"/>
        <pt x="1307" y="823" on="0"/>
        <pt x="1178" y="630" on="0"/>
        <pt x="1112" y="528" on="1"/>
        <pt x="1202" y="549" on="0"/>
        <pt x="1330" y="588" on="0"/>
        <pt x="1414" y="618" on="0"/>
        <pt x="1456" y="637" on="0"/>
      </contour>
    </TTGlyph>
    <TTGlyph name="G" xMin="-20" yMin="-463" xMax="1288" yMax="1561">
      <contour>
        <pt x="1047" y="537" on="1"/>
        <pt x="1041" y="530" on="0"/>
        <pt x="999" y="440" on="0"/>
        <pt x="940" y="298" on="0"/>
        <pt x="872" y="112" on="0"/>
        <pt x="806" y="-95" on="0"/>
        <pt x="750" y="-313" on="0"/>
        <pt x="733" y="-416" on="1"/>
        <pt x="706" y="-424" on="0"/>
        <pt x="637" y="-440" on="0"/>
        <pt x="569" y="-454" on="0"/>
        <pt x="513" y="-463" on="0"/>
        <pt x="500" y="-463" on="1"/>
        <pt x="518" y="-386" on="0"/>
        <pt x="553" y="-246" on="0"/>
        <pt x="595" y="-113" on="0"/>
        <pt x="646" y="17" on="0"/>
        <pt x="680" y="86" on="1"/>
        <pt x="642" y="37" on="0"/>
        <pt x="557" y="-55" on="0"/>
        <pt x="468" y="-127" on="0"/>
        <pt x="377" y="-170" on="0"/>
        <pt x="332" y="-170" on="1"/>
        <pt x="301" y="-170" on="0"/>
        <pt x="224" y="-136" on="0"/>
        <pt x="146" y="-77" on="0"/>
        <pt x="72" y="4" on="0"/>
        <pt x="15" y="98" on="0"/>
        <pt x="-20" y="202" on="0"/>
        <pt x="-20" y="254" on="1"/>
        <pt x="-20" y="340" on="0"/>
        <pt x="28" y="544" on="0"/>
        <pt x="114" y="760" on="0"/>
        <pt x="236" y="979" on="0"/>
        <pt x="382" y="1181" on="0"/>
        <pt x="549" y="1356" on="0"/>
        <pt x="729" y="1486" on="0"/>
        <pt x="915" y="1561" on="0"/>
        <pt x="1008" y="1561" on="1"/>
        <pt x="1043" y="1561" on="0"/>
        <pt x="1110" y="1530" on="0"/>
        <pt x="1169" y="1483" on="0"/>
        <pt x="1218" y="1427" on="0"/>
        <pt x="1235" y="1403" on="1"/>
        <pt x="1255" y="1374" on="0"/>
        <pt x="1288" y="1298" on="0"/>
        <pt x="1288" y="1260" on="1"/>
        <pt x="1288" y="1196" on="0"/>
        <pt x="1249" y="1054" on="0"/>
        <pt x="1181" y="914" on="0"/>
        <pt x="1089" y="783" on="0"/>
        <pt x="1036" y="731" on="1"/>
        <pt x="860" y="895" on="1"/>
        <pt x="890" y="926" on="0"/>
        <pt x="974" y="1024" on="0"/>
        <pt x="1050" y="1147" on="0"/>
        <pt x="1104" y="1286" on="0"/>
        <pt x="1104" y="1358" on="1"/>
        <pt x="1104" y="1370" on="0"/>
        <pt x="1102" y="1400" on="0"/>
        <pt x="1091" y="1426" on="0"/>
        <pt x="1068" y="1444" on="0"/>
        <pt x="1047" y="1444" on="1"/>
        <pt x="991" y="1444" on="0"/>
        <pt x="858" y="1360" on="0"/>
        <pt x="717" y="1217" on="0"/>
        <pt x="574" y="1026" on="0"/>
        <pt x="442" y="812" on="0"/>
        <pt x="327" y="587" on="0"/>
        <pt x="242" y="375" on="0"/>
        <pt x="193" y="189" on="0"/>
        <pt x="193" y="121" on="1"/>
        <pt x="193" y="58" on="0"/>
        <pt x="224" y="4" on="0"/>
        <pt x="252" y="4" on="1"/>
        <pt x="286" y="4" on="0"/>
        <pt x="372" y="49" on="0"/>
        <pt x="465" y="122" on="0"/>
        <pt x="558" y="213" on="0"/>
        <pt x="639" y="306" on="0"/>
        <pt x="704" y="392" on="0"/>
        <pt x="723" y="422" on="1"/>
        <pt x="741" y="451" on="0"/>
        <pt x="767" y="513" on="0"/>
        <pt x="784" y="545" on="1"/>
        <pt x="822" y="545" on="0"/>
        <pt x="887" y="543" on="0"/>
        <pt x="950" y="540" on="0"/>
        <pt x="1012" y="538" on="0"/>
      </contour>
    </TTGlyph>
    <TTGlyph name="Gbreve" xMin="-20" yMin="-463" xMax="1294" yMax="1932">
      <component glyphName="G" x="0" y="0" flags="0x204"/>
      <component glyphName="breve" x="651" y="967" flags="0x4"/>
    </TTGlyph>
    <TTGlyph name="Gcircumflex" xMin="-20" yMin="-463" xMax="1288" yMax="1981">
      <component glyphName="G" x="0" y="0" flags="0x204"/>
      <component glyphName="circumflex" x="655" y="967" flags="0x4"/>
    </TTGlyph>
    <TTGlyph name="Gcommaaccent" xMin="-20" yMin="-633" xMax="1288" yMax="1561">
      <component glyphName="G" x="0" y="0" flags="0x204"/>
      <component glyphName="commaaccent" x="186" y="-101" flags="0x4"/>
    </TTGlyph>
    <TTGlyph name="Gdotaccent" xMin="-20" yMin="-463" xMax="1288" yMax="1921">
      <component glyphName="G" x="0" y="0" flags="0x204"/>
      <component glyphName="dotaccent" x="655" y="967" flags="0x4"/>
    </TTGlyph>
    <TTGlyph name="H" xMin="-188" yMin="-211" xMax="1321" yMax="1581">
      <contour>
        <pt x="668" y="1372" on="1"/>
        <pt x="623" y="1254" on="0"/>
        <pt x="534" y="1034" on="0"/>
        <pt x="447" y="826" on="0"/>
        <pt x="359" y="626" on="0"/>
        <pt x="314" y="529" on="1"/>
        <pt x="389" y="540" on="0"/>
        <pt x="544" y="564" on="0"/>
        <pt x="677" y="584" on="0"/>
        <pt x="773" y="598" on="0"/>
        <pt x="788" y="601" on="1"/>
        <pt x="873" y="805" on="0"/>
        <pt x="1030" y="1224" on="0"/>
        <pt x="1108" y="1442" on="1"/>
        <pt x="1137" y="1413" on="0"/>
        <pt x="1205" y="1345" on="0"/>
        <pt x="1267" y="1283" on="0"/>
        <pt x="1313" y="1236" on="0"/>
        <pt x="1321" y="1227" on="1"/>
        <pt x="1251" y="1078" on="0"/>
        <pt x="1117" y="794" on="0"/>
        <pt x="1051" y="658" on="1"/>
        <pt x="1140" y="680" on="0"/>
        <pt x="1246" y="717" on="0"/>
        <pt x="1301" y="738" on="0"/>
        <pt x="1315" y="742" on="0"/>
        <pt x="1313" y="733" on="1"/>
        <pt x="1310" y="725" on="0"/>
        <pt x="1290" y="684" on="0"/>
        <pt x="1261" y="632" on="0"/>
        <pt x="1225" y="575" on="0"/>
        <pt x="1190" y="527" on="0"/>
        <pt x="1158" y="495" on="0"/>
        <pt x="1147" y="494" on="1"/>
        <pt x="1126" y="490" on="0"/>
        <pt x="1098" y="486" on="1"/>
        <pt x="1074" y="482" on="0"/>
        <pt x="1003" y="471" on="0"/>
        <pt x="957" y="464" on="1"/>
        <pt x="853" y="252" on="0"/>
        <pt x="670" y="-93" on="0"/>
        <pt x="596" y="-211" on="1"/>
        <pt x="559" y="-181" on="0"/>
        <pt x="493" y="-122" on="0"/>
        <pt x="461" y="-111" on="1"/>
        <pt x="442" y="7" on="0"/>
        <pt x="338" y="284" on="0"/>
        <pt x="263" y="421" on="1"/>
        <pt x="192" y="271" on="0"/>
        <pt x="44" y="-24" on="0"/>
        <pt x="-39" y="-180" on="1"/>
        <pt x="-82" y="-145" on="0"/>
        <pt x="-161" y="-92" on="0"/>
        <pt x="-188" y="-72" on="1"/>
        <pt x="-144" y="15" on="0"/>
        <pt x="-40" y="238" on="0"/>
        <pt x="71" y="499" on="0"/>
        <pt x="185" y="790" on="0"/>
        <pt x="297" y="1100" on="0"/>
        <pt x="403" y="1421" on="0"/>
        <pt x="449" y="1581" on="1"/>
        <pt x="478" y="1553" on="0"/>
        <pt x="539" y="1498" on="0"/>
        <pt x="598" y="1445" on="0"/>
        <pt x="649" y="1394" on="0"/>
      </contour>
      <contour>
        <pt x="544" y="52" on="1"/>
        <pt x="633" y="238" on="0"/>
        <pt x="717" y="431" on="1"/>
        <pt x="570" y="412" on="0"/>
        <pt x="376" y="392" on="1"/>
        <pt x="403" y="350" on="0"/>
        <pt x="452" y="258" on="0"/>
        <pt x="495" y="168" on="0"/>
        <pt x="530" y="85" on="0"/>
      </contour>
    </TTGlyph>
    <TTGlyph name="Hbar" xMin="-127" yMin="-211" xMax="1466" yMax="1581">
      <contour>
        <pt x="1275" y="999" on="1"/>
        <pt x="1466" y="999" on="1"/>
        <pt x="1462" y="981" on="0"/>
        <pt x="1449" y="940" on="0"/>
        <pt x="1433" y="901" on="0"/>
        <pt x="1417" y="867" on="0"/>
        <pt x="1411" y="858" on="1"/>
        <pt x="1403" y="858" on="0"/>
        <pt x="1292" y="857" on="0"/>
        <pt x="1208" y="857" on="1"/>
        <pt x="1113" y="658" on="1"/>
        <pt x="1201" y="680" on="0"/>
        <pt x="1307" y="717" on="0"/>
        <pt x="1362" y="738" on="0"/>
        <pt x="1376" y="742" on="0"/>
        <pt x="1374" y="733" on="1"/>
        <pt x="1371" y="725" on="0"/>
        <pt x="1351" y="684" on="0"/>
        <pt x="1322" y="632" on="0"/>
        <pt x="1286" y="575" on="0"/>
        <pt x="1251" y="527" on="0"/>
        <pt x="1219" y="495" on="0"/>
        <pt x="1208" y="494" on="1"/>
        <pt x="1187" y="490" on="0"/>
        <pt x="1159" y="486" on="1"/>
        <pt x="1135" y="482" on="0"/>
        <pt x="1064" y="471" on="0"/>
        <pt x="1018" y="464" on="1"/>
        <pt x="914" y="252" on="0"/>
        <pt x="732" y="-93" on="0"/>
        <pt x="657" y="-211" on="1"/>
        <pt x="625" y="-183" on="0"/>
        <pt x="560" y="-129" on="0"/>
        <pt x="534" y="-115" on="1"/>
        <pt x="529" y="-115" on="0"/>
        <pt x="525" y="-113" on="1"/>
        <pt x="523" y="-112" on="0"/>
        <pt x="522" y="-111" on="1"/>
        <pt x="513" y="-53" on="0"/>
        <pt x="477" y="77" on="0"/>
        <pt x="426" y="213" on="0"/>
        <pt x="362" y="352" on="0"/>
        <pt x="325" y="420" on="1"/>
        <pt x="254" y="270" on="0"/>
        <pt x="106" y="-25" on="0"/>
        <pt x="23" y="-180" on="1"/>
        <pt x="-21" y="-145" on="0"/>
        <pt x="-99" y="-92" on="0"/>
        <pt x="-127" y="-72" on="1"/>
        <pt x="-86" y="8" on="0"/>
        <pt x="9" y="211" on="0"/>
        <pt x="111" y="448" on="0"/>
        <pt x="217" y="713" on="0"/>
        <pt x="269" y="854" on="1"/>
        <pt x="181" y="855" on="0"/>
        <pt x="70" y="856" on="0"/>
        <pt x="66" y="858" on="1"/>
        <pt x="69" y="870" on="0"/>
        <pt x="81" y="907" on="0"/>
        <pt x="96" y="945" on="0"/>
        <pt x="111" y="979" on="0"/>
        <pt x="117" y="987" on="1"/>
        <pt x="122" y="989" on="0"/>
        <pt x="232" y="992" on="0"/>
        <pt x="320" y="994" on="1"/>
        <pt x="371" y="1138" on="0"/>
        <pt x="467" y="1432" on="0"/>
        <pt x="510" y="1581" on="1"/>
        <pt x="539" y="1553" on="0"/>
        <pt x="601" y="1498" on="0"/>
        <pt x="660" y="1445" on="0"/>
        <pt x="711" y="1394" on="0"/>
        <pt x="729" y="1372" on="1"/>
        <pt x="691" y="1272" on="0"/>
        <pt x="617" y="1087" on="0"/>
        <pt x="579" y="996" on="1"/>
        <pt x="684" y="997" on="0"/>
        <pt x="903" y="998" on="0"/>
        <pt x="1007" y="998" on="1"/>
        <pt x="1089" y="1217" on="0"/>
        <pt x="1169" y="1442" on="1"/>
        <pt x="1198" y="1413" on="0"/>
        <pt x="1266" y="1345" on="0"/>
        <pt x="1328" y="1283" on="0"/>
        <pt x="1374" y="1236" on="0"/>
        <pt x="1382" y="1227" on="1"/>
      </contour>
      <contour>
        <pt x="952" y="855" on="1"/>
        <pt x="844" y="855" on="0"/>
        <pt x="627" y="854" on="0"/>
        <pt x="520" y="854" on="1"/>
        <pt x="484" y="770" on="0"/>
        <pt x="413" y="609" on="0"/>
        <pt x="376" y="529" on="1"/>
        <pt x="451" y="540" on="0"/>
        <pt x="606" y="564" on="0"/>
        <pt x="739" y="584" on="0"/>
        <pt x="835" y="598" on="0"/>
        <pt x="850" y="601" on="1"/>
      </contour>
      <contour>
        <pt x="605" y="52" on="1"/>
        <pt x="650" y="145" on="0"/>
        <pt x="736" y="334" on="0"/>
        <pt x="778" y="431" on="1"/>
        <pt x="631" y="412" on="0"/>
        <pt x="437" y="392" on="1"/>
        <pt x="464" y="350" on="0"/>
        <pt x="513" y="258" on="0"/>
        <pt x="556" y="168" on="0"/>
        <pt x="591" y="85" on="0"/>
      </contour>
    </TTGlyph>
    <TTGlyph name="Hcircumflex" xMin="-188" yMin="-211" xMax="1321" yMax="1911">
      <component glyphName="H" x="0" y="0" flags="0x204"/>
      <component glyphName="circumflex" x="545" y="897" flags="0x4"/>
    </TTGlyph>
    <TTGlyph name="I" xMin="-205" yMin="-201" xMax="1141" yMax="1565">
      <contour>
        <pt x="1128" y="1384" on="1"/>
        <pt x="1133" y="1373" on="0"/>
        <pt x="1141" y="1338" on="0"/>
        <pt x="1141" y="1313" on="1"/>
        <pt x="1141" y="1251" on="0"/>
        <pt x="1105" y="1098" on="0"/>
        <pt x="1041" y="925" on="0"/>
        <pt x="949" y="739" on="0"/>
        <pt x="839" y="549" on="0"/>
        <pt x="711" y="362" on="0"/>
        <pt x="642" y="275" on="1"/>
        <pt x="685" y="223" on="0"/>
        <pt x="782" y="133" on="0"/>
        <pt x="836" y="98" on="1"/>
        <pt x="803" y="73" on="0"/>
        <pt x="774" y="59" on="1"/>
        <pt x="735" y="76" on="0"/>
        <pt x="634" y="148" on="0"/>
        <pt x="580" y="200" on="1"/>
        <pt x="463" y="63" on="0"/>
        <pt x="228" y="-137" on="0"/>
        <pt x="113" y="-186" on="1"/>
        <pt x="99" y="-192" on="0"/>
        <pt x="57" y="-201" on="0"/>
        <pt x="22" y="-201" on="1"/>
        <pt x="-6" y="-201" on="0"/>
        <pt x="-66" y="-159" on="0"/>
        <pt x="-121" y="-101" on="0"/>
        <pt x="-164" y="-42" on="0"/>
        <pt x="-176" y="-25" on="1"/>
        <pt x="-189" y="-6" on="0"/>
        <pt x="-205" y="50" on="0"/>
        <pt x="-205" y="92" on="1"/>
        <pt x="-205" y="143" on="0"/>
        <pt x="-183" y="249" on="0"/>
        <pt x="-154" y="317" on="1"/>
        <pt x="-142" y="322" on="0"/>
        <pt x="-81" y="341" on="0"/>
        <pt x="-8" y="361" on="0"/>
        <pt x="64" y="379" on="0"/>
        <pt x="88" y="383" on="1"/>
        <pt x="58" y="338" on="0"/>
        <pt x="6" y="255" on="0"/>
        <pt x="-31" y="172" on="0"/>
        <pt x="-53" y="85" on="0"/>
        <pt x="-53" y="37" on="1"/>
        <pt x="-53" y="17" on="0"/>
        <pt x="-38" y="-20" on="0"/>
        <pt x="-18" y="-20" on="1"/>
        <pt x="13" y="-20" on="0"/>
        <pt x="107" y="42" on="0"/>
        <pt x="222" y="152" on="0"/>
        <pt x="352" y="302" on="0"/>
        <pt x="420" y="389" on="1"/>
        <pt x="382" y="443" on="0"/>
        <pt x="318" y="564" on="0"/>
        <pt x="271" y="695" on="0"/>
        <pt x="244" y="833" on="0"/>
        <pt x="244" y="905" on="1"/>
        <pt x="244" y="1011" on="0"/>
        <pt x="311" y="1191" on="0"/>
        <pt x="422" y="1338" on="0"/>
        <pt x="565" y="1450" on="0"/>
        <pt x="717" y="1526" on="0"/>
        <pt x="866" y="1565" on="0"/>
        <pt x="928" y="1565" on="1"/>
        <pt x="962" y="1565" on="0"/>
        <pt x="979" y="1552" on="1"/>
        <pt x="996" y="1541" on="0"/>
        <pt x="1042" y="1496" on="0"/>
        <pt x="1087" y="1446" on="0"/>
        <pt x="1122" y="1399" on="0"/>
      </contour>
      <contour>
        <pt x="420" y="797" on="1"/>
        <pt x="420" y="730" on="0"/>
        <pt x="462" y="576" on="0"/>
        <pt x="500" y="497" on="1"/>
        <pt x="560" y="580" on="0"/>
        <pt x="675" y="755" on="0"/>
        <pt x="778" y="929" on="0"/>
        <pt x="865" y="1097" on="0"/>
        <pt x="928" y="1248" on="0"/>
        <pt x="963" y="1377" on="0"/>
        <pt x="963" y="1425" on="1"/>
        <pt x="963" y="1438" on="0"/>
        <pt x="953" y="1444" on="0"/>
        <pt x="944" y="1444" on="1"/>
        <pt x="930" y="1444" on="0"/>
        <pt x="841" y="1411" on="0"/>
        <pt x="725" y="1342" on="0"/>
        <pt x="597" y="1237" on="0"/>
        <pt x="490" y="1093" on="0"/>
        <pt x="420" y="909" on="0"/>
      </contour>
    </TTGlyph>
    <TTGlyph name="IJ" xMin="-205" yMin="-375" xMax="2189" yMax="1565">
      <component glyphName="I" x="0" y="0" flags="0x4"/>
      <component glyphName="J" x="1018" y="0" flags="0x4"/>
    </TTGlyph>
    <TTGlyph name="Iacute" xMin="-205" yMin="-201" xMax="1233" yMax="1997">
      <component glyphName="I" x="0" y="0" flags="0x204"/>
      <component glyphName="acute" x="692" y="967" flags="0x4"/>
    </TTGlyph>
    <TTGlyph name="Ibreve" xMin="-205" yMin="-201" xMax="1237" yMax="1932">
      <component glyphName="I" x="0" y="0" flags="0x204"/>
      <component glyphName="breve" x="594" y="967" flags="0x4"/>
    </TTGlyph>
    <TTGlyph name="Icircumflex" xMin="-205" yMin="-201" xMax="1194" yMax="1981">
      <component glyphName="I" x="0" y="0" flags="0x204"/>
      <component glyphName="circumflex" x="598" y="967" flags="0x4"/>
    </TTGlyph>
    <TTGlyph name="Idieresis" xMin="-205" yMin="-201" xMax="1270" yMax="1942">
      <component glyphName="I" x="0" y="0" flags="0x204"/>
      <component glyphName="dieresis" x="598" y="967" flags="0x4"/>
    </TTGlyph>
    <TTGlyph name="Idotaccent" xMin="-205" yMin="-201" xMax="1141" yMax="1921">
      <component glyphName="I" x="0" y="0" flags="0x204"/>
      <component glyphName="dotaccent" x="598" y="967" flags="0x4"/>
    </TTGlyph>
    <TTGlyph name="Igrave" xMin="-205" yMin="-201" xMax="1141" yMax="1995">
      <component glyphName="I" x="0" y="0" flags="0x204"/>
      <component glyphName="grave" x="598" y="967" flags="0x4"/>
    </TTGlyph>
    <TTGlyph name="Imacron" xMin="-205" yMin="-201" xMax="1257" yMax="1876">
      <component glyphName="I" x="0" y="0" flags="0x204"/>
      <component glyphName="macron" x="598" y="967" flags="0x4"/>
    </TTGlyph>
    <TTGlyph name="Iogonek" xMin="-205" yMin="-551" xMax="1141" yMax="1565">
      <contour>
        <pt x="180" y="-506" on="1"/>
        <pt x="152" y="-521" on="0"/>
        <pt x="58" y="-551" on="0"/>
        <pt x="-4" y="-551" on="1"/>
        <pt x="-20" y="-551" on="0"/>
        <pt x="-64" y="-526" on="0"/>
        <pt x="-105" y="-490" on="0"/>
        <pt x="-133" y="-451" on="0"/>
        <pt x="-133" y="-436" on="1"/>
        <pt x="-133" y="-402" on="0"/>
        <pt x="-107" y="-336" on="0"/>
        <pt x="-66" y="-276" on="0"/>
        <pt x="-17" y="-222" on="0"/>
        <pt x="6" y="-201" on="1"/>
        <pt x="-17" y="-200" on="0"/>
        <pt x="-71" y="-156" on="0"/>
        <pt x="-122" y="-99" on="0"/>
        <pt x="-164" y="-41" on="0"/>
        <pt x="-176" y="-25" on="1"/>
        <pt x="-189" y="-6" on="0"/>
        <pt x="-205" y="50" on="0"/>
        <pt x="-205" y="92" on="1"/>
        <pt x="-205" y="143" on="0"/>
        <pt x="-183" y="249" on="0"/>
        <pt x="-154" y="317" on="1"/>
        <pt x="-142" y="322" on="0"/>
        <pt x="-81" y="341" on="0"/>
        <pt x="-8" y="361" on="0"/>
        <pt x="64" y="379" on="0"/>
        <pt x="88" y="383" on="1"/>
        <pt x="58" y="338" on="0"/>
        <pt x="6" y="255" on="0"/>
        <pt x="-31" y="172" on="0"/>
        <pt x="-53" y="85" on="0"/>
        <pt x="-53" y="37" on="1"/>
        <pt x="-53" y="17" on="0"/>
        <pt x="-38" y="-20" on="0"/>
        <pt x="-18" y="-20" on="1"/>
        <pt x="13" y="-20" on="0"/>
        <pt x="108" y="42" on="0"/>
        <pt x="222" y="152" on="0"/>
        <pt x="352" y="302" on="0"/>
        <pt x="420" y="389" on="1"/>
        <pt x="382" y="443" on="0"/>
        <pt x="318" y="563" on="0"/>
        <pt x="271" y="694" on="0"/>
        <pt x="244" y="833" on="0"/>
        <pt x="244" y="905" on="1"/>
        <pt x="244" y="1011" on="0"/>
        <pt x="311" y="1191" on="0"/>
        <pt x="422" y="1338" on="0"/>
        <pt x="565" y="1450" on="0"/>
        <pt x="717" y="1526" on="0"/>
        <pt x="866" y="1565" on="0"/>
        <pt x="928" y="1565" on="1"/>
        <pt x="962" y="1565" on="0"/>
        <pt x="979" y="1552" on="1"/>
        <pt x="996" y="1541" on="0"/>
        <pt x="1042" y="1496" on="0"/>
        <pt x="1087" y="1446" on="0"/>
        <pt x="1122" y="1399" on="0"/>
        <pt x="1128" y="1384" on="1"/>
        <pt x="1133" y="1373" on="0"/>
        <pt x="1141" y="1338" on="0"/>
        <pt x="1141" y="1313" on="1"/>
        <pt x="1141" y="1251" on="0"/>
        <pt x="1105" y="1097" on="0"/>
        <pt x="1040" y="925" on="0"/>
        <pt x="949" y="738" on="0"/>
        <pt x="838" y="549" on="0"/>
        <pt x="710" y="361" on="0"/>
        <pt x="641" y="274" on="1"/>
        <pt x="684" y="223" on="0"/>
        <pt x="782" y="132" on="0"/>
        <pt x="836" y="98" on="1"/>
        <pt x="803" y="73" on="0"/>
        <pt x="774" y="59" on="1"/>
        <pt x="736" y="76" on="0"/>
        <pt x="634" y="148" on="0"/>
        <pt x="580" y="201" on="1"/>
        <pt x="467" y="68" on="0"/>
        <pt x="232" y="-135" on="0"/>
        <pt x="121" y="-186" on="1"/>
        <pt x="102" y="-201" on="0"/>
        <pt x="53" y="-251" on="0"/>
        <pt x="10" y="-309" on="0"/>
        <pt x="-20" y="-369" on="0"/>
        <pt x="-20" y="-393" on="1"/>
        <pt x="-20" y="-407" on="0"/>
        <pt x="-2" y="-422" on="0"/>
        <pt x="10" y="-422" on="1"/>
        <pt x="21" y="-422" on="0"/>
        <pt x="55" y="-415" on="0"/>
        <pt x="94" y="-402" on="0"/>
        <pt x="135" y="-386" on="0"/>
        <pt x="152" y="-377" on="1"/>
        <pt x="155" y="-389" on="0"/>
        <pt x="163" y="-427" on="0"/>
        <pt x="171" y="-465" on="0"/>
        <pt x="178" y="-498" on="0"/>
      </contour>
      <contour>
        <pt x="420" y="797" on="1"/>
        <pt x="420" y="729" on="0"/>
        <pt x="462" y="576" on="0"/>
        <pt x="500" y="496" on="1"/>
        <pt x="560" y="579" on="0"/>
        <pt x="675" y="754" on="0"/>
        <pt x="778" y="929" on="0"/>
        <pt x="865" y="1097" on="0"/>
        <pt x="928" y="1248" on="0"/>
        <pt x="963" y="1377" on="0"/>
        <pt x="963" y="1425" on="1"/>
        <pt x="963" y="1438" on="0"/>
        <pt x="953" y="1444" on="0"/>
        <pt x="944" y="1444" on="1"/>
        <pt x="930" y="1444" on="0"/>
        <pt x="841" y="1411" on="0"/>
        <pt x="725" y="1342" on="0"/>
        <pt x="597" y="1237" on="0"/>
        <pt x="490" y="1093" on="0"/>
        <pt x="420" y="909" on="0"/>
      </contour>
    </TTGlyph>
    <TTGlyph name="Itilde" xMin="-205" yMin="-201" xMax="1317" yMax="1934">
      <component glyphName="I" x="0" y="0" flags="0x204"/>
      <component glyphName="tilde" x="598" y="967" flags="0x4"/>
    </TTGlyph>
    <TTGlyph name="J" xMin="-188" yMin="-375" xMax="1171" yMax="1565">
      <contour>
        <pt x="1149" y="1319" on="1"/>
        <pt x="1171" y="1286" on="0"/>
        <pt x="1171" y="1217" on="1"/>
        <pt x="1171" y="1152" on="0"/>
        <pt x="1133" y="993" on="0"/>
        <pt x="1065" y="815" on="0"/>
        <pt x="971" y="622" on="0"/>
        <pt x="914" y="525" on="1"/>
        <pt x="962" y="453" on="0"/>
        <pt x="1006" y="271" on="0"/>
        <pt x="1006" y="172" on="1"/>
        <pt x="1006" y="149" on="0"/>
        <pt x="1004" y="116" on="0"/>
        <pt x="1004" y="106" on="1"/>
        <pt x="975" y="87" on="0"/>
        <pt x="936" y="67" on="1"/>
        <pt x="903" y="50" on="0"/>
        <pt x="810" y="6" on="0"/>
        <pt x="752" y="-16" on="1"/>
        <pt x="767" y="15" on="0"/>
        <pt x="793" y="96" on="0"/>
        <pt x="812" y="188" on="0"/>
        <pt x="823" y="286" on="0"/>
        <pt x="823" y="334" on="1"/>
        <pt x="823" y="345" on="0"/>
        <pt x="822" y="365" on="0"/>
        <pt x="821" y="376" on="1"/>
        <pt x="757" y="277" on="0"/>
        <pt x="617" y="89" on="0"/>
        <pt x="474" y="-78" on="0"/>
        <pt x="331" y="-218" on="0"/>
        <pt x="197" y="-319" on="0"/>
        <pt x="75" y="-375" on="0"/>
        <pt x="25" y="-375" on="1"/>
        <pt x="8" y="-375" on="0"/>
        <pt x="-33" y="-348" on="0"/>
        <pt x="-75" y="-307" on="0"/>
        <pt x="-115" y="-256" on="0"/>
        <pt x="-148" y="-209" on="0"/>
        <pt x="-171" y="-171" on="0"/>
        <pt x="-174" y="-162" on="1"/>
        <pt x="-177" y="-154" on="0"/>
        <pt x="-188" y="-112" on="0"/>
        <pt x="-188" y="-86" on="1"/>
        <pt x="-188" y="0" on="0"/>
        <pt x="-131" y="185" on="0"/>
        <pt x="-30" y="361" on="0"/>
        <pt x="108" y="519" on="0"/>
        <pt x="270" y="638" on="0"/>
        <pt x="448" y="707" on="0"/>
        <pt x="539" y="707" on="1"/>
        <pt x="647" y="707" on="0"/>
        <pt x="730" y="673" on="1"/>
        <pt x="785" y="768" on="0"/>
        <pt x="880" y="956" on="0"/>
        <pt x="948" y="1132" on="0"/>
        <pt x="987" y="1291" on="0"/>
        <pt x="987" y="1356" on="1"/>
        <pt x="987" y="1403" on="0"/>
        <pt x="957" y="1446" on="0"/>
        <pt x="911" y="1446" on="1"/>
        <pt x="879" y="1446" on="0"/>
        <pt x="783" y="1424" on="0"/>
        <pt x="676" y="1384" on="0"/>
        <pt x="568" y="1325" on="0"/>
        <pt x="482" y="1250" on="0"/>
        <pt x="428" y="1161" on="0"/>
        <pt x="428" y="1110" on="1"/>
        <pt x="428" y="1083" on="0"/>
        <pt x="448" y="1013" on="0"/>
        <pt x="498" y="933" on="0"/>
        <pt x="585" y="846" on="0"/>
        <pt x="653" y="803" on="1"/>
        <pt x="602" y="793" on="0"/>
        <pt x="509" y="779" on="0"/>
        <pt x="433" y="769" on="0"/>
        <pt x="379" y="763" on="0"/>
        <pt x="367" y="762" on="1"/>
        <pt x="347" y="774" on="0"/>
        <pt x="291" y="825" on="0"/>
        <pt x="238" y="902" on="0"/>
        <pt x="201" y="1004" on="0"/>
        <pt x="201" y="1067" on="1"/>
        <pt x="201" y="1164" on="0"/>
        <pt x="281" y="1314" on="0"/>
        <pt x="407" y="1424" on="0"/>
        <pt x="564" y="1499" on="0"/>
        <pt x="718" y="1545" on="0"/>
        <pt x="852" y="1565" on="0"/>
        <pt x="893" y="1565" on="1"/>
        <pt x="922" y="1565" on="0"/>
        <pt x="980" y="1535" on="0"/>
        <pt x="1033" y="1488" on="0"/>
        <pt x="1080" y="1430" on="0"/>
        <pt x="1117" y="1375" on="0"/>
        <pt x="1143" y="1330" on="0"/>
      </contour>
      <contour>
        <pt x="-27" y="-158" on="1"/>
        <pt x="8" y="-158" on="0"/>
        <pt x="105" y="-103" on="0"/>
        <pt x="219" y="-4" on="0"/>
        <pt x="347" y="132" on="0"/>
        <pt x="479" y="295" on="0"/>
        <pt x="609" y="478" on="0"/>
        <pt x="670" y="574" on="1"/>
        <pt x="665" y="575" on="0"/>
        <pt x="655" y="575" on="1"/>
        <pt x="575" y="575" on="0"/>
        <pt x="411" y="504" on="0"/>
        <pt x="257" y="389" on="0"/>
        <pt x="122" y="241" on="0"/>
        <pt x="21" y="86" on="0"/>
        <pt x="-37" y="-63" on="0"/>
        <pt x="-37" y="-121" on="1"/>
        <pt x="-37" y="-136" on="0"/>
        <pt x="-33" y="-158" on="0"/>
      </contour>
    </TTGlyph>
    <TTGlyph name="Jcircumflex" xMin="-188" yMin="-375" xMax="1171" yMax="1981">
      <component glyphName="J" x="0" y="0" flags="0x204"/>
      <component glyphName="circumflex" x="520" y="967" flags="0x4"/>
    </TTGlyph>
    <TTGlyph name="K" xMin="-129" yMin="-305" xMax="1483" yMax="1581">
      <contour>
        <pt x="731" y="1372" on="1"/>
        <pt x="644" y="1146" on="0"/>
        <pt x="477" y="748" on="0"/>
        <pt x="392" y="561" on="1"/>
        <pt x="471" y="625" on="0"/>
        <pt x="637" y="770" on="0"/>
        <pt x="801" y="925" on="0"/>
        <pt x="958" y="1088" on="0"/>
        <pt x="1097" y="1251" on="0"/>
        <pt x="1213" y="1410" on="0"/>
        <pt x="1255" y="1485" on="1"/>
        <pt x="1280" y="1467" on="0"/>
        <pt x="1340" y="1419" on="0"/>
        <pt x="1402" y="1366" on="0"/>
        <pt x="1460" y="1315" on="0"/>
        <pt x="1483" y="1296" on="1"/>
        <pt x="1386" y="1192" on="0"/>
        <pt x="1188" y="997" on="0"/>
        <pt x="957" y="803" on="0"/>
        <pt x="679" y="604" on="0"/>
        <pt x="503" y="496" on="1"/>
        <pt x="633" y="269" on="0"/>
        <pt x="848" y="-64" on="0"/>
        <pt x="946" y="-182" on="1"/>
        <pt x="936" y="-186" on="0"/>
        <pt x="872" y="-217" on="0"/>
        <pt x="792" y="-256" on="0"/>
        <pt x="711" y="-294" on="0"/>
        <pt x="686" y="-305" on="1"/>
        <pt x="623" y="-174" on="0"/>
        <pt x="462" y="230" on="0"/>
        <pt x="368" y="509" on="1"/>
        <pt x="288" y="336" on="0"/>
        <pt x="119" y="-2" on="0"/>
        <pt x="25" y="-180" on="1"/>
        <pt x="-19" y="-145" on="0"/>
        <pt x="-101" y="-92" on="0"/>
        <pt x="-129" y="-72" on="1"/>
        <pt x="-85" y="15" on="0"/>
        <pt x="19" y="238" on="0"/>
        <pt x="130" y="499" on="0"/>
        <pt x="245" y="790" on="0"/>
        <pt x="357" y="1100" on="0"/>
        <pt x="462" y="1421" on="0"/>
        <pt x="508" y="1581" on="1"/>
        <pt x="537" y="1553" on="0"/>
        <pt x="600" y="1498" on="0"/>
        <pt x="660" y="1445" on="0"/>
        <pt x="713" y="1394" on="0"/>
      </contour>
    </TTGlyph>
    <TTGlyph name="Kcommaaccent" xMin="-129" yMin="-633" xMax="1483" yMax="1581">
      <component glyphName="K" x="0" y="0" flags="0x204"/>
      <component glyphName="commaaccent" x="201" y="-101" flags="0x4"/>
    </TTGlyph>
    <TTGlyph name="L" xMin="-152" yMin="-174" xMax="850" yMax="1581">
      <contour>
        <pt x="-152" y="-63" on="1"/>
        <pt x="-100" y="26" on="0"/>
        <pt x="16" y="253" on="0"/>
        <pt x="136" y="514" on="0"/>
        <pt x="256" y="804" on="0"/>
        <pt x="368" y="1109" on="0"/>
        <pt x="468" y="1425" on="0"/>
        <pt x="508" y="1581" on="1"/>
        <pt x="537" y="1553" on="0"/>
        <pt x="600" y="1498" on="0"/>
        <pt x="660" y="1445" on="0"/>
        <pt x="713" y="1394" on="0"/>
        <pt x="731" y="1372" on="1"/>
        <pt x="694" y="1264" on="0"/>
        <pt x="596" y="1025" on="0"/>
        <pt x="486" y="778" on="0"/>
        <pt x="369" y="534" on="0"/>
        <pt x="256" y="310" on="0"/>
        <pt x="154" y="115" on="0"/>
        <pt x="114" y="41" on="1"/>
        <pt x="174" y="41" on="0"/>
        <pt x="338" y="40" on="0"/>
        <pt x="530" y="38" on="0"/>
        <pt x="742" y="34" on="0"/>
        <pt x="850" y="31" on="1"/>
        <pt x="834" y="9" on="0"/>
        <pt x="792" y="-43" on="0"/>
        <pt x="745" y="-98" on="0"/>
        <pt x="696" y="-151" on="0"/>
        <pt x="672" y="-174" on="1"/>
        <pt x="582" y="-169" on="0"/>
        <pt x="415" y="-153" on="0"/>
        <pt x="259" y="-132" on="0"/>
        <pt x="110" y="-110" on="0"/>
        <pt x="37" y="-99" on="1"/>
        <pt x="26" y="-119" on="0"/>
        <pt x="13" y="-137" on="0"/>
        <pt x="14" y="-135" on="1"/>
      </contour>
    </TTGlyph>
    <TTGlyph name="Lacute" xMin="-152" yMin="-174" xMax="961" yMax="1997">
      <component glyphName="L" x="0" y="0" flags="0x204"/>
      <component glyphName="acute" x="420" y="967" flags="0x4"/>
    </TTGlyph>
    <TTGlyph name="Lcaron" xMin="-152" yMin="-174" xMax="1103" yMax="1581">
      <component glyphName="L" x="0" y="0" flags="0x204"/>
      <component glyphName="quoteright" x="489" y="0" flags="0x4"/>
    </TTGlyph>
    <TTGlyph name="Lcommaaccent" xMin="-152" yMin="-654" xMax="850" yMax="1581">
      <component glyphName="L" x="0" y="0" flags="0x204"/>
      <component glyphName="commaaccent" x="184" y="-122" flags="0x4"/>
    </TTGlyph>
    <TTGlyph name="Ldot" xMin="-152" yMin="-174" xMax="905" yMax="1581">
      <component glyphName="L" x="0" y="0" flags="0x204"/>
      <component glyphName="periodcentered" x="569" y="0" flags="0x4"/>
    </TTGlyph>
    <TTGlyph name="Lslash" xMin="-152" yMin="-174" xMax="850" yMax="1581">
      <contour>
        <pt x="653" y="700" on="1"/>
        <pt x="657" y="682" on="0"/>
        <pt x="662" y="643" on="0"/>
        <pt x="663" y="605" on="0"/>
        <pt x="662" y="572" on="0"/>
        <pt x="659" y="561" on="1"/>
        <pt x="651" y="558" on="0"/>
        <pt x="592" y="539" on="0"/>
        <pt x="503" y="510" on="0"/>
        <pt x="391" y="476" on="0"/>
        <pt x="331" y="458" on="1"/>
        <pt x="269" y="334" on="0"/>
        <pt x="157" y="121" on="0"/>
        <pt x="114" y="41" on="1"/>
        <pt x="174" y="41" on="0"/>
        <pt x="338" y="40" on="0"/>
        <pt x="530" y="38" on="0"/>
        <pt x="742" y="34" on="0"/>
        <pt x="850" y="31" on="1"/>
        <pt x="834" y="9" on="0"/>
        <pt x="792" y="-43" on="0"/>
        <pt x="745" y="-98" on="0"/>
        <pt x="696" y="-151" on="0"/>
        <pt x="672" y="-174" on="1"/>
        <pt x="582" y="-169" on="0"/>
        <pt x="415" y="-153" on="0"/>
        <pt x="259" y="-132" on="0"/>
        <pt x="110" y="-110" on="0"/>
        <pt x="37" y="-99" on="1"/>
        <pt x="26" y="-119" on="0"/>
        <pt x="13" y="-137" on="0"/>
        <pt x="14" y="-135" on="1"/>
        <pt x="-152" y="-63" on="1"/>
        <pt x="-100" y="27" on="0"/>
        <pt x="15" y="252" on="0"/>
        <pt x="75" y="383" on="1"/>
        <pt x="6" y="363" on="0"/>
        <pt x="-88" y="336" on="0"/>
        <pt x="-94" y="336" on="1"/>
        <pt x="-97" y="359" on="0"/>
        <pt x="-101" y="414" on="0"/>
        <pt x="-98" y="434" on="1"/>
        <pt x="-60" y="446" on="0"/>
        <pt x="61" y="488" on="0"/>
        <pt x="133" y="513" on="1"/>
        <pt x="186" y="634" on="0"/>
        <pt x="290" y="895" on="0"/>
        <pt x="386" y="1167" on="0"/>
        <pt x="473" y="1444" on="0"/>
        <pt x="508" y="1581" on="1"/>
        <pt x="537" y="1553" on="0"/>
        <pt x="600" y="1498" on="0"/>
        <pt x="660" y="1445" on="0"/>
        <pt x="713" y="1394" on="0"/>
        <pt x="731" y="1372" on="1"/>
        <pt x="702" y="1286" on="0"/>
        <pt x="627" y="1098" on="0"/>
        <pt x="543" y="903" on="0"/>
        <pt x="451" y="706" on="0"/>
        <pt x="405" y="610" on="1"/>
        <pt x="454" y="628" on="0"/>
        <pt x="541" y="659" on="0"/>
        <pt x="607" y="683" on="0"/>
        <pt x="649" y="698" on="0"/>
      </contour>
    </TTGlyph>
    <TTGlyph name="M" xMin="-246" yMin="-369" xMax="1460" yMax="1659">
      <contour>
        <pt x="1460" y="1411" on="1"/>
        <pt x="1400" y="1245" on="0"/>
        <pt x="1294" y="903" on="0"/>
        <pt x="1214" y="514" on="0"/>
        <pt x="1166" y="63" on="0"/>
        <pt x="1165" y="-211" on="1"/>
        <pt x="1153" y="-219" on="0"/>
        <pt x="1106" y="-246" on="0"/>
        <pt x="1049" y="-277" on="0"/>
        <pt x="987" y="-309" on="0"/>
        <pt x="930" y="-339" on="0"/>
        <pt x="884" y="-363" on="0"/>
        <pt x="872" y="-369" on="1"/>
        <pt x="873" y="-294" on="0"/>
        <pt x="891" y="-114" on="0"/>
        <pt x="922" y="85" on="0"/>
        <pt x="963" y="299" on="0"/>
        <pt x="987" y="408" on="1"/>
        <pt x="915" y="311" on="0"/>
        <pt x="784" y="182" on="0"/>
        <pt x="733" y="143" on="1"/>
        <pt x="674" y="97" on="0"/>
        <pt x="623" y="70" on="1"/>
        <pt x="602" y="58" on="0"/>
        <pt x="542" y="78" on="0"/>
        <pt x="483" y="118" on="0"/>
        <pt x="434" y="166" on="0"/>
        <pt x="424" y="182" on="1"/>
        <pt x="414" y="198" on="0"/>
        <pt x="391" y="348" on="0"/>
        <pt x="386" y="488" on="1"/>
        <pt x="343" y="432" on="0"/>
        <pt x="243" y="308" on="0"/>
        <pt x="140" y="185" on="0"/>
        <pt x="40" y="70" on="0"/>
        <pt x="-47" y="-25" on="0"/>
        <pt x="-116" y="-94" on="0"/>
        <pt x="-135" y="-109" on="1"/>
        <pt x="-145" y="-98" on="0"/>
        <pt x="-174" y="-70" on="0"/>
        <pt x="-205" y="-39" on="0"/>
        <pt x="-235" y="-8" on="0"/>
        <pt x="-246" y="6" on="1"/>
        <pt x="-100" y="134" on="0"/>
        <pt x="200" y="601" on="0"/>
        <pt x="336" y="930" on="1"/>
        <pt x="351" y="917" on="0"/>
        <pt x="377" y="893" on="0"/>
        <pt x="389" y="881" on="1"/>
        <pt x="397" y="1039" on="0"/>
        <pt x="430" y="1424" on="0"/>
        <pt x="461" y="1659" on="1"/>
        <pt x="466" y="1657" on="0"/>
        <pt x="503" y="1623" on="0"/>
        <pt x="553" y="1572" on="0"/>
        <pt x="609" y="1513" on="0"/>
        <pt x="660" y="1459" on="0"/>
        <pt x="698" y="1417" on="0"/>
        <pt x="705" y="1409" on="1"/>
        <pt x="703" y="1401" on="0"/>
        <pt x="689" y="1331" on="0"/>
        <pt x="670" y="1221" on="0"/>
        <pt x="648" y="1079" on="0"/>
        <pt x="630" y="920" on="0"/>
        <pt x="617" y="751" on="0"/>
        <pt x="616" y="670" on="1"/>
        <pt x="615" y="636" on="0"/>
        <pt x="614" y="547" on="0"/>
        <pt x="614" y="453" on="0"/>
        <pt x="617" y="362" on="0"/>
        <pt x="623" y="289" on="0"/>
        <pt x="634" y="242" on="0"/>
        <pt x="643" y="240" on="1"/>
        <pt x="654" y="237" on="0"/>
        <pt x="738" y="301" on="0"/>
        <pt x="856" y="425" on="0"/>
        <pt x="995" y="602" on="0"/>
        <pt x="1060" y="712" on="1"/>
        <pt x="1090" y="829" on="0"/>
        <pt x="1151" y="1047" on="0"/>
        <pt x="1208" y="1233" on="0"/>
        <pt x="1258" y="1380" on="0"/>
        <pt x="1278" y="1427" on="1"/>
        <pt x="1298" y="1426" on="0"/>
        <pt x="1349" y="1423" on="0"/>
        <pt x="1401" y="1418" on="0"/>
        <pt x="1446" y="1413" on="0"/>
      </contour>
    </TTGlyph>
    <TTGlyph name="N" xMin="-246" yMin="-166" xMax="1335" yMax="1651">
      <contour>
        <pt x="1335" y="1223" on="1"/>
        <pt x="1335" y="1171" on="0"/>
        <pt x="1317" y="1030" on="0"/>
        <pt x="1274" y="847" on="0"/>
        <pt x="1201" y="621" on="0"/>
        <pt x="1147" y="483" on="1"/>
        <pt x="1088" y="333" on="0"/>
        <pt x="965" y="102" on="0"/>
        <pt x="858" y="-58" on="0"/>
        <pt x="778" y="-146" on="0"/>
        <pt x="762" y="-154" on="1"/>
        <pt x="736" y="-166" on="0"/>
        <pt x="705" y="-166" on="1"/>
        <pt x="679" y="-166" on="0"/>
        <pt x="625" y="-150" on="0"/>
        <pt x="606" y="-133" on="1"/>
        <pt x="594" y="-123" on="0"/>
        <pt x="539" y="-41" on="0"/>
        <pt x="477" y="110" on="0"/>
        <pt x="419" y="336" on="0"/>
        <pt x="405" y="492" on="1"/>
        <pt x="362" y="436" on="0"/>
        <pt x="260" y="308" on="0"/>
        <pt x="154" y="181" on="0"/>
        <pt x="49" y="60" on="0"/>
        <pt x="-43" y="-40" on="0"/>
        <pt x="-115" y="-113" on="0"/>
        <pt x="-135" y="-129" on="1"/>
        <pt x="-146" y="-119" on="0"/>
        <pt x="-175" y="-91" on="0"/>
        <pt x="-206" y="-60" on="0"/>
        <pt x="-235" y="-28" on="0"/>
        <pt x="-246" y="-14" on="1"/>
        <pt x="-100" y="114" on="0"/>
        <pt x="200" y="580" on="0"/>
        <pt x="336" y="909" on="1"/>
        <pt x="353" y="895" on="0"/>
        <pt x="383" y="867" on="0"/>
        <pt x="397" y="853" on="1"/>
        <pt x="401" y="993" on="0"/>
        <pt x="412" y="1211" on="0"/>
        <pt x="426" y="1378" on="0"/>
        <pt x="439" y="1498" on="0"/>
        <pt x="451" y="1582" on="0"/>
        <pt x="460" y="1635" on="0"/>
        <pt x="463" y="1651" on="1"/>
        <pt x="473" y="1642" on="0"/>
        <pt x="513" y="1603" on="0"/>
        <pt x="563" y="1555" on="0"/>
        <pt x="618" y="1502" on="0"/>
        <pt x="667" y="1454" on="0"/>
        <pt x="704" y="1416" on="0"/>
        <pt x="711" y="1407" on="1"/>
        <pt x="698" y="1357" on="0"/>
        <pt x="665" y="1224" on="0"/>
        <pt x="636" y="1045" on="0"/>
        <pt x="616" y="815" on="0"/>
        <pt x="616" y="668" on="1"/>
        <pt x="617" y="531" on="0"/>
        <pt x="626" y="403" on="1"/>
        <pt x="630" y="348" on="0"/>
        <pt x="641" y="231" on="0"/>
        <pt x="658" y="118" on="0"/>
        <pt x="682" y="14" on="0"/>
        <pt x="697" y="-27" on="1"/>
        <pt x="822" y="179" on="0"/>
        <pt x="971" y="565" on="0"/>
        <pt x="1051" y="935" on="0"/>
        <pt x="1075" y="1294" on="0"/>
        <pt x="1075" y="1473" on="1"/>
        <pt x="1075" y="1542" on="1"/>
        <pt x="1127" y="1502" on="0"/>
        <pt x="1221" y="1404" on="0"/>
        <pt x="1257" y="1360" on="1"/>
        <pt x="1299" y="1309" on="0"/>
        <pt x="1335" y="1257" on="1"/>
      </contour>
    </TTGlyph>
    <TTGlyph name="Nacute" xMin="-246" yMin="-166" xMax="1335" yMax="1968">
      <component glyphName="N" x="0" y="0" flags="0x204"/>
      <component glyphName="acute" x="616" y="938" flags="0x4"/>
    </TTGlyph>
    <TTGlyph name="Ncaron" xMin="-246" yMin="-166" xMax="1335" yMax="1937">
      <component glyphName="N" x="0" y="0" flags="0x204"/>
      <component glyphName="caron" x="522" y="938" flags="0x4"/>
    </TTGlyph>
    <TTGlyph name="Ncommaaccent" xMin="-246" yMin="-572" xMax="1335" yMax="1651">
      <component glyphName="N" x="0" y="0" flags="0x204"/>
      <component glyphName="commaaccent" x="201" y="-40" flags="0x4"/>
    </TTGlyph>
    <TTGlyph name="Ntilde" xMin="-246" yMin="-166" xMax="1335" yMax="1905">
      <component glyphName="N" x="0" y="0" flags="0x204"/>
      <component glyphName="tilde" x="522" y="938" flags="0x4"/>
    </TTGlyph>
    <TTGlyph name="O" xMin="-29" yMin="-170" xMax="1286" yMax="1561">
      <contour>
        <pt x="1239" y="1341" on="1"/>
        <pt x="1246" y="1329" on="0"/>
        <pt x="1262" y="1306" on="0"/>
        <pt x="1276" y="1264" on="0"/>
        <pt x="1286" y="1194" on="0"/>
        <pt x="1286" y="1135" on="1"/>
        <pt x="1286" y="1011" on="0"/>
        <pt x="1228" y="767" on="0"/>
        <pt x="1128" y="537" on="0"/>
        <pt x="992" y="326" on="0"/>
        <pt x="835" y="143" on="0"/>
        <pt x="665" y="-6" on="0"/>
        <pt x="496" y="-112" on="0"/>
        <pt x="336" y="-170" on="0"/>
        <pt x="268" y="-170" on="1"/>
        <pt x="241" y="-170" on="0"/>
        <pt x="184" y="-144" on="0"/>
        <pt x="129" y="-102" on="0"/>
        <pt x="80" y="-52" on="0"/>
        <pt x="41" y="-3" on="0"/>
        <pt x="15" y="37" on="0"/>
        <pt x="10" y="47" on="1"/>
        <pt x="5" y="57" on="0"/>
        <pt x="-9" y="85" on="0"/>
        <pt x="-21" y="128" on="0"/>
        <pt x="-29" y="191" on="0"/>
        <pt x="-29" y="236" on="1"/>
        <pt x="-29" y="305" on="0"/>
        <pt x="-2" y="468" on="0"/>
        <pt x="68" y="656" on="0"/>
        <pt x="189" y="869" on="0"/>
        <pt x="283" y="987" on="1"/>
        <pt x="291" y="978" on="0"/>
        <pt x="323" y="943" on="0"/>
        <pt x="361" y="899" on="0"/>
        <pt x="403" y="850" on="0"/>
        <pt x="440" y="806" on="0"/>
        <pt x="466" y="771" on="0"/>
        <pt x="471" y="762" on="1"/>
        <pt x="423" y="707" on="0"/>
        <pt x="337" y="579" on="0"/>
        <pt x="264" y="448" on="0"/>
        <pt x="204" y="320" on="0"/>
        <pt x="162" y="210" on="0"/>
        <pt x="139" y="124" on="0"/>
        <pt x="139" y="100" on="1"/>
        <pt x="139" y="84" on="0"/>
        <pt x="151" y="55" on="0"/>
        <pt x="169" y="33" on="0"/>
        <pt x="189" y="20" on="0"/>
        <pt x="197" y="20" on="1"/>
        <pt x="249" y="20" on="0"/>
        <pt x="383" y="80" on="0"/>
        <pt x="530" y="188" on="0"/>
        <pt x="684" y="340" on="0"/>
        <pt x="828" y="524" on="0"/>
        <pt x="955" y="735" on="0"/>
        <pt x="1051" y="963" on="0"/>
        <pt x="1106" y="1202" on="0"/>
        <pt x="1106" y="1321" on="1"/>
        <pt x="1106" y="1357" on="0"/>
        <pt x="1090" y="1406" on="0"/>
        <pt x="1064" y="1437" on="0"/>
        <pt x="1031" y="1450" on="0"/>
        <pt x="1014" y="1450" on="1"/>
        <pt x="937" y="1450" on="0"/>
        <pt x="816" y="1391" on="0"/>
        <pt x="728" y="1301" on="0"/>
        <pt x="674" y="1193" on="0"/>
        <pt x="664" y="1143" on="1"/>
        <pt x="649" y="1059" on="0"/>
        <pt x="669" y="926" on="0"/>
        <pt x="706" y="828" on="0"/>
        <pt x="743" y="767" on="0"/>
        <pt x="745" y="754" on="1"/>
        <pt x="721" y="757" on="0"/>
        <pt x="655" y="762" on="0"/>
        <pt x="583" y="768" on="0"/>
        <pt x="513" y="775" on="0"/>
        <pt x="485" y="780" on="1"/>
        <pt x="473" y="794" on="0"/>
        <pt x="445" y="846" on="0"/>
        <pt x="422" y="914" on="0"/>
        <pt x="406" y="994" on="0"/>
        <pt x="406" y="1036" on="1"/>
        <pt x="406" y="1116" on="0"/>
        <pt x="457" y="1257" on="0"/>
        <pt x="543" y="1374" on="0"/>
        <pt x="653" y="1465" on="0"/>
        <pt x="771" y="1528" on="0"/>
        <pt x="887" y="1561" on="0"/>
        <pt x="936" y="1561" on="1"/>
        <pt x="968" y="1561" on="0"/>
        <pt x="1033" y="1536" on="0"/>
        <pt x="1095" y="1495" on="0"/>
        <pt x="1152" y="1446" on="0"/>
        <pt x="1198" y="1397" on="0"/>
        <pt x="1231" y="1354" on="0"/>
      </contour>
    </TTGlyph>
    <TTGlyph name="OE" xMin="-29" yMin="-170" xMax="2181" yMax="1561">
      <contour>
        <pt x="1788" y="973" on="1"/>
        <pt x="1826" y="1004" on="0"/>
        <pt x="1899" y="1096" on="0"/>
        <pt x="1955" y="1198" on="0"/>
        <pt x="1989" y="1304" on="0"/>
        <pt x="1989" y="1350" on="1"/>
        <pt x="1989" y="1387" on="0"/>
        <pt x="1953" y="1438" on="0"/>
        <pt x="1907" y="1438" on="1"/>
        <pt x="1868" y="1438" on="0"/>
        <pt x="1775" y="1402" on="0"/>
        <pt x="1679" y="1339" on="0"/>
        <pt x="1588" y="1252" on="0"/>
        <pt x="1518" y="1150" on="0"/>
        <pt x="1475" y="1038" on="0"/>
        <pt x="1475" y="981" on="1"/>
        <pt x="1475" y="932" on="0"/>
        <pt x="1499" y="861" on="0"/>
        <pt x="1544" y="806" on="0"/>
        <pt x="1609" y="760" on="0"/>
        <pt x="1651" y="735" on="1"/>
        <pt x="1525" y="682" on="0"/>
        <pt x="1314" y="527" on="0"/>
        <pt x="1162" y="347" on="0"/>
        <pt x="1077" y="156" on="0"/>
        <pt x="1077" y="68" on="1"/>
        <pt x="1077" y="37" on="0"/>
        <pt x="1107" y="-10" on="0"/>
        <pt x="1139" y="-10" on="1"/>
        <pt x="1181" y="-10" on="0"/>
        <pt x="1286" y="36" on="0"/>
        <pt x="1398" y="110" on="0"/>
        <pt x="1510" y="202" on="0"/>
        <pt x="1609" y="295" on="0"/>
        <pt x="1687" y="379" on="0"/>
        <pt x="1710" y="408" on="1"/>
        <pt x="1770" y="360" on="0"/>
        <pt x="1858" y="285" on="0"/>
        <pt x="1896" y="254" on="1"/>
        <pt x="1879" y="231" on="0"/>
        <pt x="1800" y="149" on="0"/>
        <pt x="1691" y="55" on="0"/>
        <pt x="1562" y="-42" on="0"/>
        <pt x="1429" y="-120" on="0"/>
        <pt x="1299" y="-170" on="0"/>
        <pt x="1245" y="-170" on="1"/>
        <pt x="1198" y="-170" on="0"/>
        <pt x="1105" y="-138" on="0"/>
        <pt x="1021" y="-85" on="0"/>
        <pt x="950" y="-16" on="0"/>
        <pt x="897" y="58" on="0"/>
        <pt x="865" y="132" on="0"/>
        <pt x="864" y="164" on="1"/>
        <pt x="864" y="180" on="1"/>
        <pt x="790" y="100" on="0"/>
        <pt x="632" y="-29" on="0"/>
        <pt x="476" y="-121" on="0"/>
        <pt x="330" y="-170" on="0"/>
        <pt x="268" y="-170" on="1"/>
        <pt x="241" y="-170" on="0"/>
        <pt x="184" y="-144" on="0"/>
        <pt x="129" y="-102" on="0"/>
        <pt x="80" y="-52" on="0"/>
        <pt x="41" y="-3" on="0"/>
        <pt x="15" y="37" on="0"/>
        <pt x="10" y="47" on="1"/>
        <pt x="5" y="57" on="0"/>
        <pt x="-9" y="85" on="0"/>
        <pt x="-21" y="128" on="0"/>
        <pt x="-29" y="191" on="0"/>
        <pt x="-29" y="236" on="1"/>
        <pt x="-29" y="305" on="0"/>
        <pt x="-2" y="468" on="0"/>
        <pt x="68" y="656" on="0"/>
        <pt x="189" y="869" on="0"/>
        <pt x="283" y="987" on="1"/>
        <pt x="291" y="978" on="0"/>
        <pt x="323" y="943" on="0"/>
        <pt x="361" y="899" on="0"/>
        <pt x="403" y="850" on="0"/>
        <pt x="440" y="806" on="0"/>
        <pt x="466" y="771" on="0"/>
        <pt x="471" y="762" on="1"/>
        <pt x="423" y="707" on="0"/>
        <pt x="337" y="579" on="0"/>
        <pt x="264" y="448" on="0"/>
        <pt x="204" y="320" on="0"/>
        <pt x="162" y="210" on="0"/>
        <pt x="139" y="124" on="0"/>
        <pt x="139" y="100" on="1"/>
        <pt x="139" y="84" on="0"/>
        <pt x="151" y="55" on="0"/>
        <pt x="169" y="33" on="0"/>
        <pt x="189" y="20" on="0"/>
        <pt x="197" y="20" on="1"/>
        <pt x="249" y="20" on="0"/>
        <pt x="383" y="80" on="0"/>
        <pt x="530" y="188" on="0"/>
        <pt x="684" y="340" on="0"/>
        <pt x="828" y="524" on="0"/>
        <pt x="955" y="735" on="0"/>
        <pt x="1051" y="963" on="0"/>
        <pt x="1106" y="1202" on="0"/>
        <pt x="1106" y="1321" on="1"/>
        <pt x="1106" y="1357" on="0"/>
        <pt x="1090" y="1406" on="0"/>
        <pt x="1064" y="1437" on="0"/>
        <pt x="1031" y="1450" on="0"/>
        <pt x="1014" y="1450" on="1"/>
        <pt x="937" y="1450" on="0"/>
        <pt x="816" y="1391" on="0"/>
        <pt x="728" y="1301" on="0"/>
        <pt x="674" y="1193" on="0"/>
        <pt x="664" y="1143" on="1"/>
        <pt x="649" y="1059" on="0"/>
        <pt x="669" y="926" on="0"/>
        <pt x="706" y="828" on="0"/>
        <pt x="743" y="767" on="0"/>
        <pt x="745" y="754" on="1"/>
        <pt x="721" y="757" on="0"/>
        <pt x="655" y="762" on="0"/>
        <pt x="583" y="768" on="0"/>
        <pt x="513" y="775" on="0"/>
        <pt x="485" y="780" on="1"/>
        <pt x="473" y="794" on="0"/>
        <pt x="445" y="846" on="0"/>
        <pt x="422" y="914" on="0"/>
        <pt x="406" y="994" on="0"/>
        <pt x="406" y="1036" on="1"/>
        <pt x="406" y="1116" on="0"/>
        <pt x="457" y="1257" on="0"/>
        <pt x="543" y="1374" on="0"/>
        <pt x="653" y="1465" on="0"/>
        <pt x="771" y="1528" on="0"/>
        <pt x="887" y="1561" on="0"/>
        <pt x="936" y="1561" on="1"/>
        <pt x="968" y="1561" on="0"/>
        <pt x="1033" y="1536" on="0"/>
        <pt x="1095" y="1495" on="0"/>
        <pt x="1152" y="1446" on="0"/>
        <pt x="1198" y="1397" on="0"/>
        <pt x="1231" y="1354" on="0"/>
        <pt x="1239" y="1341" on="1"/>
        <pt x="1244" y="1331" on="0"/>
        <pt x="1257" y="1312" on="0"/>
        <pt x="1270" y="1284" on="0"/>
        <pt x="1281" y="1240" on="0"/>
        <pt x="1284" y="1206" on="1"/>
        <pt x="1319" y="1281" on="0"/>
        <pt x="1438" y="1411" on="0"/>
        <pt x="1581" y="1507" on="0"/>
        <pt x="1737" y="1561" on="0"/>
        <pt x="1810" y="1561" on="1"/>
        <pt x="1913" y="1561" on="0"/>
        <pt x="1954" y="1540" on="1"/>
        <pt x="1988" y="1522" on="0"/>
        <pt x="2067" y="1454" on="0"/>
        <pt x="2135" y="1373" on="0"/>
        <pt x="2181" y="1290" on="0"/>
        <pt x="2181" y="1257" on="1"/>
        <pt x="2181" y="1200" on="0"/>
        <pt x="2143" y="1076" on="0"/>
        <pt x="2081" y="959" on="0"/>
        <pt x="2002" y="856" on="0"/>
        <pt x="1960" y="821" on="1"/>
      </contour>
      <contour>
        <pt x="1214" y="741" on="1"/>
        <pt x="1243" y="760" on="0"/>
        <pt x="1307" y="796" on="0"/>
        <pt x="1339" y="811" on="1"/>
        <pt x="1318" y="833" on="0"/>
        <pt x="1278" y="883" on="0"/>
        <pt x="1264" y="918" on="1"/>
        <pt x="1254" y="873" on="0"/>
        <pt x="1230" y="785" on="0"/>
      </contour>
    </TTGlyph>
    <TTGlyph name="Oacute" xMin="-29" yMin="-170" xMax="1286" yMax="1997">
      <component glyphName="O" x="0" y="0" flags="0x204"/>
      <component glyphName="acute" x="713" y="967" flags="0x4"/>
    </TTGlyph>
    <TTGlyph name="Obreve" xMin="-29" yMin="-170" xMax="1286" yMax="1932">
      <component glyphName="O" x="0" y="0" flags="0x204"/>
      <component glyphName="breve" x="614" y="967" flags="0x4"/>
    </TTGlyph>
    <TTGlyph name="Ocircumflex" xMin="-29" yMin="-170" xMax="1286" yMax="1981">
      <component glyphName="O" x="0" y="0" flags="0x204"/>
      <component glyphName="circumflex" x="618" y="967" flags="0x4"/>
    </TTGlyph>
    <TTGlyph name="Odieresis" xMin="-29" yMin="-170" xMax="1290" yMax="1942">
      <component glyphName="O" x="0" y="0" flags="0x204"/>
      <component glyphName="dieresis" x="618" y="967" flags="0x4"/>
    </TTGlyph>
    <TTGlyph name="Ograve" xMin="-29" yMin="-170" xMax="1286" yMax="1995">
      <component glyphName="O" x="0" y="0" flags="0x204"/>
      <component glyphName="grave" x="618" y="967" flags="0x4"/>
    </TTGlyph>
    <TTGlyph name="Ohungarumlaut" xMin="-29" yMin="-170" xMax="1319" yMax="1997">
      <component glyphName="O" x="0" y="0" flags="0x204"/>
      <component glyphName="hungarumlaut" x="584" y="967" flags="0x4"/>
    </TTGlyph>
    <TTGlyph name="Omacron" xMin="-29" yMin="-170" xMax="1286" yMax="1876">
      <component glyphName="O" x="0" y="0" flags="0x204"/>
      <component glyphName="macron" x="618" y="967" flags="0x4"/>
    </TTGlyph>
    <TTGlyph name="Oslash" xMin="-131" yMin="-487" xMax="1360" yMax="1849">
      <contour>
        <pt x="1360" y="1737" on="1"/>
        <pt x="1337" y="1700" on="0"/>
        <pt x="1237" y="1539" on="0"/>
        <pt x="1168" y="1427" on="1"/>
        <pt x="1194" y="1401" on="0"/>
        <pt x="1231" y="1355" on="0"/>
        <pt x="1239" y="1341" on="1"/>
        <pt x="1246" y="1329" on="0"/>
        <pt x="1262" y="1306" on="0"/>
        <pt x="1276" y="1264" on="0"/>
        <pt x="1286" y="1194" on="0"/>
        <pt x="1286" y="1135" on="1"/>
        <pt x="1286" y="1011" on="0"/>
        <pt x="1228" y="767" on="0"/>
        <pt x="1128" y="537" on="0"/>
        <pt x="992" y="326" on="0"/>
        <pt x="835" y="143" on="0"/>
        <pt x="665" y="-6" on="0"/>
        <pt x="496" y="-112" on="0"/>
        <pt x="336" y="-170" on="0"/>
        <pt x="268" y="-170" on="1"/>
        <pt x="250" y="-170" on="0"/>
        <pt x="214" y="-159" on="0"/>
        <pt x="196" y="-149" on="1"/>
        <pt x="122" y="-264" on="0"/>
        <pt x="8" y="-439" on="0"/>
        <pt x="-27" y="-487" on="1"/>
        <pt x="-45" y="-469" on="0"/>
        <pt x="-72" y="-444" on="0"/>
        <pt x="-95" y="-421" on="0"/>
        <pt x="-117" y="-399" on="0"/>
        <pt x="-131" y="-385" on="1"/>
        <pt x="-77" y="-305" on="0"/>
        <pt x="30" y="-141" on="0"/>
        <pt x="85" y="-56" on="1"/>
        <pt x="56" y="-24" on="0"/>
        <pt x="16" y="33" on="0"/>
        <pt x="10" y="47" on="1"/>
        <pt x="5" y="57" on="0"/>
        <pt x="-9" y="85" on="0"/>
        <pt x="-21" y="128" on="0"/>
        <pt x="-29" y="191" on="0"/>
        <pt x="-29" y="236" on="1"/>
        <pt x="-29" y="305" on="0"/>
        <pt x="-2" y="468" on="0"/>
        <pt x="68" y="656" on="0"/>
        <pt x="189" y="869" on="0"/>
        <pt x="283" y="987" on="1"/>
        <pt x="291" y="978" on="0"/>
        <pt x="323" y="943" on="0"/>
        <pt x="361" y="899" on="0"/>
        <pt x="403" y="850" on="0"/>
        <pt x="440" y="806" on="0"/>
        <pt x="466" y="771" on="0"/>
        <pt x="471" y="762" on="1"/>
        <pt x="423" y="707" on="0"/>
        <pt x="337" y="579" on="0"/>
        <pt x="264" y="448" on="0"/>
        <pt x="204" y="320" on="0"/>
        <pt x="162" y="210" on="0"/>
        <pt x="139" y="124" on="0"/>
        <pt x="139" y="100" on="1"/>
        <pt x="139" y="86" on="0"/>
        <pt x="148" y="62" on="0"/>
        <pt x="155" y="51" on="1"/>
        <pt x="265" y="224" on="0"/>
        <pt x="487" y="581" on="0"/>
        <pt x="599" y="767" on="1"/>
        <pt x="567" y="769" on="0"/>
        <pt x="509" y="776" on="0"/>
        <pt x="485" y="780" on="1"/>
        <pt x="473" y="794" on="0"/>
        <pt x="445" y="846" on="0"/>
        <pt x="422" y="914" on="0"/>
        <pt x="406" y="994" on="0"/>
        <pt x="406" y="1036" on="1"/>
        <pt x="406" y="1116" on="0"/>
        <pt x="457" y="1257" on="0"/>
        <pt x="543" y="1374" on="0"/>
        <pt x="653" y="1465" on="0"/>
        <pt x="771" y="1528" on="0"/>
        <pt x="887" y="1561" on="0"/>
        <pt x="936" y="1561" on="1"/>
        <pt x="964" y="1561" on="0"/>
        <pt x="1021" y="1541" on="0"/>
        <pt x="1049" y="1524" on="1"/>
        <pt x="1239" y="1849" on="1"/>
        <pt x="1264" y="1825" on="0"/>
        <pt x="1293" y="1801" on="0"/>
        <pt x="1315" y="1783" on="0"/>
        <pt x="1339" y="1761" on="0"/>
      </contour>
      <contour>
        <pt x="324" y="54" on="1"/>
        <pt x="401" y="89" on="0"/>
        <pt x="577" y="228" on="0"/>
        <pt x="751" y="417" on="0"/>
        <pt x="910" y="649" on="0"/>
        <pt x="1033" y="907" on="0"/>
        <pt x="1106" y="1183" on="0"/>
        <pt x="1106" y="1321" on="1"/>
        <pt x="1106" y="1325" on="1"/>
        <pt x="1023" y="1190" on="0"/>
        <pt x="828" y="870" on="0"/>
        <pt x="623" y="536" on="0"/>
        <pt x="417" y="203" on="0"/>
      </contour>
      <contour>
        <pt x="664" y="1143" on="1"/>
        <pt x="650" y="1068" on="0"/>
        <pt x="664" y="947" on="0"/>
        <pt x="679" y="900" on="1"/>
        <pt x="761" y="1037" on="0"/>
        <pt x="924" y="1311" on="0"/>
        <pt x="1005" y="1449" on="1"/>
        <pt x="930" y="1447" on="0"/>
        <pt x="812" y="1388" on="0"/>
        <pt x="726" y="1299" on="0"/>
        <pt x="673" y="1192" on="0"/>
      </contour>
    </TTGlyph>
    <TTGlyph name="Oslashacute" xMin="-131" yMin="-487" xMax="1360" yMax="1997">
      <component glyphName="Oslash" x="0" y="0" flags="0x204"/>
      <component glyphName="acute" x="559" y="967" flags="0x4"/>
    </TTGlyph>
    <TTGlyph name="Otilde" xMin="-29" yMin="-170" xMax="1337" yMax="1934">
      <component glyphName="O" x="0" y="0" flags="0x204"/>
      <component glyphName="tilde" x="618" y="967" flags="0x4"/>
    </TTGlyph>
    <TTGlyph name="P" xMin="-163" yMin="-214" xMax="1452" yMax="1610">
      <contour>
        <pt x="1452" y="1249" on="1"/>
        <pt x="1452" y="1177" on="0"/>
        <pt x="1401" y="1028" on="0"/>
        <pt x="1313" y="883" on="0"/>
        <pt x="1195" y="749" on="0"/>
        <pt x="1063" y="635" on="0"/>
        <pt x="921" y="546" on="0"/>
        <pt x="854" y="520" on="1"/>
        <pt x="843" y="536" on="0"/>
        <pt x="810" y="581" on="0"/>
        <pt x="772" y="630" on="0"/>
        <pt x="733" y="679" on="0"/>
        <pt x="715" y="700" on="1"/>
        <pt x="858" y="756" on="0"/>
        <pt x="1085" y="910" on="0"/>
        <pt x="1244" y="1079" on="0"/>
        <pt x="1329" y="1252" on="0"/>
        <pt x="1329" y="1327" on="1"/>
        <pt x="1329" y="1337" on="0"/>
        <pt x="1323" y="1359" on="0"/>
        <pt x="1309" y="1375" on="0"/>
        <pt x="1286" y="1382" on="0"/>
        <pt x="1270" y="1378" on="1"/>
        <pt x="1223" y="1368" on="0"/>
        <pt x="1110" y="1314" on="0"/>
        <pt x="985" y="1233" on="0"/>
        <pt x="850" y="1127" on="0"/>
        <pt x="781" y="1066" on="1"/>
        <pt x="744" y="950" on="0"/>
        <pt x="648" y="691" on="0"/>
        <pt x="536" y="434" on="0"/>
        <pt x="413" y="192" on="0"/>
        <pt x="286" y="-9" on="0"/>
        <pt x="159" y="-156" on="0"/>
        <pt x="100" y="-188" on="1"/>
        <pt x="85" y="-196" on="0"/>
        <pt x="42" y="-210" on="0"/>
        <pt x="10" y="-213" on="1"/>
        <pt x="-2" y="-214" on="0"/>
        <pt x="-35" y="-192" on="0"/>
        <pt x="-69" y="-158" on="0"/>
        <pt x="-103" y="-116" on="0"/>
        <pt x="-132" y="-78" on="0"/>
        <pt x="-151" y="-48" on="0"/>
        <pt x="-154" y="-43" on="1"/>
        <pt x="-162" y="-28" on="0"/>
        <pt x="-163" y="13" on="0"/>
        <pt x="-158" y="33" on="1"/>
        <pt x="-138" y="100" on="0"/>
        <pt x="-66" y="260" on="0"/>
        <pt x="31" y="435" on="0"/>
        <pt x="150" y="620" on="0"/>
        <pt x="287" y="803" on="0"/>
        <pt x="438" y="981" on="0"/>
        <pt x="518" y="1062" on="1"/>
        <pt x="569" y="1221" on="0"/>
        <pt x="635" y="1505" on="0"/>
        <pt x="641" y="1610" on="1"/>
        <pt x="681" y="1594" on="0"/>
        <pt x="753" y="1544" on="0"/>
        <pt x="811" y="1490" on="0"/>
        <pt x="855" y="1436" on="0"/>
        <pt x="868" y="1415" on="1"/>
        <pt x="866" y="1398" on="0"/>
        <pt x="860" y="1363" on="0"/>
        <pt x="855" y="1343" on="1"/>
        <pt x="956" y="1408" on="0"/>
        <pt x="1151" y="1481" on="0"/>
        <pt x="1243" y="1481" on="1"/>
        <pt x="1262" y="1481" on="0"/>
        <pt x="1307" y="1457" on="0"/>
        <pt x="1353" y="1418" on="0"/>
        <pt x="1396" y="1370" on="0"/>
        <pt x="1430" y="1321" on="0"/>
        <pt x="1451" y="1278" on="0"/>
        <pt x="1452" y="1264" on="1"/>
      </contour>
      <contour>
        <pt x="4" y="-8" on="1"/>
        <pt x="27" y="-8" on="0"/>
        <pt x="105" y="94" on="0"/>
        <pt x="202" y="270" on="0"/>
        <pt x="310" y="504" on="0"/>
        <pt x="363" y="635" on="1"/>
        <pt x="284" y="541" on="0"/>
        <pt x="149" y="357" on="0"/>
        <pt x="50" y="192" on="0"/>
        <pt x="-6" y="53" on="0"/>
        <pt x="-6" y="4" on="1"/>
        <pt x="-6" y="-8" on="0"/>
      </contour>
    </TTGlyph>
    <TTGlyph name="Q" xMin="-29" yMin="-213" xMax="1286" yMax="1561">
      <contour>
        <pt x="936" y="1561" on="1"/>
        <pt x="968" y="1561" on="0"/>
        <pt x="1033" y="1536" on="0"/>
        <pt x="1095" y="1495" on="0"/>
        <pt x="1152" y="1446" on="0"/>
        <pt x="1198" y="1397" on="0"/>
        <pt x="1231" y="1354" on="0"/>
        <pt x="1239" y="1341" on="1"/>
        <pt x="1246" y="1329" on="0"/>
        <pt x="1262" y="1305" on="0"/>
        <pt x="1276" y="1263" on="0"/>
        <pt x="1286" y="1193" on="0"/>
        <pt x="1286" y="1135" on="1"/>
        <pt x="1286" y="995" on="0"/>
        <pt x="1213" y="720" on="0"/>
        <pt x="1088" y="465" on="0"/>
        <pt x="923" y="237" on="0"/>
        <pt x="830" y="144" on="1"/>
        <pt x="894" y="52" on="0"/>
        <pt x="1040" y="-115" on="0"/>
        <pt x="1116" y="-201" on="1"/>
        <pt x="1057" y="-204" on="0"/>
        <pt x="896" y="-213" on="0"/>
        <pt x="805" y="-213" on="1"/>
        <pt x="763" y="-158" on="0"/>
        <pt x="688" y="-57" on="0"/>
        <pt x="655" y="-7" on="1"/>
        <pt x="551" y="-84" on="0"/>
        <pt x="352" y="-170" on="0"/>
        <pt x="268" y="-170" on="1"/>
        <pt x="240" y="-170" on="0"/>
        <pt x="183" y="-144" on="0"/>
        <pt x="129" y="-102" on="0"/>
        <pt x="81" y="-52" on="0"/>
        <pt x="42" y="-3" on="0"/>
        <pt x="15" y="37" on="0"/>
        <pt x="10" y="47" on="1"/>
        <pt x="5" y="57" on="0"/>
        <pt x="-9" y="84" on="0"/>
        <pt x="-21" y="127" on="0"/>
        <pt x="-29" y="190" on="0"/>
        <pt x="-29" y="236" on="1"/>
        <pt x="-29" y="305" on="0"/>
        <pt x="-2" y="468" on="0"/>
        <pt x="68" y="656" on="0"/>
        <pt x="189" y="869" on="0"/>
        <pt x="283" y="987" on="1"/>
        <pt x="290" y="979" on="0"/>
        <pt x="314" y="953" on="0"/>
        <pt x="343" y="919" on="0"/>
        <pt x="376" y="881" on="0"/>
        <pt x="392" y="862" on="1"/>
        <pt x="398" y="953" on="0"/>
        <pt x="454" y="1128" on="0"/>
        <pt x="539" y="1283" on="0"/>
        <pt x="648" y="1414" on="0"/>
        <pt x="765" y="1508" on="0"/>
        <pt x="883" y="1561" on="0"/>
      </contour>
      <contour>
        <pt x="602" y="862" on="1"/>
        <pt x="602" y="713" on="0"/>
        <pt x="656" y="468" on="0"/>
        <pt x="704" y="362" on="1"/>
        <pt x="785" y="456" on="0"/>
        <pt x="931" y="680" on="0"/>
        <pt x="1041" y="926" on="0"/>
        <pt x="1106" y="1189" on="0"/>
        <pt x="1106" y="1321" on="1"/>
        <pt x="1106" y="1357" on="0"/>
        <pt x="1090" y="1406" on="0"/>
        <pt x="1064" y="1437" on="0"/>
        <pt x="1031" y="1450" on="0"/>
        <pt x="1014" y="1450" on="1"/>
        <pt x="953" y="1450" on="0"/>
        <pt x="845" y="1399" on="0"/>
        <pt x="753" y="1312" on="0"/>
        <pt x="680" y="1196" on="0"/>
        <pt x="629" y="1066" on="0"/>
        <pt x="602" y="927" on="0"/>
      </contour>
      <contour>
        <pt x="536" y="192" on="1"/>
        <pt x="475" y="310" on="0"/>
        <pt x="406" y="551" on="0"/>
        <pt x="396" y="690" on="1"/>
        <pt x="357" y="635" on="0"/>
        <pt x="289" y="517" on="0"/>
        <pt x="232" y="400" on="0"/>
        <pt x="187" y="289" on="0"/>
        <pt x="156" y="194" on="0"/>
        <pt x="139" y="121" on="0"/>
        <pt x="139" y="100" on="1"/>
        <pt x="139" y="84" on="0"/>
        <pt x="151" y="55" on="0"/>
        <pt x="169" y="33" on="0"/>
        <pt x="189" y="20" on="0"/>
        <pt x="197" y="20" on="1"/>
        <pt x="265" y="20" on="0"/>
        <pt x="441" y="111" on="0"/>
      </contour>
    </TTGlyph>
    <TTGlyph name="R" xMin="-163" yMin="-268" xMax="1477" yMax="1610">
      <contour>
        <pt x="1477" y="1233" on="1"/>
        <pt x="1477" y="1131" on="0"/>
        <pt x="1404" y="912" on="0"/>
        <pt x="1251" y="704" on="0"/>
        <pt x="1013" y="516" on="0"/>
        <pt x="848" y="446" on="1"/>
        <pt x="889" y="347" on="0"/>
        <pt x="976" y="167" on="0"/>
        <pt x="1061" y="8" on="0"/>
        <pt x="1138" y="-127" on="0"/>
        <pt x="1169" y="-180" on="1"/>
        <pt x="1142" y="-189" on="0"/>
        <pt x="1068" y="-213" on="0"/>
        <pt x="990" y="-238" on="0"/>
        <pt x="915" y="-261" on="0"/>
        <pt x="887" y="-268" on="1"/>
        <pt x="879" y="-246" on="0"/>
        <pt x="849" y="-152" on="0"/>
        <pt x="811" y="-21" on="0"/>
        <pt x="767" y="142" on="0"/>
        <pt x="724" y="323" on="0"/>
        <pt x="685" y="516" on="0"/>
        <pt x="670" y="612" on="1"/>
        <pt x="797" y="656" on="0"/>
        <pt x="998" y="766" on="0"/>
        <pt x="1150" y="889" on="0"/>
        <pt x="1256" y="1019" on="0"/>
        <pt x="1323" y="1145" on="0"/>
        <pt x="1354" y="1262" on="0"/>
        <pt x="1354" y="1311" on="1"/>
        <pt x="1354" y="1330" on="0"/>
        <pt x="1348" y="1359" on="0"/>
        <pt x="1330" y="1377" on="0"/>
        <pt x="1297" y="1382" on="0"/>
        <pt x="1270" y="1378" on="1"/>
        <pt x="1223" y="1368" on="0"/>
        <pt x="1110" y="1314" on="0"/>
        <pt x="985" y="1233" on="0"/>
        <pt x="850" y="1127" on="0"/>
        <pt x="781" y="1066" on="1"/>
        <pt x="744" y="950" on="0"/>
        <pt x="648" y="691" on="0"/>
        <pt x="536" y="434" on="0"/>
        <pt x="413" y="192" on="0"/>
        <pt x="286" y="-9" on="0"/>
        <pt x="159" y="-156" on="0"/>
        <pt x="100" y="-188" on="1"/>
        <pt x="85" y="-196" on="0"/>
        <pt x="42" y="-210" on="0"/>
        <pt x="10" y="-213" on="1"/>
        <pt x="-2" y="-214" on="0"/>
        <pt x="-35" y="-192" on="0"/>
        <pt x="-69" y="-158" on="0"/>
        <pt x="-103" y="-116" on="0"/>
        <pt x="-132" y="-78" on="0"/>
        <pt x="-151" y="-48" on="0"/>
        <pt x="-154" y="-43" on="1"/>
        <pt x="-162" y="-28" on="0"/>
        <pt x="-163" y="13" on="0"/>
        <pt x="-158" y="33" on="1"/>
        <pt x="-138" y="100" on="0"/>
        <pt x="-66" y="260" on="0"/>
        <pt x="31" y="435" on="0"/>
        <pt x="150" y="620" on="0"/>
        <pt x="287" y="803" on="0"/>
        <pt x="438" y="981" on="0"/>
        <pt x="518" y="1062" on="1"/>
        <pt x="569" y="1221" on="0"/>
        <pt x="635" y="1505" on="0"/>
        <pt x="641" y="1610" on="1"/>
        <pt x="681" y="1594" on="0"/>
        <pt x="753" y="1544" on="0"/>
        <pt x="811" y="1490" on="0"/>
        <pt x="855" y="1436" on="0"/>
        <pt x="868" y="1415" on="1"/>
        <pt x="866" y="1398" on="0"/>
        <pt x="860" y="1363" on="0"/>
        <pt x="855" y="1343" on="1"/>
        <pt x="956" y="1408" on="0"/>
        <pt x="1151" y="1481" on="0"/>
        <pt x="1243" y="1481" on="1"/>
        <pt x="1265" y="1481" on="0"/>
        <pt x="1317" y="1456" on="0"/>
        <pt x="1368" y="1415" on="0"/>
        <pt x="1416" y="1362" on="0"/>
        <pt x="1453" y="1307" on="0"/>
        <pt x="1476" y="1254" on="0"/>
      </contour>
      <contour>
        <pt x="4" y="-8" on="1"/>
        <pt x="27" y="-8" on="0"/>
        <pt x="105" y="94" on="0"/>
        <pt x="202" y="270" on="0"/>
        <pt x="310" y="504" on="0"/>
        <pt x="363" y="635" on="1"/>
        <pt x="284" y="541" on="0"/>
        <pt x="149" y="357" on="0"/>
        <pt x="50" y="192" on="0"/>
        <pt x="-6" y="53" on="0"/>
        <pt x="-6" y="4" on="1"/>
        <pt x="-6" y="-8" on="0"/>
      </contour>
    </TTGlyph>
    <TTGlyph name="Racute" xMin="-163" yMin="-268" xMax="1477" yMax="1970">
      <component glyphName="R" x="0" y="0" flags="0x204"/>
      <component glyphName="acute" x="829" y="940" flags="0x4"/>
    </TTGlyph>
    <TTGlyph name="Rcaron" xMin="-163" yMin="-268" xMax="1477" yMax="1939">
      <component glyphName="R" x="0" y="0" flags="0x204"/>
      <component glyphName="caron" x="735" y="940" flags="0x4"/>
    </TTGlyph>
    <TTGlyph name="Rcommaaccent" xMin="-163" yMin="-572" xMax="1477" yMax="1610">
      <component glyphName="R" x="0" y="0" flags="0x204"/>
      <component glyphName="commaaccent" x="393" y="-40" flags="0x4"/>
    </TTGlyph>
    <TTGlyph name="S" xMin="-88" yMin="-180" xMax="1364" yMax="1556">
      <contour>
        <pt x="1346" y="1337" on="1"/>
        <pt x="1347" y="1335" on="0"/>
        <pt x="1353" y="1320" on="0"/>
        <pt x="1359" y="1301" on="0"/>
        <pt x="1364" y="1282" on="0"/>
        <pt x="1364" y="1278" on="1"/>
        <pt x="1364" y="1244" on="0"/>
        <pt x="1336" y="1149" on="0"/>
        <pt x="1287" y="1043" on="0"/>
        <pt x="1221" y="933" on="0"/>
        <pt x="1147" y="834" on="0"/>
        <pt x="1068" y="753" on="0"/>
        <pt x="1030" y="729" on="1"/>
        <pt x="1016" y="742" on="0"/>
        <pt x="977" y="778" on="0"/>
        <pt x="933" y="819" on="0"/>
        <pt x="889" y="861" on="0"/>
        <pt x="870" y="881" on="1"/>
        <pt x="899" y="904" on="0"/>
        <pt x="972" y="979" on="0"/>
        <pt x="1047" y="1071" on="0"/>
        <pt x="1119" y="1169" on="0"/>
        <pt x="1172" y="1260" on="0"/>
        <pt x="1202" y="1334" on="0"/>
        <pt x="1198" y="1356" on="1"/>
        <pt x="1195" y="1367" on="0"/>
        <pt x="1182" y="1376" on="0"/>
        <pt x="1165" y="1376" on="1"/>
        <pt x="1104" y="1376" on="0"/>
        <pt x="944" y="1328" on="0"/>
        <pt x="770" y="1237" on="0"/>
        <pt x="593" y="1105" on="0"/>
        <pt x="438" y="939" on="0"/>
        <pt x="317" y="741" on="0"/>
        <pt x="285" y="629" on="1"/>
        <pt x="355" y="630" on="0"/>
        <pt x="481" y="639" on="0"/>
        <pt x="595" y="649" on="0"/>
        <pt x="699" y="657" on="0"/>
        <pt x="748" y="657" on="1"/>
        <pt x="774" y="657" on="0"/>
        <pt x="834" y="601" on="0"/>
        <pt x="886" y="523" on="0"/>
        <pt x="920" y="441" on="0"/>
        <pt x="920" y="416" on="1"/>
        <pt x="920" y="345" on="0"/>
        <pt x="847" y="202" on="0"/>
        <pt x="724" y="69" on="0"/>
        <pt x="562" y="-46" on="0"/>
        <pt x="383" y="-131" on="0"/>
        <pt x="197" y="-180" on="0"/>
        <pt x="113" y="-180" on="1"/>
        <pt x="102" y="-171" on="0"/>
        <pt x="66" y="-134" on="0"/>
        <pt x="25" y="-89" on="0"/>
        <pt x="-18" y="-39" on="0"/>
        <pt x="-55" y="7" on="0"/>
        <pt x="-83" y="45" on="0"/>
        <pt x="-88" y="55" on="1"/>
        <pt x="-33" y="47" on="0"/>
        <pt x="122" y="55" on="0"/>
        <pt x="294" y="91" on="0"/>
        <pt x="469" y="158" on="0"/>
        <pt x="621" y="260" on="0"/>
        <pt x="737" y="401" on="0"/>
        <pt x="763" y="494" on="1"/>
        <pt x="705" y="493" on="0"/>
        <pt x="611" y="484" on="0"/>
        <pt x="523" y="473" on="0"/>
        <pt x="431" y="465" on="0"/>
        <pt x="375" y="465" on="1"/>
        <pt x="357" y="465" on="0"/>
        <pt x="315" y="466" on="0"/>
        <pt x="273" y="471" on="0"/>
        <pt x="235" y="483" on="0"/>
        <pt x="223" y="494" on="1"/>
        <pt x="196" y="517" on="0"/>
        <pt x="146" y="568" on="0"/>
        <pt x="106" y="621" on="0"/>
        <pt x="82" y="675" on="0"/>
        <pt x="82" y="700" on="1"/>
        <pt x="82" y="776" on="0"/>
        <pt x="158" y="963" on="0"/>
        <pt x="293" y="1153" on="0"/>
        <pt x="477" y="1332" on="0"/>
        <pt x="694" y="1472" on="0"/>
        <pt x="934" y="1556" on="0"/>
        <pt x="1057" y="1556" on="1"/>
        <pt x="1100" y="1556" on="0"/>
        <pt x="1171" y="1530" on="0"/>
        <pt x="1229" y="1488" on="0"/>
        <pt x="1275" y="1437" on="0"/>
        <pt x="1311" y="1389" on="0"/>
        <pt x="1337" y="1348" on="0"/>
      </contour>
    </TTGlyph>
    <TTGlyph name="Sacute" xMin="-88" yMin="-180" xMax="1364" yMax="1997">
      <component glyphName="S" x="0" y="0" flags="0x204"/>
      <component glyphName="acute" x="784" y="967" flags="0x4"/>
    </TTGlyph>
    <TTGlyph name="Scaron" xMin="-88" yMin="-180" xMax="1368" yMax="1966">
      <component glyphName="S" x="0" y="0" flags="0x204"/>
      <component glyphName="caron" x="690" y="967" flags="0x4"/>
    </TTGlyph>
    <TTGlyph name="Scedilla" xMin="-88" yMin="-541" xMax="1364" yMax="1556">
      <contour>
        <pt x="430" y="-309" on="1"/>
        <pt x="430" y="-341" on="0"/>
        <pt x="406" y="-414" on="0"/>
        <pt x="343" y="-479" on="0"/>
        <pt x="234" y="-530" on="0"/>
        <pt x="150" y="-541" on="1"/>
        <pt x="143" y="-533" on="0"/>
        <pt x="130" y="-502" on="0"/>
        <pt x="120" y="-467" on="0"/>
        <pt x="110" y="-433" on="0"/>
        <pt x="106" y="-422" on="1"/>
        <pt x="132" y="-419" on="0"/>
        <pt x="205" y="-405" on="0"/>
        <pt x="271" y="-381" on="0"/>
        <pt x="317" y="-346" on="0"/>
        <pt x="317" y="-322" on="1"/>
        <pt x="317" y="-320" on="0"/>
        <pt x="314" y="-311" on="0"/>
        <pt x="304" y="-302" on="0"/>
        <pt x="285" y="-295" on="0"/>
        <pt x="270" y="-295" on="1"/>
        <pt x="248" y="-295" on="0"/>
        <pt x="212" y="-299" on="0"/>
        <pt x="186" y="-302" on="0"/>
        <pt x="172" y="-303" on="0"/>
        <pt x="172" y="-299" on="1"/>
        <pt x="231" y="-168" on="1"/>
        <pt x="200" y="-173" on="0"/>
        <pt x="141" y="-180" on="0"/>
        <pt x="113" y="-180" on="1"/>
        <pt x="102" y="-171" on="0"/>
        <pt x="66" y="-134" on="0"/>
        <pt x="25" y="-89" on="0"/>
        <pt x="-18" y="-39" on="0"/>
        <pt x="-55" y="7" on="0"/>
        <pt x="-83" y="45" on="0"/>
        <pt x="-88" y="55" on="1"/>
        <pt x="-33" y="47" on="0"/>
        <pt x="122" y="55" on="0"/>
        <pt x="293" y="91" on="0"/>
        <pt x="468" y="157" on="0"/>
        <pt x="620" y="260" on="0"/>
        <pt x="736" y="401" on="0"/>
        <pt x="762" y="494" on="1"/>
        <pt x="704" y="492" on="0"/>
        <pt x="611" y="483" on="0"/>
        <pt x="522" y="473" on="0"/>
        <pt x="431" y="465" on="0"/>
        <pt x="375" y="465" on="1"/>
        <pt x="357" y="465" on="0"/>
        <pt x="315" y="466" on="0"/>
        <pt x="273" y="471" on="0"/>
        <pt x="235" y="483" on="0"/>
        <pt x="223" y="494" on="1"/>
        <pt x="196" y="517" on="0"/>
        <pt x="146" y="568" on="0"/>
        <pt x="106" y="621" on="0"/>
        <pt x="82" y="675" on="0"/>
        <pt x="82" y="700" on="1"/>
        <pt x="82" y="776" on="0"/>
        <pt x="158" y="963" on="0"/>
        <pt x="293" y="1153" on="0"/>
        <pt x="477" y="1332" on="0"/>
        <pt x="694" y="1472" on="0"/>
        <pt x="934" y="1556" on="0"/>
        <pt x="1057" y="1556" on="1"/>
        <pt x="1100" y="1556" on="0"/>
        <pt x="1171" y="1530" on="0"/>
        <pt x="1229" y="1488" on="0"/>
        <pt x="1275" y="1437" on="0"/>
        <pt x="1311" y="1389" on="0"/>
        <pt x="1337" y="1348" on="0"/>
        <pt x="1346" y="1337" on="1"/>
        <pt x="1347" y="1335" on="0"/>
        <pt x="1353" y="1320" on="0"/>
        <pt x="1359" y="1301" on="0"/>
        <pt x="1364" y="1282" on="0"/>
        <pt x="1364" y="1278" on="1"/>
        <pt x="1364" y="1244" on="0"/>
        <pt x="1336" y="1149" on="0"/>
        <pt x="1287" y="1043" on="0"/>
        <pt x="1221" y="933" on="0"/>
        <pt x="1147" y="834" on="0"/>
        <pt x="1068" y="753" on="0"/>
        <pt x="1030" y="729" on="1"/>
        <pt x="1016" y="742" on="0"/>
        <pt x="977" y="778" on="0"/>
        <pt x="933" y="819" on="0"/>
        <pt x="889" y="861" on="0"/>
        <pt x="870" y="881" on="1"/>
        <pt x="899" y="904" on="0"/>
        <pt x="972" y="979" on="0"/>
        <pt x="1047" y="1071" on="0"/>
        <pt x="1119" y="1169" on="0"/>
        <pt x="1172" y="1260" on="0"/>
        <pt x="1202" y="1334" on="0"/>
        <pt x="1198" y="1356" on="1"/>
        <pt x="1195" y="1367" on="0"/>
        <pt x="1182" y="1376" on="0"/>
        <pt x="1165" y="1376" on="1"/>
        <pt x="1104" y="1376" on="0"/>
        <pt x="945" y="1328" on="0"/>
        <pt x="770" y="1236" on="0"/>
        <pt x="594" y="1105" on="0"/>
        <pt x="439" y="939" on="0"/>
        <pt x="317" y="741" on="0"/>
        <pt x="285" y="629" on="1"/>
        <pt x="355" y="630" on="0"/>
        <pt x="480" y="639" on="0"/>
        <pt x="595" y="649" on="0"/>
        <pt x="699" y="657" on="0"/>
        <pt x="748" y="657" on="1"/>
        <pt x="774" y="657" on="0"/>
        <pt x="834" y="601" on="0"/>
        <pt x="886" y="523" on="0"/>
        <pt x="920" y="441" on="0"/>
        <pt x="920" y="416" on="1"/>
        <pt x="920" y="359" on="0"/>
        <pt x="872" y="243" on="0"/>
        <pt x="788" y="133" on="0"/>
        <pt x="673" y="31" on="0"/>
        <pt x="539" y="-56" on="0"/>
        <pt x="393" y="-125" on="0"/>
        <pt x="319" y="-147" on="1"/>
        <pt x="279" y="-242" on="1"/>
        <pt x="297" y="-237" on="0"/>
        <pt x="325" y="-231" on="0"/>
        <pt x="350" y="-231" on="1"/>
        <pt x="361" y="-231" on="0"/>
        <pt x="387" y="-245" on="0"/>
        <pt x="410" y="-267" on="0"/>
        <pt x="428" y="-295" on="0"/>
      </contour>
    </TTGlyph>
    <TTGlyph name="Scircumflex" xMin="-88" yMin="-180" xMax="1364" yMax="1981">
      <component glyphName="S" x="0" y="0" flags="0x204"/>
      <component glyphName="circumflex" x="690" y="967" flags="0x4"/>
    </TTGlyph>
    <TTGlyph name="T" xMin="82" yMin="-211" xMax="1524" yMax="1544">
      <contour>
        <pt x="1524" y="1270" on="1"/>
        <pt x="1475" y="1272" on="0"/>
        <pt x="1375" y="1278" on="0"/>
        <pt x="1261" y="1284" on="0"/>
        <pt x="1124" y="1288" on="0"/>
        <pt x="1038" y="1288" on="1"/>
        <pt x="928" y="1288" on="0"/>
        <pt x="722" y="1277" on="0"/>
        <pt x="520" y="1247" on="0"/>
        <pt x="318" y="1193" on="0"/>
        <pt x="212" y="1149" on="1"/>
        <pt x="255" y="1029" on="0"/>
        <pt x="307" y="799" on="0"/>
        <pt x="336" y="591" on="0"/>
        <pt x="346" y="409" on="0"/>
        <pt x="346" y="336" on="1"/>
        <pt x="346" y="267" on="0"/>
        <pt x="340" y="162" on="0"/>
        <pt x="336" y="127" on="1"/>
        <pt x="332" y="85" on="0"/>
        <pt x="326" y="55" on="1"/>
        <pt x="374" y="169" on="0"/>
        <pt x="465" y="424" on="0"/>
        <pt x="547" y="675" on="0"/>
        <pt x="617" y="909" on="0"/>
        <pt x="670" y="1095" on="0"/>
        <pt x="704" y="1220" on="0"/>
        <pt x="709" y="1237" on="1"/>
        <pt x="731" y="1219" on="0"/>
        <pt x="794" y="1163" on="0"/>
        <pt x="858" y="1103" on="0"/>
        <pt x="913" y="1048" on="0"/>
        <pt x="928" y="1030" on="1"/>
        <pt x="903" y="937" on="0"/>
        <pt x="821" y="713" on="0"/>
        <pt x="722" y="475" on="0"/>
        <pt x="614" y="236" on="0"/>
        <pt x="512" y="22" on="0"/>
        <pt x="425" y="-154" on="0"/>
        <pt x="397" y="-211" on="1"/>
        <pt x="382" y="-196" on="0"/>
        <pt x="338" y="-144" on="0"/>
        <pt x="292" y="-91" on="0"/>
        <pt x="253" y="-45" on="0"/>
        <pt x="244" y="-35" on="1"/>
        <pt x="246" y="-23" on="0"/>
        <pt x="257" y="36" on="0"/>
        <pt x="268" y="125" on="0"/>
        <pt x="276" y="243" on="0"/>
        <pt x="276" y="315" on="1"/>
        <pt x="276" y="397" on="0"/>
        <pt x="262" y="586" on="0"/>
        <pt x="221" y="790" on="0"/>
        <pt x="145" y="1006" on="0"/>
        <pt x="84" y="1116" on="1"/>
        <pt x="83" y="1116" on="0"/>
        <pt x="83" y="1117" on="1"/>
        <pt x="82" y="1118" on="0"/>
        <pt x="82" y="1122" on="1"/>
        <pt x="82" y="1132" on="0"/>
        <pt x="96" y="1167" on="0"/>
        <pt x="119" y="1208" on="0"/>
        <pt x="146" y="1249" on="0"/>
        <pt x="158" y="1264" on="1"/>
        <pt x="163" y="1270" on="0"/>
        <pt x="249" y="1315" on="0"/>
        <pt x="400" y="1377" on="0"/>
        <pt x="609" y="1447" on="0"/>
        <pt x="863" y="1506" on="0"/>
        <pt x="1156" y="1544" on="0"/>
        <pt x="1315" y="1544" on="1"/>
        <pt x="1322" y="1536" on="0"/>
        <pt x="1353" y="1499" on="0"/>
        <pt x="1393" y="1450" on="0"/>
        <pt x="1438" y="1393" on="0"/>
        <pt x="1480" y="1338" on="0"/>
        <pt x="1514" y="1288" on="0"/>
      </contour>
    </TTGlyph>
    <TTGlyph name="Tbar" xMin="82" yMin="-211" xMax="1524" yMax="1544">
      <contour>
        <pt x="1524" y="1270" on="1"/>
        <pt x="1475" y="1272" on="0"/>
        <pt x="1375" y="1278" on="0"/>
        <pt x="1261" y="1284" on="0"/>
        <pt x="1124" y="1288" on="0"/>
        <pt x="1038" y="1288" on="1"/>
        <pt x="928" y="1288" on="0"/>
        <pt x="722" y="1277" on="0"/>
        <pt x="520" y="1247" on="0"/>
        <pt x="318" y="1193" on="0"/>
        <pt x="212" y="1149" on="1"/>
        <pt x="255" y="1029" on="0"/>
        <pt x="307" y="799" on="0"/>
        <pt x="336" y="591" on="0"/>
        <pt x="346" y="409" on="0"/>
        <pt x="346" y="336" on="1"/>
        <pt x="346" y="267" on="0"/>
        <pt x="340" y="162" on="0"/>
        <pt x="336" y="127" on="1"/>
        <pt x="332" y="85" on="0"/>
        <pt x="326" y="55" on="1"/>
        <pt x="384" y="193" on="0"/>
        <pt x="491" y="501" on="0"/>
        <pt x="538" y="649" on="1"/>
        <pt x="500" y="649" on="0"/>
        <pt x="434" y="649" on="0"/>
        <pt x="383" y="650" on="0"/>
        <pt x="351" y="652" on="0"/>
        <pt x="348" y="653" on="1"/>
        <pt x="351" y="665" on="0"/>
        <pt x="364" y="689" on="0"/>
        <pt x="379" y="712" on="0"/>
        <pt x="394" y="733" on="0"/>
        <pt x="399" y="741" on="1"/>
        <pt x="407" y="744" on="0"/>
        <pt x="501" y="748" on="0"/>
        <pt x="570" y="750" on="1"/>
        <pt x="598" y="843" on="0"/>
        <pt x="646" y="1009" on="0"/>
        <pt x="682" y="1138" on="0"/>
        <pt x="705" y="1223" on="0"/>
        <pt x="709" y="1237" on="1"/>
        <pt x="731" y="1219" on="0"/>
        <pt x="794" y="1163" on="0"/>
        <pt x="858" y="1103" on="0"/>
        <pt x="913" y="1048" on="0"/>
        <pt x="928" y="1030" on="1"/>
        <pt x="911" y="968" on="0"/>
        <pt x="864" y="829" on="0"/>
        <pt x="835" y="753" on="1"/>
        <pt x="1079" y="754" on="1"/>
        <pt x="1071" y="719" on="0"/>
        <pt x="1036" y="672" on="0"/>
        <pt x="1024" y="653" on="1"/>
        <pt x="795" y="650" on="1"/>
        <pt x="744" y="525" on="0"/>
        <pt x="629" y="270" on="0"/>
        <pt x="521" y="40" on="0"/>
        <pt x="427" y="-151" on="0"/>
        <pt x="397" y="-211" on="1"/>
        <pt x="382" y="-196" on="0"/>
        <pt x="338" y="-144" on="0"/>
        <pt x="292" y="-91" on="0"/>
        <pt x="253" y="-45" on="0"/>
        <pt x="244" y="-35" on="1"/>
        <pt x="246" y="-23" on="0"/>
        <pt x="257" y="36" on="0"/>
        <pt x="268" y="125" on="0"/>
        <pt x="276" y="243" on="0"/>
        <pt x="276" y="315" on="1"/>
        <pt x="276" y="397" on="0"/>
        <pt x="262" y="586" on="0"/>
        <pt x="221" y="790" on="0"/>
        <pt x="145" y="1006" on="0"/>
        <pt x="84" y="1116" on="1"/>
        <pt x="84" y="1118" on="0"/>
        <pt x="82" y="1119" on="0"/>
        <pt x="82" y="1122" on="1"/>
        <pt x="82" y="1132" on="0"/>
        <pt x="96" y="1167" on="0"/>
        <pt x="119" y="1208" on="0"/>
        <pt x="146" y="1249" on="0"/>
        <pt x="158" y="1264" on="1"/>
        <pt x="163" y="1270" on="0"/>
        <pt x="249" y="1315" on="0"/>
        <pt x="400" y="1377" on="0"/>
        <pt x="609" y="1447" on="0"/>
        <pt x="863" y="1506" on="0"/>
        <pt x="1156" y="1544" on="0"/>
        <pt x="1315" y="1544" on="1"/>
        <pt x="1322" y="1536" on="0"/>
        <pt x="1353" y="1499" on="0"/>
        <pt x="1393" y="1450" on="0"/>
        <pt x="1438" y="1393" on="0"/>
        <pt x="1480" y="1338" on="0"/>
        <pt x="1514" y="1288" on="0"/>
      </contour>
    </TTGlyph>
    <TTGlyph name="Tcaron" xMin="82" yMin="-211" xMax="1524" yMax="1955">
      <component glyphName="T" x="0" y="0" flags="0x204"/>
      <component glyphName="caron" x="575" y="956" flags="0x4"/>
    </TTGlyph>
    <TTGlyph name="Tcommaaccent" xMin="82" yMin="-654" xMax="1524" yMax="1544">
      <component glyphName="T" x="0" y="0" flags="0x204"/>
      <component glyphName="commaaccent" x="207" y="-122" flags="0x4"/>
    </TTGlyph>
    <TTGlyph name="Thorn" xMin="-163" yMin="-214" xMax="1288" yMax="1630">
      <contour>
        <pt x="1288" y="922" on="1"/>
        <pt x="1288" y="850" on="0"/>
        <pt x="1240" y="706" on="0"/>
        <pt x="1157" y="570" on="0"/>
        <pt x="1045" y="447" on="0"/>
        <pt x="916" y="342" on="0"/>
        <pt x="778" y="259" on="0"/>
        <pt x="711" y="233" on="1"/>
        <pt x="700" y="249" on="0"/>
        <pt x="667" y="294" on="0"/>
        <pt x="629" y="343" on="0"/>
        <pt x="589" y="393" on="0"/>
        <pt x="571" y="414" on="1"/>
        <pt x="714" y="470" on="0"/>
        <pt x="935" y="610" on="0"/>
        <pt x="1087" y="764" on="0"/>
        <pt x="1165" y="924" on="0"/>
        <pt x="1165" y="999" on="1"/>
        <pt x="1165" y="1009" on="0"/>
        <pt x="1159" y="1031" on="0"/>
        <pt x="1145" y="1047" on="0"/>
        <pt x="1122" y="1055" on="0"/>
        <pt x="1106" y="1051" on="1"/>
        <pt x="1016" y="1031" on="0"/>
        <pt x="813" y="935" on="0"/>
        <pt x="707" y="866" on="1"/>
        <pt x="667" y="756" on="0"/>
        <pt x="575" y="530" on="0"/>
        <pt x="474" y="314" on="0"/>
        <pt x="366" y="117" on="0"/>
        <pt x="258" y="-44" on="0"/>
        <pt x="151" y="-161" on="0"/>
        <pt x="100" y="-188" on="1"/>
        <pt x="85" y="-196" on="0"/>
        <pt x="42" y="-210" on="0"/>
        <pt x="10" y="-213" on="1"/>
        <pt x="-2" y="-214" on="0"/>
        <pt x="-35" y="-192" on="0"/>
        <pt x="-69" y="-158" on="0"/>
        <pt x="-103" y="-116" on="0"/>
        <pt x="-132" y="-78" on="0"/>
        <pt x="-151" y="-48" on="0"/>
        <pt x="-154" y="-43" on="1"/>
        <pt x="-162" y="-28" on="0"/>
        <pt x="-163" y="13" on="0"/>
        <pt x="-158" y="33" on="1"/>
        <pt x="-126" y="138" on="0"/>
        <pt x="-8" y="368" on="0"/>
        <pt x="152" y="595" on="0"/>
        <pt x="347" y="807" on="0"/>
        <pt x="456" y="894" on="1"/>
        <pt x="493" y="998" on="0"/>
        <pt x="557" y="1204" on="0"/>
        <pt x="606" y="1395" on="0"/>
        <pt x="637" y="1563" on="0"/>
        <pt x="641" y="1630" on="1"/>
        <pt x="681" y="1614" on="0"/>
        <pt x="753" y="1565" on="0"/>
        <pt x="811" y="1510" on="0"/>
        <pt x="855" y="1457" on="0"/>
        <pt x="868" y="1436" on="1"/>
        <pt x="860" y="1373" on="0"/>
        <pt x="815" y="1196" on="0"/>
        <pt x="783" y="1090" on="1"/>
        <pt x="857" y="1120" on="0"/>
        <pt x="1005" y="1153" on="0"/>
        <pt x="1079" y="1153" on="1"/>
        <pt x="1098" y="1153" on="0"/>
        <pt x="1143" y="1129" on="0"/>
        <pt x="1189" y="1090" on="0"/>
        <pt x="1232" y="1042" on="0"/>
        <pt x="1266" y="993" on="0"/>
        <pt x="1287" y="950" on="0"/>
        <pt x="1288" y="936" on="1"/>
      </contour>
      <contour>
        <pt x="4" y="-8" on="1"/>
        <pt x="25" y="-8" on="0"/>
        <pt x="95" y="80" on="0"/>
        <pt x="181" y="233" on="0"/>
        <pt x="278" y="439" on="0"/>
        <pt x="327" y="558" on="1"/>
        <pt x="255" y="486" on="0"/>
        <pt x="132" y="338" on="0"/>
        <pt x="44" y="195" on="0"/>
        <pt x="-6" y="61" on="0"/>
        <pt x="-6" y="4" on="1"/>
        <pt x="-6" y="-8" on="0"/>
      </contour>
    </TTGlyph>
    <TTGlyph name="U" xMin="53" yMin="-225" xMax="1346" yMax="1561">
      <contour>
        <pt x="678" y="-74" on="1"/>
        <pt x="730" y="76" on="0"/>
        <pt x="830" y="307" on="0"/>
        <pt x="873" y="403" on="1"/>
        <pt x="824" y="329" on="0"/>
        <pt x="739" y="217" on="0"/>
        <pt x="707" y="179" on="1"/>
        <pt x="669" y="134" on="0"/>
        <pt x="637" y="102" on="1"/>
        <pt x="561" y="29" on="0"/>
        <pt x="442" y="-77" on="0"/>
        <pt x="349" y="-146" on="0"/>
        <pt x="279" y="-180" on="0"/>
        <pt x="252" y="-180" on="1"/>
        <pt x="231" y="-180" on="0"/>
        <pt x="184" y="-151" on="0"/>
        <pt x="139" y="-108" on="0"/>
        <pt x="99" y="-60" on="0"/>
        <pt x="84" y="-41" on="1"/>
        <pt x="59" y="-9" on="0"/>
        <pt x="53" y="93" on="0"/>
        <pt x="53" y="168" on="1"/>
        <pt x="53" y="283" on="0"/>
        <pt x="92" y="535" on="0"/>
        <pt x="164" y="790" on="0"/>
        <pt x="266" y="1043" on="0"/>
        <pt x="392" y="1276" on="0"/>
        <pt x="538" y="1480" on="0"/>
        <pt x="618" y="1561" on="1"/>
        <pt x="639" y="1539" on="0"/>
        <pt x="693" y="1482" on="0"/>
        <pt x="748" y="1422" on="0"/>
        <pt x="799" y="1363" on="0"/>
        <pt x="817" y="1341" on="1"/>
        <pt x="732" y="1264" on="0"/>
        <pt x="583" y="1071" on="0"/>
        <pt x="459" y="852" on="0"/>
        <pt x="361" y="615" on="0"/>
        <pt x="294" y="372" on="0"/>
        <pt x="257" y="130" on="0"/>
        <pt x="256" y="17" on="1"/>
        <pt x="367" y="73" on="0"/>
        <pt x="553" y="233" on="0"/>
        <pt x="708" y="422" on="0"/>
        <pt x="835" y="630" on="0"/>
        <pt x="938" y="842" on="0"/>
        <pt x="1019" y="1048" on="0"/>
        <pt x="1085" y="1230" on="0"/>
        <pt x="1136" y="1380" on="0"/>
        <pt x="1157" y="1430" on="1"/>
        <pt x="1167" y="1415" on="0"/>
        <pt x="1201" y="1371" on="0"/>
        <pt x="1240" y="1320" on="0"/>
        <pt x="1281" y="1268" on="0"/>
        <pt x="1316" y="1223" on="0"/>
        <pt x="1342" y="1190" on="0"/>
        <pt x="1346" y="1184" on="1"/>
        <pt x="1292" y="1045" on="0"/>
        <pt x="1206" y="800" on="0"/>
        <pt x="1132" y="575" on="0"/>
        <pt x="1067" y="360" on="0"/>
        <pt x="1001" y="139" on="0"/>
        <pt x="928" y="-94" on="0"/>
        <pt x="885" y="-225" on="1"/>
      </contour>
    </TTGlyph>
    <TTGlyph name="Uacute" xMin="53" yMin="-225" xMax="1346" yMax="1966">
      <component glyphName="U" x="0" y="0" flags="0x204"/>
      <component glyphName="acute" x="805" y="936" flags="0x4"/>
    </TTGlyph>
    <TTGlyph name="Ubreve" xMin="53" yMin="-225" xMax="1350" yMax="1901">
      <component glyphName="U" x="0" y="0" flags="0x204"/>
      <component glyphName="breve" x="707" y="936" flags="0x4"/>
    </TTGlyph>
    <TTGlyph name="Ucircumflex" xMin="53" yMin="-225" xMax="1346" yMax="1950">
      <component glyphName="U" x="0" y="0" flags="0x204"/>
      <component glyphName="circumflex" x="711" y="936" flags="0x4"/>
    </TTGlyph>
    <TTGlyph name="Udieresis" xMin="53" yMin="-225" xMax="1383" yMax="1911">
      <component glyphName="U" x="0" y="0" flags="0x204"/>
      <component glyphName="dieresis" x="711" y="936" flags="0x4"/>
    </TTGlyph>
    <TTGlyph name="Ugrave" xMin="53" yMin="-225" xMax="1346" yMax="1964">
      <component glyphName="U" x="0" y="0" flags="0x204"/>
      <component glyphName="grave" x="711" y="936" flags="0x4"/>
    </TTGlyph>
    <TTGlyph name="Uhungarumlaut" xMin="53" yMin="-225" xMax="1411" yMax="1966">
      <component glyphName="U" x="0" y="0" flags="0x204"/>
      <component glyphName="hungarumlaut" x="676" y="936" flags="0x4"/>
    </TTGlyph>
    <TTGlyph name="Umacron" xMin="53" yMin="-225" xMax="1370" yMax="1845">
      <component glyphName="U" x="0" y="0" flags="0x204"/>
      <component glyphName="macron" x="711" y="936" flags="0x4"/>
    </TTGlyph>
    <TTGlyph name="Uogonek" xMin="53" yMin="-532" xMax="1346" yMax="1561">
      <contour>
        <pt x="961" y="-487" on="1"/>
        <pt x="933" y="-503" on="0"/>
        <pt x="838" y="-532" on="0"/>
        <pt x="776" y="-532" on="1"/>
        <pt x="760" y="-532" on="0"/>
        <pt x="716" y="-507" on="0"/>
        <pt x="675" y="-472" on="0"/>
        <pt x="647" y="-433" on="0"/>
        <pt x="647" y="-418" on="1"/>
        <pt x="647" y="-381" on="0"/>
        <pt x="678" y="-309" on="0"/>
        <pt x="727" y="-245" on="0"/>
        <pt x="786" y="-192" on="0"/>
        <pt x="815" y="-174" on="1"/>
        <pt x="678" y="-74" on="1"/>
        <pt x="730" y="77" on="0"/>
        <pt x="831" y="311" on="0"/>
        <pt x="874" y="406" on="1"/>
        <pt x="825" y="331" on="0"/>
        <pt x="739" y="218" on="0"/>
        <pt x="707" y="180" on="1"/>
        <pt x="669" y="135" on="0"/>
        <pt x="637" y="102" on="1"/>
        <pt x="561" y="29" on="0"/>
        <pt x="442" y="-77" on="0"/>
        <pt x="349" y="-146" on="0"/>
        <pt x="279" y="-180" on="0"/>
        <pt x="252" y="-180" on="1"/>
        <pt x="231" y="-180" on="0"/>
        <pt x="184" y="-151" on="0"/>
        <pt x="139" y="-108" on="0"/>
        <pt x="99" y="-60" on="0"/>
        <pt x="84" y="-41" on="1"/>
        <pt x="59" y="-9" on="0"/>
        <pt x="53" y="93" on="0"/>
        <pt x="53" y="168" on="1"/>
        <pt x="53" y="283" on="0"/>
        <pt x="92" y="535" on="0"/>
        <pt x="164" y="790" on="0"/>
        <pt x="266" y="1043" on="0"/>
        <pt x="392" y="1276" on="0"/>
        <pt x="538" y="1480" on="0"/>
        <pt x="618" y="1561" on="1"/>
        <pt x="639" y="1539" on="0"/>
        <pt x="693" y="1482" on="0"/>
        <pt x="748" y="1422" on="0"/>
        <pt x="799" y="1363" on="0"/>
        <pt x="817" y="1341" on="1"/>
        <pt x="732" y="1264" on="0"/>
        <pt x="582" y="1070" on="0"/>
        <pt x="458" y="851" on="0"/>
        <pt x="361" y="614" on="0"/>
        <pt x="293" y="371" on="0"/>
        <pt x="257" y="129" on="0"/>
        <pt x="256" y="16" on="1"/>
        <pt x="367" y="72" on="0"/>
        <pt x="553" y="232" on="0"/>
        <pt x="708" y="421" on="0"/>
        <pt x="835" y="630" on="0"/>
        <pt x="938" y="842" on="0"/>
        <pt x="1019" y="1048" on="0"/>
        <pt x="1084" y="1230" on="0"/>
        <pt x="1136" y="1380" on="0"/>
        <pt x="1157" y="1430" on="1"/>
        <pt x="1167" y="1415" on="0"/>
        <pt x="1201" y="1371" on="0"/>
        <pt x="1240" y="1320" on="0"/>
        <pt x="1281" y="1268" on="0"/>
        <pt x="1316" y="1223" on="0"/>
        <pt x="1342" y="1190" on="0"/>
        <pt x="1346" y="1184" on="1"/>
        <pt x="1292" y="1045" on="0"/>
        <pt x="1206" y="800" on="0"/>
        <pt x="1132" y="575" on="0"/>
        <pt x="1067" y="360" on="0"/>
        <pt x="1001" y="139" on="0"/>
        <pt x="928" y="-94" on="0"/>
        <pt x="885" y="-225" on="1"/>
        <pt x="857" y="-239" on="0"/>
        <pt x="811" y="-278" on="0"/>
        <pt x="778" y="-319" on="0"/>
        <pt x="760" y="-360" on="0"/>
        <pt x="760" y="-375" on="1"/>
        <pt x="760" y="-389" on="0"/>
        <pt x="778" y="-403" on="0"/>
        <pt x="791" y="-403" on="1"/>
        <pt x="801" y="-403" on="0"/>
        <pt x="836" y="-396" on="0"/>
        <pt x="875" y="-384" on="0"/>
        <pt x="915" y="-367" on="0"/>
        <pt x="932" y="-358" on="1"/>
        <pt x="935" y="-370" on="0"/>
        <pt x="943" y="-408" on="0"/>
        <pt x="951" y="-447" on="0"/>
        <pt x="958" y="-480" on="0"/>
      </contour>
    </TTGlyph>
    <TTGlyph name="Uring" xMin="53" yMin="-225" xMax="1346" yMax="1970">
      <component glyphName="U" x="0" y="0" flags="0x204"/>
      <component glyphName="ring" x="680" y="936" flags="0x4"/>
    </TTGlyph>
    <TTGlyph name="Utilde" xMin="53" yMin="-225" xMax="1430" yMax="1903">
      <component glyphName="U" x="0" y="0" flags="0x204"/>
      <component glyphName="tilde" x="711" y="936" flags="0x4"/>
    </TTGlyph>
    <TTGlyph name="V" xMin="63" yMin="-182" xMax="1329" yMax="1544">
      <contour>
        <pt x="1329" y="1251" on="1"/>
        <pt x="1296" y="1075" on="0"/>
        <pt x="1154" y="744" on="0"/>
        <pt x="967" y="449" on="0"/>
        <pt x="748" y="195" on="0"/>
        <pt x="529" y="-4" on="0"/>
        <pt x="325" y="-142" on="0"/>
        <pt x="246" y="-174" on="1"/>
        <pt x="235" y="-179" on="0"/>
        <pt x="218" y="-182" on="0"/>
        <pt x="215" y="-182" on="1"/>
        <pt x="195" y="-182" on="0"/>
        <pt x="152" y="-150" on="0"/>
        <pt x="113" y="-108" on="0"/>
        <pt x="84" y="-66" on="0"/>
        <pt x="78" y="-55" on="1"/>
        <pt x="73" y="-47" on="0"/>
        <pt x="63" y="-16" on="0"/>
        <pt x="63" y="4" on="1"/>
        <pt x="63" y="56" on="0"/>
        <pt x="85" y="233" on="0"/>
        <pt x="127" y="461" on="0"/>
        <pt x="184" y="729" on="0"/>
        <pt x="256" y="1015" on="0"/>
        <pt x="338" y="1310" on="0"/>
        <pt x="383" y="1450" on="1"/>
        <pt x="398" y="1434" on="0"/>
        <pt x="442" y="1382" on="0"/>
        <pt x="490" y="1323" on="0"/>
        <pt x="537" y="1263" on="0"/>
        <pt x="574" y="1215" on="0"/>
        <pt x="596" y="1184" on="0"/>
        <pt x="596" y="1184" on="1"/>
        <pt x="542" y="1026" on="0"/>
        <pt x="449" y="708" on="0"/>
        <pt x="368" y="403" on="0"/>
        <pt x="298" y="119" on="0"/>
        <pt x="268" y="-5" on="1"/>
        <pt x="386" y="67" on="0"/>
        <pt x="593" y="265" on="0"/>
        <pt x="767" y="498" on="0"/>
        <pt x="904" y="757" on="0"/>
        <pt x="999" y="1022" on="0"/>
        <pt x="1049" y="1283" on="0"/>
        <pt x="1049" y="1403" on="1"/>
        <pt x="1049" y="1437" on="0"/>
        <pt x="1044" y="1486" on="0"/>
        <pt x="1038" y="1520" on="0"/>
        <pt x="1033" y="1539" on="0"/>
        <pt x="1032" y="1544" on="1"/>
      </contour>
    </TTGlyph>
    <TTGlyph name="W" xMin="63" yMin="-182" xMax="1880" yMax="1544">
      <contour>
        <pt x="903" y="57" on="1"/>
        <pt x="903" y="37" on="0"/>
        <pt x="903" y="6" on="0"/>
        <pt x="904" y="-5" on="1"/>
        <pt x="999" y="62" on="0"/>
        <pt x="1176" y="257" on="0"/>
        <pt x="1330" y="490" on="0"/>
        <pt x="1458" y="752" on="0"/>
        <pt x="1549" y="1021" on="0"/>
        <pt x="1599" y="1284" on="0"/>
        <pt x="1599" y="1403" on="1"/>
        <pt x="1599" y="1437" on="0"/>
        <pt x="1595" y="1486" on="0"/>
        <pt x="1589" y="1520" on="0"/>
        <pt x="1584" y="1539" on="0"/>
        <pt x="1583" y="1544" on="1"/>
        <pt x="1880" y="1251" on="1"/>
        <pt x="1849" y="1075" on="0"/>
        <pt x="1719" y="744" on="0"/>
        <pt x="1547" y="449" on="0"/>
        <pt x="1348" y="195" on="0"/>
        <pt x="1147" y="-4" on="0"/>
        <pt x="958" y="-142" on="0"/>
        <pt x="883" y="-174" on="1"/>
        <pt x="873" y="-179" on="0"/>
        <pt x="857" y="-182" on="0"/>
        <pt x="854" y="-182" on="1"/>
        <pt x="834" y="-182" on="0"/>
        <pt x="793" y="-155" on="0"/>
        <pt x="758" y="-118" on="0"/>
        <pt x="731" y="-81" on="0"/>
        <pt x="725" y="-70" on="1"/>
        <pt x="723" y="-66" on="0"/>
        <pt x="716" y="-48" on="0"/>
        <pt x="710" y="-25" on="0"/>
        <pt x="705" y="-2" on="0"/>
        <pt x="705" y="8" on="1"/>
        <pt x="705" y="36" on="0"/>
        <pt x="708" y="121" on="0"/>
        <pt x="710" y="173" on="1"/>
        <pt x="457" y="-86" on="0"/>
        <pt x="246" y="-174" on="1"/>
        <pt x="235" y="-179" on="0"/>
        <pt x="218" y="-182" on="0"/>
        <pt x="215" y="-182" on="1"/>
        <pt x="195" y="-182" on="0"/>
        <pt x="152" y="-150" on="0"/>
        <pt x="113" y="-108" on="0"/>
        <pt x="84" y="-66" on="0"/>
        <pt x="78" y="-55" on="1"/>
        <pt x="73" y="-47" on="0"/>
        <pt x="63" y="-16" on="0"/>
        <pt x="63" y="4" on="1"/>
        <pt x="63" y="56" on="0"/>
        <pt x="85" y="233" on="0"/>
        <pt x="127" y="461" on="0"/>
        <pt x="184" y="729" on="0"/>
        <pt x="256" y="1015" on="0"/>
        <pt x="338" y="1310" on="0"/>
        <pt x="383" y="1450" on="1"/>
        <pt x="398" y="1434" on="0"/>
        <pt x="442" y="1382" on="0"/>
        <pt x="490" y="1323" on="0"/>
        <pt x="537" y="1263" on="0"/>
        <pt x="574" y="1215" on="0"/>
        <pt x="596" y="1184" on="0"/>
        <pt x="596" y="1184" on="1"/>
        <pt x="542" y="1026" on="0"/>
        <pt x="447" y="700" on="0"/>
        <pt x="364" y="386" on="0"/>
        <pt x="292" y="94" on="0"/>
        <pt x="262" y="-30" on="1"/>
        <pt x="393" y="50" on="0"/>
        <pt x="631" y="271" on="0"/>
        <pt x="727" y="404" on="1"/>
        <pt x="736" y="497" on="0"/>
        <pt x="763" y="678" on="0"/>
        <pt x="799" y="822" on="0"/>
        <pt x="845" y="911" on="0"/>
        <pt x="874" y="911" on="1"/>
        <pt x="887" y="911" on="0"/>
        <pt x="936" y="877" on="0"/>
        <pt x="987" y="830" on="0"/>
        <pt x="1032" y="783" on="0"/>
        <pt x="1042" y="770" on="1"/>
        <pt x="1047" y="764" on="0"/>
        <pt x="1057" y="741" on="0"/>
        <pt x="1057" y="721" on="1"/>
        <pt x="1057" y="673" on="0"/>
        <pt x="1039" y="593" on="0"/>
        <pt x="1005" y="520" on="0"/>
        <pt x="958" y="448" on="0"/>
        <pt x="930" y="408" on="1"/>
        <pt x="922" y="353" on="0"/>
        <pt x="916" y="294" on="1"/>
        <pt x="911" y="243" on="0"/>
        <pt x="903" y="119" on="0"/>
      </contour>
    </TTGlyph>
    <TTGlyph name="Wacute" xMin="63" yMin="-182" xMax="1880" yMax="1870">
      <component glyphName="W" x="0" y="0" flags="0x204"/>
      <component glyphName="acute" x="850" y="840" flags="0x4"/>
    </TTGlyph>
    <TTGlyph name="Wcircumflex" xMin="63" yMin="-182" xMax="1880" yMax="1854">
      <component glyphName="W" x="0" y="0" flags="0x204"/>
      <component glyphName="circumflex" x="756" y="840" flags="0x4"/>
    </TTGlyph>
    <TTGlyph name="Wdieresis" xMin="63" yMin="-182" xMax="1880" yMax="1815">
      <component glyphName="W" x="0" y="0" flags="0x204"/>
      <component glyphName="dieresis" x="756" y="840" flags="0x4"/>
    </TTGlyph>
    <TTGlyph name="Wgrave" xMin="63" yMin="-182" xMax="1880" yMax="1868">
      <component glyphName="W" x="0" y="0" flags="0x204"/>
      <component glyphName="grave" x="756" y="840" flags="0x4"/>
    </TTGlyph>
    <TTGlyph name="X" xMin="-246" yMin="-313" xMax="1268" yMax="1620">
      <contour>
        <pt x="809" y="-276" on="1"/>
        <pt x="788" y="-283" on="0"/>
        <pt x="742" y="-295" on="0"/>
        <pt x="699" y="-304" on="0"/>
        <pt x="661" y="-311" on="0"/>
        <pt x="649" y="-313" on="1"/>
        <pt x="590" y="-161" on="0"/>
        <pt x="485" y="148" on="0"/>
        <pt x="439" y="306" on="1"/>
        <pt x="310" y="183" on="0"/>
        <pt x="21" y="-53" on="0"/>
        <pt x="-147" y="-170" on="1"/>
        <pt x="-158" y="-159" on="0"/>
        <pt x="-186" y="-126" on="0"/>
        <pt x="-214" y="-93" on="0"/>
        <pt x="-239" y="-63" on="0"/>
        <pt x="-246" y="-55" on="1"/>
        <pt x="-63" y="73" on="0"/>
        <pt x="250" y="355" on="0"/>
        <pt x="385" y="504" on="1"/>
        <pt x="329" y="713" on="0"/>
        <pt x="244" y="1125" on="0"/>
        <pt x="215" y="1329" on="1"/>
        <pt x="235" y="1319" on="0"/>
        <pt x="296" y="1288" on="0"/>
        <pt x="364" y="1251" on="0"/>
        <pt x="433" y="1214" on="0"/>
        <pt x="490" y="1182" on="0"/>
        <pt x="528" y="1161" on="0"/>
        <pt x="532" y="1159" on="1"/>
        <pt x="545" y="938" on="0"/>
        <pt x="574" y="730" on="1"/>
        <pt x="755" y="966" on="0"/>
        <pt x="999" y="1423" on="0"/>
        <pt x="1065" y="1620" on="1"/>
        <pt x="1086" y="1596" on="0"/>
        <pt x="1146" y="1519" on="0"/>
        <pt x="1206" y="1437" on="0"/>
        <pt x="1256" y="1363" on="0"/>
        <pt x="1268" y="1341" on="1"/>
        <pt x="1128" y="1118" on="0"/>
        <pt x="809" y="688" on="0"/>
        <pt x="614" y="481" on="1"/>
        <pt x="649" y="294" on="0"/>
        <pt x="744" y="-77" on="0"/>
      </contour>
    </TTGlyph>
    <TTGlyph name="Y" xMin="53" yMin="-1004" xMax="1346" yMax="1561">
      <contour>
        <pt x="590" y="-1004" on="1"/>
        <pt x="558" y="-972" on="0"/>
        <pt x="503" y="-914" on="0"/>
        <pt x="449" y="-858" on="0"/>
        <pt x="392" y="-800" on="0"/>
        <pt x="360" y="-768" on="1"/>
        <pt x="402" y="-644" on="0"/>
        <pt x="498" y="-393" on="0"/>
        <pt x="616" y="-117" on="0"/>
        <pt x="762" y="193" on="0"/>
        <pt x="855" y="377" on="1"/>
        <pt x="809" y="309" on="0"/>
        <pt x="730" y="207" on="0"/>
        <pt x="701" y="172" on="1"/>
        <pt x="667" y="132" on="0"/>
        <pt x="637" y="102" on="1"/>
        <pt x="561" y="29" on="0"/>
        <pt x="442" y="-77" on="0"/>
        <pt x="349" y="-146" on="0"/>
        <pt x="279" y="-180" on="0"/>
        <pt x="252" y="-180" on="1"/>
        <pt x="231" y="-180" on="0"/>
        <pt x="184" y="-151" on="0"/>
        <pt x="139" y="-108" on="0"/>
        <pt x="99" y="-60" on="0"/>
        <pt x="84" y="-41" on="1"/>
        <pt x="59" y="-9" on="0"/>
        <pt x="53" y="93" on="0"/>
        <pt x="53" y="168" on="1"/>
        <pt x="53" y="283" on="0"/>
        <pt x="92" y="535" on="0"/>
        <pt x="164" y="790" on="0"/>
        <pt x="266" y="1043" on="0"/>
        <pt x="392" y="1276" on="0"/>
        <pt x="538" y="1480" on="0"/>
        <pt x="618" y="1561" on="1"/>
        <pt x="639" y="1539" on="0"/>
        <pt x="693" y="1482" on="0"/>
        <pt x="748" y="1422" on="0"/>
        <pt x="799" y="1363" on="0"/>
        <pt x="817" y="1341" on="1"/>
        <pt x="732" y="1264" on="0"/>
        <pt x="583" y="1071" on="0"/>
        <pt x="459" y="852" on="0"/>
        <pt x="361" y="615" on="0"/>
        <pt x="294" y="372" on="0"/>
        <pt x="257" y="130" on="0"/>
        <pt x="256" y="17" on="1"/>
        <pt x="367" y="73" on="0"/>
        <pt x="553" y="233" on="0"/>
        <pt x="708" y="422" on="0"/>
        <pt x="835" y="630" on="0"/>
        <pt x="938" y="842" on="0"/>
        <pt x="1019" y="1048" on="0"/>
        <pt x="1085" y="1230" on="0"/>
        <pt x="1136" y="1380" on="0"/>
        <pt x="1157" y="1430" on="1"/>
        <pt x="1167" y="1415" on="0"/>
        <pt x="1201" y="1371" on="0"/>
        <pt x="1240" y="1320" on="0"/>
        <pt x="1281" y="1268" on="0"/>
        <pt x="1316" y="1223" on="0"/>
        <pt x="1342" y="1190" on="0"/>
        <pt x="1346" y="1184" on="1"/>
        <pt x="1293" y="1058" on="0"/>
        <pt x="1190" y="807" on="0"/>
        <pt x="1082" y="528" on="0"/>
        <pt x="966" y="204" on="0"/>
        <pt x="833" y="-198" on="0"/>
        <pt x="680" y="-694" on="0"/>
      </contour>
    </TTGlyph>
    <TTGlyph name="Yacute" xMin="53" yMin="-1004" xMax="1346" yMax="1986">
      <component glyphName="Y" x="0" y="0" flags="0x204"/>
      <component glyphName="acute" x="750" y="956" flags="0x4"/>
    </TTGlyph>
    <TTGlyph name="Ycircumflex" xMin="53" yMin="-1004" xMax="1346" yMax="1970">
      <component glyphName="Y" x="0" y="0" flags="0x204"/>
      <component glyphName="circumflex" x="655" y="956" flags="0x4"/>
    </TTGlyph>
    <TTGlyph name="Ydieresis" xMin="53" yMin="-1004" xMax="1346" yMax="1931">
      <component glyphName="Y" x="0" y="0" flags="0x204"/>
      <component glyphName="dieresis" x="655" y="956" flags="0x4"/>
    </TTGlyph>
    <TTGlyph name="Ygrave" xMin="53" yMin="-1004" xMax="1346" yMax="1984">
      <component glyphName="Y" x="0" y="0" flags="0x204"/>
      <component glyphName="grave" x="655" y="956" flags="0x4"/>
    </TTGlyph>
    <TTGlyph name="Z" xMin="-225" yMin="-215" xMax="1260" yMax="1438">
      <contour>
        <pt x="1260" y="1217" on="1"/>
        <pt x="1205" y="1139" on="0"/>
        <pt x="1058" y="970" on="0"/>
        <pt x="886" y="796" on="0"/>
        <pt x="698" y="622" on="0"/>
        <pt x="507" y="458" on="0"/>
        <pt x="322" y="307" on="0"/>
        <pt x="156" y="180" on="0"/>
        <pt x="16" y="80" on="0"/>
        <pt x="-33" y="49" on="1"/>
        <pt x="26" y="51" on="0"/>
        <pt x="182" y="54" on="0"/>
        <pt x="354" y="58" on="0"/>
        <pt x="529" y="65" on="0"/>
        <pt x="684" y="77" on="0"/>
        <pt x="808" y="95" on="0"/>
        <pt x="842" y="109" on="1"/>
        <pt x="817" y="77" on="0"/>
        <pt x="757" y="-7" on="0"/>
        <pt x="694" y="-97" on="0"/>
        <pt x="632" y="-183" on="0"/>
        <pt x="606" y="-215" on="1"/>
        <pt x="559" y="-212" on="0"/>
        <pt x="403" y="-199" on="0"/>
        <pt x="218" y="-182" on="0"/>
        <pt x="23" y="-161" on="0"/>
        <pt x="-63" y="-150" on="1"/>
        <pt x="-89" y="-124" on="0"/>
        <pt x="-135" y="-67" on="0"/>
        <pt x="-176" y="-11" on="0"/>
        <pt x="-211" y="39" on="0"/>
        <pt x="-225" y="59" on="1"/>
        <pt x="-101" y="168" on="0"/>
        <pt x="176" y="414" on="0"/>
        <pt x="470" y="697" on="0"/>
        <pt x="774" y="1025" on="0"/>
        <pt x="925" y="1217" on="1"/>
        <pt x="857" y="1202" on="0"/>
        <pt x="714" y="1181" on="0"/>
        <pt x="571" y="1167" on="0"/>
        <pt x="432" y="1158" on="0"/>
        <pt x="369" y="1155" on="1"/>
        <pt x="346" y="1176" on="0"/>
        <pt x="270" y="1250" on="0"/>
        <pt x="191" y="1332" on="0"/>
        <pt x="118" y="1411" on="0"/>
        <pt x="98" y="1438" on="1"/>
        <pt x="120" y="1434" on="0"/>
        <pt x="194" y="1424" on="0"/>
        <pt x="304" y="1415" on="0"/>
        <pt x="455" y="1409" on="0"/>
        <pt x="555" y="1409" on="1"/>
        <pt x="666" y="1409" on="0"/>
        <pt x="826" y="1413" on="0"/>
        <pt x="938" y="1420" on="0"/>
        <pt x="1008" y="1427" on="0"/>
        <pt x="1050" y="1434" on="0"/>
        <pt x="1070" y="1438" on="0"/>
        <pt x="1077" y="1438" on="1"/>
        <pt x="1091" y="1428" on="0"/>
        <pt x="1128" y="1389" on="0"/>
        <pt x="1167" y="1342" on="0"/>
        <pt x="1205" y="1291" on="0"/>
        <pt x="1237" y="1249" on="0"/>
        <pt x="1258" y="1219" on="0"/>
      </contour>
    </TTGlyph>
    <TTGlyph name="Zacute" xMin="-225" yMin="-215" xMax="1260" yMax="1907">
      <component glyphName="Z" x="0" y="0" flags="0x204"/>
      <component glyphName="acute" x="453" y="877" flags="0x4"/>
    </TTGlyph>
    <TTGlyph name="Zcaron" xMin="-225" yMin="-215" xMax="1260" yMax="1876">
      <component glyphName="Z" x="0" y="0" flags="0x204"/>
      <component glyphName="caron" x="358" y="877" flags="0x4"/>
    </TTGlyph>
    <TTGlyph name="Zdotaccent" xMin="-225" yMin="-215" xMax="1260" yMax="1831">
      <component glyphName="Z" x="0" y="0" flags="0x204"/>
      <component glyphName="dotaccent" x="358" y="877" flags="0x4"/>
    </TTGlyph>
    <TTGlyph name="a" xMin="-143" yMin="-59" xMax="848" yMax="604">
      <contour>
        <pt x="516" y="88" on="1"/>
        <pt x="516" y="82" on="0"/>
        <pt x="522" y="82" on="1"/>
        <pt x="531" y="82" on="0"/>
        <pt x="573" y="108" on="0"/>
        <pt x="627" y="148" on="0"/>
        <pt x="688" y="198" on="0"/>
        <pt x="744" y="246" on="0"/>
        <pt x="789" y="286" on="0"/>
        <pt x="801" y="297" on="1"/>
        <pt x="810" y="288" on="0"/>
        <pt x="837" y="258" on="0"/>
        <pt x="848" y="246" on="1"/>
        <pt x="824" y="224" on="0"/>
        <pt x="757" y="161" on="0"/>
        <pt x="680" y="93" on="0"/>
        <pt x="598" y="26" on="0"/>
        <pt x="520" y="-26" on="0"/>
        <pt x="450" y="-59" on="0"/>
        <pt x="424" y="-59" on="1"/>
        <pt x="406" y="-59" on="0"/>
        <pt x="363" y="-45" on="0"/>
        <pt x="327" y="-20" on="0"/>
        <pt x="303" y="14" on="0"/>
        <pt x="303" y="35" on="1"/>
        <pt x="303" y="43" on="0"/>
        <pt x="302" y="66" on="0"/>
        <pt x="306" y="103" on="0"/>
        <pt x="318" y="156" on="0"/>
        <pt x="330" y="195" on="1"/>
        <pt x="297" y="160" on="0"/>
        <pt x="208" y="84" on="0"/>
        <pt x="110" y="16" on="0"/>
        <pt x="11" y="-39" on="0"/>
        <pt x="-31" y="-53" on="1"/>
        <pt x="-36" y="-55" on="0"/>
        <pt x="-42" y="-55" on="0"/>
        <pt x="-45" y="-55" on="1"/>
        <pt x="-55" y="-55" on="0"/>
        <pt x="-88" y="-35" on="0"/>
        <pt x="-120" y="-2" on="0"/>
        <pt x="-143" y="40" on="0"/>
        <pt x="-143" y="61" on="1"/>
        <pt x="-143" y="67" on="0"/>
        <pt x="-131" y="135" on="0"/>
        <pt x="-86" y="240" on="0"/>
        <pt x="2" y="371" on="0"/>
        <pt x="78" y="440" on="1"/>
        <pt x="117" y="475" on="0"/>
        <pt x="162" y="506" on="1"/>
        <pt x="200" y="532" on="0"/>
        <pt x="298" y="586" on="0"/>
        <pt x="352" y="602" on="1"/>
        <pt x="354" y="602" on="0"/>
        <pt x="357" y="604" on="0"/>
        <pt x="360" y="602" on="1"/>
        <pt x="372" y="598" on="0"/>
        <pt x="405" y="581" on="0"/>
        <pt x="438" y="562" on="0"/>
        <pt x="463" y="543" on="0"/>
        <pt x="467" y="537" on="1"/>
        <pt x="468" y="535" on="0"/>
        <pt x="467" y="534" on="1"/>
        <pt x="465" y="532" on="1"/>
        <pt x="420" y="508" on="0"/>
        <pt x="340" y="449" on="0"/>
        <pt x="309" y="423" on="1"/>
        <pt x="273" y="392" on="0"/>
        <pt x="242" y="362" on="1"/>
        <pt x="169" y="290" on="0"/>
        <pt x="113" y="185" on="0"/>
        <pt x="113" y="162" on="1"/>
        <pt x="113" y="145" on="0"/>
        <pt x="127" y="145" on="1"/>
        <pt x="141" y="145" on="0"/>
        <pt x="184" y="168" on="0"/>
        <pt x="238" y="207" on="0"/>
        <pt x="303" y="260" on="0"/>
        <pt x="338" y="289" on="1"/>
        <pt x="369" y="314" on="0"/>
        <pt x="398" y="343" on="1"/>
        <pt x="423" y="367" on="0"/>
        <pt x="477" y="429" on="0"/>
        <pt x="496" y="461" on="1"/>
        <pt x="496" y="462" on="0"/>
        <pt x="497" y="463" on="1"/>
        <pt x="498" y="464" on="0"/>
        <pt x="500" y="463" on="1"/>
        <pt x="511" y="455" on="0"/>
        <pt x="539" y="418" on="0"/>
        <pt x="563" y="374" on="0"/>
        <pt x="580" y="333" on="0"/>
        <pt x="580" y="322" on="1"/>
        <pt x="557" y="275" on="0"/>
        <pt x="532" y="198" on="0"/>
        <pt x="519" y="140" on="0"/>
        <pt x="516" y="99" on="0"/>
      </contour>
    </TTGlyph>
    <TTGlyph name="aacute" xMin="-143" yMin="-59" xMax="848" yMax="1030">
      <component glyphName="a" x="0" y="0" flags="0x204"/>
      <component glyphName="acute" x="168" y="0" flags="0x4"/>
    </TTGlyph>
    <TTGlyph name="abreve" xMin="-143" yMin="-59" xMax="848" yMax="965">
      <component glyphName="a" x="0" y="0" flags="0x204"/>
      <component glyphName="breve" x="70" y="0" flags="0x4"/>
    </TTGlyph>
    <TTGlyph name="acircumflex" xMin="-143" yMin="-59" xMax="848" yMax="1014">
      <component glyphName="a" x="0" y="0" flags="0x204"/>
      <component glyphName="circumflex" x="74" y="0" flags="0x4"/>
    </TTGlyph>
    <TTGlyph name="acute" xMin="217" yMin="684" xMax="541" yMax="1030">
      <contour>
        <pt x="541" y="930" on="1"/>
        <pt x="485" y="861" on="0"/>
        <pt x="355" y="737" on="0"/>
        <pt x="289" y="684" on="1"/>
        <pt x="284" y="687" on="0"/>
        <pt x="263" y="703" on="0"/>
        <pt x="241" y="723" on="0"/>
        <pt x="221" y="740" on="0"/>
        <pt x="217" y="745" on="1"/>
        <pt x="242" y="776" on="0"/>
        <pt x="304" y="860" on="0"/>
        <pt x="362" y="943" on="0"/>
        <pt x="408" y="1012" on="0"/>
        <pt x="418" y="1030" on="1"/>
        <pt x="439" y="1020" on="0"/>
        <pt x="478" y="989" on="0"/>
        <pt x="511" y="959" on="0"/>
        <pt x="535" y="934" on="0"/>
      </contour>
    </TTGlyph>
    <TTGlyph name="adieresis" xMin="-143" yMin="-59" xMax="848" yMax="975">
      <component glyphName="a" x="0" y="0" flags="0x204"/>
      <component glyphName="dieresis" x="74" y="0" flags="0x4"/>
    </TTGlyph>
    <TTGlyph name="ae" xMin="-143" yMin="-72" xMax="1108" yMax="606">
      <contour>
        <pt x="1108" y="246" on="1"/>
        <pt x="1016" y="156" on="0"/>
        <pt x="853" y="34" on="0"/>
        <pt x="705" y="-40" on="0"/>
        <pt x="570" y="-72" on="0"/>
        <pt x="506" y="-72" on="1"/>
        <pt x="479" y="-72" on="0"/>
        <pt x="413" y="-32" on="0"/>
        <pt x="356" y="25" on="0"/>
        <pt x="317" y="87" on="0"/>
        <pt x="317" y="109" on="1"/>
        <pt x="317" y="141" on="0"/>
        <pt x="320" y="171" on="1"/>
        <pt x="279" y="136" on="0"/>
        <pt x="190" y="67" on="0"/>
        <pt x="100" y="8" on="0"/>
        <pt x="11" y="-39" on="0"/>
        <pt x="-31" y="-53" on="1"/>
        <pt x="-36" y="-55" on="0"/>
        <pt x="-42" y="-55" on="0"/>
        <pt x="-45" y="-55" on="1"/>
        <pt x="-55" y="-55" on="0"/>
        <pt x="-88" y="-35" on="0"/>
        <pt x="-120" y="-2" on="0"/>
        <pt x="-143" y="40" on="0"/>
        <pt x="-143" y="61" on="1"/>
        <pt x="-143" y="106" on="0"/>
        <pt x="-108" y="214" on="0"/>
        <pt x="-38" y="326" on="0"/>
        <pt x="66" y="433" on="0"/>
        <pt x="203" y="523" on="0"/>
        <pt x="374" y="589" on="0"/>
        <pt x="475" y="602" on="1"/>
        <pt x="477" y="602" on="0"/>
        <pt x="480" y="604" on="0"/>
        <pt x="483" y="602" on="1"/>
        <pt x="492" y="599" on="0"/>
        <pt x="519" y="586" on="0"/>
        <pt x="546" y="571" on="0"/>
        <pt x="571" y="554" on="0"/>
        <pt x="579" y="547" on="1"/>
        <pt x="632" y="576" on="0"/>
        <pt x="735" y="606" on="0"/>
        <pt x="780" y="606" on="1"/>
        <pt x="811" y="606" on="0"/>
        <pt x="872" y="570" on="0"/>
        <pt x="921" y="518" on="0"/>
        <pt x="952" y="461" on="0"/>
        <pt x="952" y="440" on="1"/>
        <pt x="952" y="406" on="0"/>
        <pt x="895" y="335" on="0"/>
        <pt x="791" y="261" on="0"/>
        <pt x="646" y="184" on="0"/>
        <pt x="558" y="145" on="1"/>
        <pt x="555" y="121" on="0"/>
        <pt x="555" y="98" on="1"/>
        <pt x="555" y="67" on="0"/>
        <pt x="581" y="45" on="0"/>
        <pt x="618" y="45" on="1"/>
        <pt x="684" y="45" on="0"/>
        <pt x="802" y="89" on="0"/>
        <pt x="910" y="159" on="0"/>
        <pt x="1010" y="249" on="0"/>
        <pt x="1059" y="295" on="1"/>
      </contour>
      <contour>
        <pt x="338" y="289" on="1"/>
        <pt x="340" y="290" on="0"/>
        <pt x="343" y="293" on="1"/>
        <pt x="345" y="295" on="0"/>
        <pt x="352" y="301" on="0"/>
        <pt x="356" y="304" on="1"/>
        <pt x="385" y="373" on="0"/>
        <pt x="478" y="480" on="0"/>
        <pt x="532" y="518" on="1"/>
        <pt x="456" y="496" on="0"/>
        <pt x="306" y="419" on="0"/>
        <pt x="187" y="324" on="0"/>
        <pt x="113" y="216" on="0"/>
        <pt x="113" y="162" on="1"/>
        <pt x="113" y="145" on="0"/>
        <pt x="127" y="145" on="1"/>
        <pt x="141" y="145" on="0"/>
        <pt x="184" y="168" on="0"/>
        <pt x="238" y="207" on="0"/>
        <pt x="303" y="260" on="0"/>
      </contour>
      <contour>
        <pt x="756" y="496" on="1"/>
        <pt x="736" y="496" on="0"/>
        <pt x="688" y="454" on="0"/>
        <pt x="640" y="384" on="0"/>
        <pt x="596" y="293" on="0"/>
        <pt x="581" y="244" on="1"/>
        <pt x="618" y="268" on="0"/>
        <pt x="688" y="322" on="0"/>
        <pt x="744" y="381" on="0"/>
        <pt x="778" y="443" on="0"/>
        <pt x="778" y="473" on="1"/>
        <pt x="778" y="482" on="0"/>
        <pt x="767" y="496" on="0"/>
      </contour>
    </TTGlyph>
    <TTGlyph name="aeacute" xMin="-143" yMin="-72" xMax="1108" yMax="1030">
      <component glyphName="ae" x="0" y="0" flags="0x204"/>
      <component glyphName="acute" x="377" y="0" flags="0x4"/>
    </TTGlyph>
    <TTGlyph name="agrave" xMin="-143" yMin="-59" xMax="848" yMax="1028">
      <component glyphName="a" x="0" y="0" flags="0x204"/>
      <component glyphName="grave" x="74" y="0" flags="0x4"/>
    </TTGlyph>
    <TTGlyph name="amacron" xMin="-143" yMin="-59" xMax="848" yMax="909">
      <component glyphName="a" x="0" y="0" flags="0x204"/>
      <component glyphName="macron" x="74" y="0" flags="0x4"/>
    </TTGlyph>
    <TTGlyph name="ampersand" xMin="-41" yMin="-96" xMax="1149" yMax="1520">
      <contour>
        <pt x="1141" y="1364" on="1"/>
        <pt x="1144" y="1358" on="0"/>
        <pt x="1149" y="1346" on="0"/>
        <pt x="1149" y="1339" on="1"/>
        <pt x="1149" y="1288" on="0"/>
        <pt x="1104" y="1185" on="0"/>
        <pt x="1025" y="1081" on="0"/>
        <pt x="919" y="976" on="0"/>
        <pt x="796" y="868" on="0"/>
        <pt x="663" y="758" on="0"/>
        <pt x="598" y="702" on="1"/>
        <pt x="597" y="684" on="0"/>
        <pt x="596" y="649" on="0"/>
        <pt x="596" y="633" on="1"/>
        <pt x="596" y="572" on="0"/>
        <pt x="625" y="444" on="0"/>
        <pt x="648" y="381" on="1"/>
        <pt x="720" y="456" on="0"/>
        <pt x="832" y="596" on="0"/>
        <pt x="910" y="705" on="0"/>
        <pt x="952" y="770" on="0"/>
        <pt x="954" y="770" on="1"/>
        <pt x="958" y="770" on="0"/>
        <pt x="968" y="737" on="0"/>
        <pt x="977" y="684" on="0"/>
        <pt x="986" y="619" on="0"/>
        <pt x="993" y="555" on="0"/>
        <pt x="997" y="499" on="0"/>
        <pt x="997" y="483" on="1"/>
        <pt x="997" y="469" on="1"/>
        <pt x="995" y="449" on="0"/>
        <pt x="952" y="390" on="0"/>
        <pt x="882" y="317" on="0"/>
        <pt x="788" y="235" on="0"/>
        <pt x="734" y="194" on="1"/>
        <pt x="761" y="143" on="0"/>
        <pt x="816" y="55" on="0"/>
        <pt x="863" y="-14" on="0"/>
        <pt x="900" y="-61" on="0"/>
        <pt x="909" y="-70" on="1"/>
        <pt x="887" y="-73" on="0"/>
        <pt x="804" y="-76" on="0"/>
        <pt x="713" y="-76" on="0"/>
        <pt x="628" y="-74" on="0"/>
        <pt x="604" y="-72" on="1"/>
        <pt x="599" y="-64" on="0"/>
        <pt x="557" y="1" on="0"/>
        <pt x="531" y="53" on="1"/>
        <pt x="479" y="21" on="0"/>
        <pt x="378" y="-33" on="0"/>
        <pt x="287" y="-73" on="0"/>
        <pt x="207" y="-96" on="0"/>
        <pt x="176" y="-96" on="1"/>
        <pt x="156" y="-96" on="0"/>
        <pt x="108" y="-69" on="0"/>
        <pt x="60" y="-27" on="0"/>
        <pt x="15" y="25" on="0"/>
        <pt x="-20" y="77" on="0"/>
        <pt x="-41" y="123" on="0"/>
        <pt x="-41" y="137" on="1"/>
        <pt x="-41" y="232" on="0"/>
        <pt x="40" y="407" on="0"/>
        <pt x="174" y="570" on="0"/>
        <pt x="347" y="723" on="0"/>
        <pt x="439" y="796" on="1"/>
        <pt x="457" y="896" on="0"/>
        <pt x="516" y="1082" on="0"/>
        <pt x="592" y="1243" on="0"/>
        <pt x="684" y="1375" on="0"/>
        <pt x="787" y="1469" on="0"/>
        <pt x="898" y="1520" on="0"/>
        <pt x="956" y="1520" on="1"/>
        <pt x="982" y="1520" on="0"/>
        <pt x="1036" y="1487" on="0"/>
        <pt x="1086" y="1439" on="0"/>
        <pt x="1127" y="1385" on="0"/>
      </contour>
      <contour>
        <pt x="464" y="214" on="1"/>
        <pt x="442" y="280" on="0"/>
        <pt x="414" y="429" on="0"/>
        <pt x="414" y="512" on="1"/>
        <pt x="414" y="530" on="1"/>
        <pt x="364" y="478" on="0"/>
        <pt x="280" y="372" on="0"/>
        <pt x="218" y="261" on="0"/>
        <pt x="184" y="147" on="0"/>
        <pt x="184" y="88" on="1"/>
        <pt x="184" y="83" on="0"/>
        <pt x="191" y="72" on="0"/>
        <pt x="199" y="72" on="1"/>
        <pt x="212" y="72" on="0"/>
        <pt x="264" y="90" on="0"/>
        <pt x="334" y="126" on="0"/>
        <pt x="418" y="179" on="0"/>
      </contour>
      <contour>
        <pt x="977" y="1409" on="1"/>
        <pt x="915" y="1409" on="0"/>
        <pt x="811" y="1331" on="0"/>
        <pt x="726" y="1204" on="0"/>
        <pt x="661" y="1039" on="0"/>
        <pt x="639" y="952" on="1"/>
        <pt x="711" y="1009" on="0"/>
        <pt x="838" y="1120" on="0"/>
        <pt x="934" y="1231" on="0"/>
        <pt x="989" y="1341" on="0"/>
        <pt x="989" y="1397" on="1"/>
        <pt x="989" y="1409" on="0"/>
      </contour>
    </TTGlyph>
    <TTGlyph name="aogonek" xMin="-143" yMin="-387" xMax="848" yMax="604">
      <contour>
        <pt x="580" y="-342" on="1"/>
        <pt x="552" y="-357" on="0"/>
        <pt x="457" y="-387" on="0"/>
        <pt x="395" y="-387" on="1"/>
        <pt x="379" y="-387" on="0"/>
        <pt x="335" y="-362" on="0"/>
        <pt x="294" y="-326" on="0"/>
        <pt x="266" y="-287" on="0"/>
        <pt x="266" y="-272" on="1"/>
        <pt x="266" y="-241" on="0"/>
        <pt x="288" y="-181" on="0"/>
        <pt x="323" y="-126" on="0"/>
        <pt x="367" y="-75" on="0"/>
        <pt x="389" y="-53" on="1"/>
        <pt x="373" y="-49" on="0"/>
        <pt x="342" y="-32" on="0"/>
        <pt x="318" y="-9" on="0"/>
        <pt x="303" y="19" on="0"/>
        <pt x="303" y="35" on="1"/>
        <pt x="303" y="43" on="0"/>
        <pt x="302" y="66" on="0"/>
        <pt x="306" y="103" on="0"/>
        <pt x="318" y="156" on="0"/>
        <pt x="330" y="195" on="1"/>
        <pt x="297" y="160" on="0"/>
        <pt x="208" y="84" on="0"/>
        <pt x="110" y="16" on="0"/>
        <pt x="11" y="-39" on="0"/>
        <pt x="-31" y="-53" on="1"/>
        <pt x="-36" y="-55" on="0"/>
        <pt x="-42" y="-55" on="0"/>
        <pt x="-45" y="-55" on="1"/>
        <pt x="-55" y="-55" on="0"/>
        <pt x="-88" y="-35" on="0"/>
        <pt x="-120" y="-2" on="0"/>
        <pt x="-143" y="40" on="0"/>
        <pt x="-143" y="61" on="1"/>
        <pt x="-143" y="67" on="0"/>
        <pt x="-131" y="135" on="0"/>
        <pt x="-86" y="240" on="0"/>
        <pt x="2" y="371" on="0"/>
        <pt x="78" y="440" on="1"/>
        <pt x="117" y="475" on="0"/>
        <pt x="162" y="506" on="1"/>
        <pt x="200" y="532" on="0"/>
        <pt x="298" y="586" on="0"/>
        <pt x="352" y="602" on="1"/>
        <pt x="354" y="602" on="0"/>
        <pt x="357" y="604" on="0"/>
        <pt x="360" y="602" on="1"/>
        <pt x="372" y="598" on="0"/>
        <pt x="405" y="581" on="0"/>
        <pt x="438" y="562" on="0"/>
        <pt x="463" y="543" on="0"/>
        <pt x="467" y="537" on="1"/>
        <pt x="468" y="535" on="0"/>
        <pt x="467" y="534" on="1"/>
        <pt x="465" y="532" on="1"/>
        <pt x="420" y="508" on="0"/>
        <pt x="340" y="449" on="0"/>
        <pt x="309" y="423" on="1"/>
        <pt x="273" y="392" on="0"/>
        <pt x="242" y="362" on="1"/>
        <pt x="169" y="290" on="0"/>
        <pt x="113" y="185" on="0"/>
        <pt x="113" y="162" on="1"/>
        <pt x="113" y="145" on="0"/>
        <pt x="127" y="145" on="1"/>
        <pt x="141" y="145" on="0"/>
        <pt x="184" y="168" on="0"/>
        <pt x="238" y="207" on="0"/>
        <pt x="303" y="260" on="0"/>
        <pt x="338" y="289" on="1"/>
        <pt x="369" y="314" on="0"/>
        <pt x="398" y="343" on="1"/>
        <pt x="423" y="367" on="0"/>
        <pt x="477" y="429" on="0"/>
        <pt x="496" y="461" on="1"/>
        <pt x="498" y="463" on="0"/>
        <pt x="498" y="465" on="0"/>
        <pt x="500" y="463" on="1"/>
        <pt x="511" y="455" on="0"/>
        <pt x="539" y="418" on="0"/>
        <pt x="563" y="375" on="0"/>
        <pt x="580" y="334" on="0"/>
        <pt x="580" y="324" on="1"/>
        <pt x="580" y="322" on="1"/>
        <pt x="557" y="275" on="0"/>
        <pt x="532" y="198" on="0"/>
        <pt x="519" y="140" on="0"/>
        <pt x="516" y="99" on="0"/>
        <pt x="516" y="88" on="1"/>
        <pt x="516" y="82" on="0"/>
        <pt x="522" y="82" on="1"/>
        <pt x="531" y="82" on="0"/>
        <pt x="573" y="108" on="0"/>
        <pt x="627" y="148" on="0"/>
        <pt x="688" y="198" on="0"/>
        <pt x="744" y="246" on="0"/>
        <pt x="789" y="286" on="0"/>
        <pt x="801" y="297" on="1"/>
        <pt x="848" y="246" on="1"/>
        <pt x="819" y="220" on="0"/>
        <pt x="737" y="149" on="0"/>
        <pt x="646" y="73" on="0"/>
        <pt x="555" y="-1" on="0"/>
        <pt x="518" y="-31" on="1"/>
        <pt x="498" y="-47" on="0"/>
        <pt x="450" y="-96" on="0"/>
        <pt x="408" y="-151" on="0"/>
        <pt x="379" y="-206" on="0"/>
        <pt x="379" y="-229" on="1"/>
        <pt x="379" y="-243" on="0"/>
        <pt x="397" y="-258" on="0"/>
        <pt x="410" y="-258" on="1"/>
        <pt x="420" y="-258" on="0"/>
        <pt x="455" y="-251" on="0"/>
        <pt x="494" y="-239" on="0"/>
        <pt x="534" y="-222" on="0"/>
        <pt x="551" y="-213" on="1"/>
        <pt x="554" y="-225" on="0"/>
        <pt x="562" y="-263" on="0"/>
        <pt x="570" y="-302" on="0"/>
        <pt x="577" y="-335" on="0"/>
      </contour>
    </TTGlyph>
    <TTGlyph name="approxequal" xMin="6" yMin="305" xMax="674" yMax="889">
      <contour>
        <pt x="616" y="403" on="1"/>
        <pt x="598" y="390" on="0"/>
        <pt x="553" y="356" on="0"/>
        <pt x="503" y="326" on="0"/>
        <pt x="449" y="305" on="0"/>
        <pt x="424" y="305" on="1"/>
        <pt x="386" y="305" on="0"/>
        <pt x="322" y="345" on="0"/>
        <pt x="268" y="394" on="0"/>
        <pt x="222" y="434" on="0"/>
        <pt x="201" y="434" on="1"/>
        <pt x="178" y="434" on="0"/>
        <pt x="135" y="407" on="0"/>
        <pt x="98" y="371" on="0"/>
        <pt x="68" y="334" on="0"/>
        <pt x="57" y="324" on="1"/>
        <pt x="49" y="337" on="0"/>
        <pt x="33" y="379" on="0"/>
        <pt x="19" y="422" on="0"/>
        <pt x="8" y="459" on="0"/>
        <pt x="6" y="467" on="1"/>
        <pt x="27" y="491" on="0"/>
        <pt x="70" y="532" on="0"/>
        <pt x="115" y="564" on="0"/>
        <pt x="160" y="582" on="0"/>
        <pt x="182" y="582" on="1"/>
        <pt x="226" y="582" on="0"/>
        <pt x="290" y="544" on="0"/>
        <pt x="344" y="497" on="0"/>
        <pt x="392" y="459" on="0"/>
        <pt x="420" y="459" on="1"/>
        <pt x="441" y="459" on="0"/>
        <pt x="480" y="479" on="0"/>
        <pt x="512" y="507" on="0"/>
        <pt x="536" y="536" on="0"/>
        <pt x="543" y="545" on="1"/>
        <pt x="571" y="505" on="0"/>
        <pt x="604" y="434" on="0"/>
      </contour>
      <contour>
        <pt x="674" y="711" on="1"/>
        <pt x="656" y="698" on="0"/>
        <pt x="611" y="664" on="0"/>
        <pt x="560" y="633" on="0"/>
        <pt x="506" y="612" on="0"/>
        <pt x="481" y="612" on="1"/>
        <pt x="443" y="612" on="0"/>
        <pt x="379" y="652" on="0"/>
        <pt x="325" y="701" on="0"/>
        <pt x="279" y="741" on="0"/>
        <pt x="258" y="741" on="1"/>
        <pt x="235" y="741" on="0"/>
        <pt x="193" y="714" on="0"/>
        <pt x="156" y="678" on="0"/>
        <pt x="125" y="641" on="0"/>
        <pt x="115" y="631" on="1"/>
        <pt x="107" y="644" on="0"/>
        <pt x="91" y="686" on="0"/>
        <pt x="77" y="730" on="0"/>
        <pt x="66" y="766" on="0"/>
        <pt x="63" y="774" on="1"/>
        <pt x="105" y="822" on="0"/>
        <pt x="195" y="889" on="0"/>
        <pt x="240" y="889" on="1"/>
        <pt x="283" y="889" on="0"/>
        <pt x="348" y="851" on="0"/>
        <pt x="401" y="804" on="0"/>
        <pt x="449" y="766" on="0"/>
        <pt x="477" y="766" on="1"/>
        <pt x="499" y="766" on="0"/>
        <pt x="538" y="786" on="0"/>
        <pt x="569" y="814" on="0"/>
        <pt x="593" y="843" on="0"/>
        <pt x="600" y="852" on="1"/>
        <pt x="628" y="812" on="0"/>
        <pt x="661" y="742" on="0"/>
      </contour>
    </TTGlyph>
    <TTGlyph name="aring" xMin="-143" yMin="-59" xMax="848" yMax="1034">
      <component glyphName="a" x="0" y="0" flags="0x204"/>
      <component glyphName="ring" x="43" y="0" flags="0x4"/>
    </TTGlyph>
    <TTGlyph name="asciicircum" xMin="250" yMin="997" xMax="930" yMax="1430">
      <contour>
        <pt x="930" y="1047" on="1"/>
        <pt x="901" y="1038" on="0"/>
        <pt x="846" y="1021" on="0"/>
        <pt x="798" y="1007" on="0"/>
        <pt x="759" y="998" on="0"/>
        <pt x="748" y="997" on="1"/>
        <pt x="737" y="1019" on="0"/>
        <pt x="709" y="1086" on="0"/>
        <pt x="674" y="1163" on="0"/>
        <pt x="632" y="1246" on="0"/>
        <pt x="608" y="1286" on="1"/>
        <pt x="591" y="1263" on="0"/>
        <pt x="540" y="1193" on="0"/>
        <pt x="485" y="1114" on="0"/>
        <pt x="431" y="1036" on="0"/>
        <pt x="410" y="1006" on="1"/>
        <pt x="391" y="1011" on="0"/>
        <pt x="345" y="1034" on="0"/>
        <pt x="300" y="1059" on="0"/>
        <pt x="261" y="1084" on="0"/>
        <pt x="250" y="1092" on="1"/>
        <pt x="258" y="1108" on="0"/>
        <pt x="296" y="1162" on="0"/>
        <pt x="346" y="1226" on="0"/>
        <pt x="403" y="1296" on="0"/>
        <pt x="456" y="1359" on="0"/>
        <pt x="501" y="1412" on="0"/>
        <pt x="514" y="1427" on="1"/>
        <pt x="529" y="1430" on="0"/>
        <pt x="596" y="1427" on="0"/>
        <pt x="671" y="1421" on="0"/>
        <pt x="739" y="1413" on="0"/>
        <pt x="756" y="1409" on="1"/>
        <pt x="762" y="1398" on="0"/>
        <pt x="793" y="1339" on="0"/>
        <pt x="830" y="1263" on="0"/>
        <pt x="871" y="1180" on="0"/>
        <pt x="905" y="1107" on="0"/>
        <pt x="928" y="1054" on="0"/>
      </contour>
    </TTGlyph>
</ttFont>
